<svg xmlns="http://www.w3.org/2000/svg" width="243" height="243">
  <g fill="none" fill-rule="evenodd">
    <path fill="#FFF8E5" d="M241.645 121.0483c0 66.6037-53.993 120.5967-120.5967 120.5967S.4517 187.652.4517 121.0483 54.4447.4517 121.0483.4517c66.6037 0 120.5967 53.993 120.5967 120.5966"/>
    <path fill="#EE8E0D" d="M231.7576 65.8357c-.1427-.401-1.15-2.0334-.8799-1.2764.1428.4002 1.149 2.0325.8799 1.2764M194.2784 220.5024c.3957-.1807 1.8013-1.487 1.112-1.0795-.3496.2393-1.8211 1.4516-1.112 1.0795M45.5899 24.063c-.3677.2169-1.7652 1.5113-1.075 1.1012.3658-.2186 1.766-1.513 1.075-1.1011M241.7164 140.9603c.0642-.2023.1419-.775.1726-1.2023.0198-.4282-.0154-.7119-.1148-.3288-.1084.411-.3026 2.2854-.0578 1.5311M222.867 188.8081c.2747-.3243 1.1645-1.9955.654-1.392-.2746.3252-1.1652 1.9963-.654 1.392M175.9945 228.5032c-.1174.2963-2.3415 1.4571-3.962 2.169.0605-.159.6702-.4734 1.457-.86.777-.4057 1.7218-.8998 2.505-1.309m30.2973-22.011c-.355.1211-1.0722.6993-2.317 1.9305.4435-.8582 1.5682-1.8428 2.551-2.6567.9756-.8212 1.8808-1.4038 1.9919-1.3063.4354-.4986 1.046-1.1382 1.7136-1.8238.6649-.6893 1.3324-1.4743 1.9702-2.1816 1.2584-1.4327 2.3053-2.6414 2.1698-2.8681 1.0913-1.2114 1.3253-1.356 1.0515-.888-.2692.4697-1.0397 1.5547-2.0451 2.7155-.9946 1.1689-2.1093 2.5113-3.0687 3.4815-.9675.963-1.6983 1.6269-1.7913 1.5645-1.6947 1.8492-3.5375 3.5647-5.356 5.2946-.887.803-1.2475 1.047-1.2267.9873.0235-.056.4128-.4318.935-.9684 1.0578-1.0596 2.7326-2.6676 3.4218-3.281m3.8555-4.6232c.598-.5005-.5465.9701-.8844 1.2249-.6115.4896.5637-.9576.8844-1.225m5.766-6.8979c.131.1518-1.0135 1.542-1.6973 2.487-.1238-.1609 1.0144-1.5448 1.6974-2.487m9.5113-11.7263c.4742-.6342-.3044 1.0885-.6053 1.4002-.5058.608.3731-1.056.6053-1.4002m-.345-.206c.4724-.6314-.3027 1.085-.6026 1.3957-.5059.6052.3694-1.0533.6025-1.3957m1.8573-2.4237c.4797-.626-.3234 1.0777-.5836 1.4192-.4787.6242.3261-1.084.5836-1.4192M131.52 241.87c6.2286-.5628 12.244-1.5375 18.0443-3.0768 5.8013-1.514 11.4689-3.2873 17.0163-5.5285 5.5936-2.2023 12.7914-5.1328 20.376-9.9268 7.3423-4.598 14.0867-10.3885 19.2267-14.7968.0479-.1446.393-.5818.9016-1.1644.4977-.5954 1.1282-1.3668 1.8067-2.1265.6757-.7634 1.3857-1.5276 2.009-2.1437.6152-.6233 1.1111-1.1282 1.4327-1.3026-.3541.4047-.7091.8085-1.0443 1.1906-.346.3722-.672.7218-.9575 1.028-.561.6233-.9368 1.0967-.9413 1.271 2.2267-2.1653 3.0587-3.1815 3.9657-4.2502.9042-1.0714 1.8844-2.1987 3.9855-4.9576-.0903-.0668.58-1.1093.9395-1.196l-.9395 1.196.1581.1238c.5999-.7606 1.131-1.4345 1.5944-2.0235.4318-.6116.8022-1.1346 1.1103-1.571.6115-.8753.9683-1.4091 1.0776-1.6151.2187-.4128-.5528.4842-2.242 2.5565 1.4471-2.076 2.9918-4.0859 4.3116-6.2494l2.0425-3.2014 1.8934-3.2927c.3044-.6044.6025-1.1952.8943-1.7742.271-.5908.5375-1.1698.7986-1.7408.5374-1.131 1.0569-2.2249 1.5673-3.299.9385-2.1834 1.9051-4.2547 2.7976-6.4128.8302-2.1825 1.8157-4.3623 2.5908-6.8239.4092-1.2231.8537-2.4851 1.2701-3.8248.3686-1.354.7552-2.7705 1.1635-4.2683-.159-.2999-.4372.2259-.8012 1.346.2384-.2863-.2033 1.7308-.8248 3.6947-.6594 1.9521-1.3975 3.8763-1.4435 3.4996l1.2095-3.5755c.4011-1.1915.7037-2.4137 1.0588-3.6188l-.1934-.0542c-.477 1.7561-.5338.8076 0 0 .786-2.6929 1.132-4.9079 1.0976-5.9277-1.9557 7.0849-2.4164 10.5899-3.552 13.0425-.1454.4833-.3026 1.0045-.4697 1.56-.1978.5457-.4074 1.1247-.6269 1.7318-.4499 1.2122-.9314 2.5456-1.4815 3.9385-.6034 1.3713-1.2394 2.8176-1.8934 4.3018-.6459 1.4878-1.459 2.9404-2.1978 4.4282-3.0976 5.8835-6.7535 11.4598-9.309 14.5764 3.421-4.6414 6.3939-9.6008 9.0876-14.6939 2.7308-5.0804 4.9413-10.4237 6.8908-15.8428-.2331.3965-.496 1.0686-.861 1.8347-.3595.766-.7533 1.6522-1.1273 2.5203-.3659.8708-.7236 1.72-1.0163 2.4146-.3152.6839-.561 1.216-.6748 1.4617-.4544 1.0162-.4372 1.5727-1.0497 2.8103-.2014.3965-.1888-.056-.8112 1.2818-.5085.9973-.5076 1.5375-1.186 2.7552-.2286.4083-.179-.1328-.8655 1.2475-1.2177 2.403-1.513 2.8266-1.7651 3.28-.2827.4337-.571.88-2.1165 3.1202-3.6188 6.1274-8.7869 12.8863-14.1636 18.6379-5.355 5.7805-10.832 10.6089-14.412 13.8076l.1247.159c3.6874-2.4625 4.1653-3.7137 6.0587-4.4887-.9873.8003-2.1102 1.813-3.3333 2.832-1.243.9954-2.5502 2.0424-3.795 3.0397-1.2647.9738-2.5221 1.8266-3.5763 2.552-1.056.7235-1.945 1.2692-2.5601 1.5058-1.0632.8835-2.8076 2.0913-4.5845 3.0805-1.7931.9638-3.5546 1.812-4.5375 2.2005 5.9495-2.963 10.2756-6.9684 13.9386-8.8925-1.8193 1.3234-4.5456 3.177-4.8166 3.6115 2.1527-1.5266 7.3686-4.9214 7.206-5.4408-.6585.5176-1.4436.9268-.1247-.159-2.775 1.888-7.2846 5.029-11.757 7.8537-4.5195 2.7426-9.0082 5.141-11.338 6.0235-1.4606.7146-.7587.7814-2.5726 1.6052-.6803.1148-1.3388.2268-2.9269.7887-.5167.4625-1.626 1.1039-4.0524 2.0135-2.4273.8311-4.3893 1.6017-6.1924 2.1391-1.804.534-3.392 1.0244-5.0145 1.4698-1.6378.3875-3.3.7687-5.224 1.1897-1.936.3532-4.1446.7127-6.8564 1.0876.813.5176-6.8248 1.0723-7.4174 1.4517M15.4698 181.9616c.1644.3947 1.234 1.9503.9313 1.2159-.1598-.3903-1.2303-1.9458-.9313-1.216M27.14 197.8177c-4.5293-5.4968-3.2294-3.7154-1.4408-1.4408.887 1.1418 1.9079 2.392 2.4155 2.878.4969.496.374.3144-.9747-1.4372M113.4263 241.6838c-1.6395.0416-4.729-.1165-7.7181-.5637-3.0064-.3207-5.9016-.896-7.2927-.9105 3.2475.8952 9.9042 1.4878 10.4643 1.5311.412.0208 1.7977.159 3.5872.3415.8961.0777 1.8898.2222 2.9187.2665 1.029.0497 2.0867.1012 3.102.15 1.0155.0397 1.9875.1011 2.8447.1011.8573-.0135 1.5999-.0325 2.1545-.0596 1.1075-.0524 1.4616-.1355.4887-.2638-.5086.0082-1.131.019-1.8211.0307a29.3265 29.3265 0 0 1-2.2277.009c-1.56-.0316-3.2078-.0659-4.5772-.0939-2.738-.159-4.3478-.4002-1.9233-.5384M73.9314 232.6402c-5.3053-2.3045-10.476-4.916-15.4418-7.8872-4.9223-3.037-9.673-6.3532-14.1572-10.01 3.72 3.2169 9.421 7.505 15.1699 10.9053 1.4508.8247 2.8528 1.682 4.2475 2.4065 1.4056.7046 2.749 1.3776 3.9946 2.0018 2.524 1.178 4.7146 2.028 6.187 2.5836M242.1443 121.2367c-.0669.4191.0379 2.2963.1626 1.5104.066-.4174-.0389-2.2882-.1626-1.5104M241.9917 127.2712c-.1518 1.9801-.3153 4.4815-.4652 5.9856-.2114 1.4986-.3785 1.9946-.393-.0027-.2349 2.6513-.355 3.569-.4625 4.4869-.0533.4598-.1048.9196-.1825 1.5953-.0993.673-.2312 1.56-.4264 2.879.1238.42.4201-.5439.7814-2.169.3316-1.6296.6035-3.9368.8862-6.1617.2024-2.234.2927-4.3984.3541-5.7453.0687-1.346-.038-1.8835-.0921-.868M239.7298 145.2234c-.1265.3984-.4155 2.2556-.1319 1.5149.075-.1978.1798-.7624.2313-1.1834.038-.4236.019-.7055-.0994-.3315M238.5777 151.161c.149-.3967.4227-2.2603.1454-1.5231-.149.393-.4237 2.2574-.1454 1.523M128.5035 242.0997c.4201.0235 2.2756-.27 1.4915-.3152-.4192-.0244-2.2765.27-1.4915.3152M79.4776 235.0353c1.3343.4173 2.8853.943 4.5131 1.5059 1.6224.579 3.3731 1.0226 5.0253 1.5266 1.6487.5176 3.2638.8519 4.6414 1.1455 1.3813.28 2.5285.505 3.3063.532-2.7317-.5429-6.3957-1.3974-9.683-2.43-.8274-.2403-1.636-.4751-2.4056-.6992-.7624-.2493-1.4878-.486-2.1563-.7037-1.3423-.4218-2.4697-.738-3.2412-.8771M75.2644 233.382c.3677.2051 2.1653.7499 1.4734.365-.3659-.205-2.1662-.7507-1.4734-.365"/>
    <path fill="#EE8E0D" d="M2.134 140.4826c.0424.7787-.4643-1.0262-.4436-1.4498.0027-.3939.1003-.1328.1979.2773.1084.4083.2394.9639.2457 1.1725M33.304 37.634c-1.7733 1.8194-3.4391 3.8492-5.1952 5.898-.878 1.0253-1.6793 2.1373-2.542 3.2231-.4246.5474-.8528 1.0976-1.2828 1.6522-.4282.5565-.8175 1.1464-1.2322 1.7236-3.364 4.5818-6.4372 9.6965-9.29 15.1292-.681 1.3758-1.4399 2.7272-2.0722 4.151-.6414 1.42-1.2873 2.85-1.936 4.289-1.1743 2.9295-2.3956 5.8862-3.373 8.963-2.0262 6.1202-3.7064 12.496-4.7236 19.0353C.6182 108.2323.0915 114.8872.0653 121.5169c.01 6.6324.6025 13.225 1.6324 19.637 1.0027 6.4209 2.6314 12.6269 4.5953 18.5167.9304 2.9657 2.1147 5.7923 3.2114 8.5917 1.2439 2.738 2.402 5.4562 3.775 8.001 3.0651 5.9205 6.2792 11.2638 9.8068 16.0804.831 1.2412 1.767 2.3858 2.6576 3.5493.9007 1.1553 1.7643 2.326 2.7245 3.4056.9377 1.0993 1.8708 2.1906 2.7986 3.2782.9801 1.0425 1.9566 2.0795 2.9313 3.1157.5068.5212 1.1355.5826 2.4156 1.8491 0 0 .0993.981 1.9078 2.3758.3677.029 1.1672.9693 1.1021 1.038 2.0353 1.785 2.5574 1.915 4.7092 3.7886 3.2394 2.4779 7.2105 5.524 11.925 8.4029 1.1635.7426 2.3542 1.5005 3.6206 2.1888 1.2548.7037 2.5186 1.4472 3.8248 2.1545 1.3252.672 2.6694 1.3532 4.0262 2.0406 1.3451.711 2.7769 1.2729 4.1762 1.9242 11.2692 5.0686 23.8835 8.2159 34.0498 9.318.5845.0804 1.4806.2041 2.4851.3414 1.0063.1184 2.1256.1979 3.149.2756 2.0489.1418 3.7128.1761 3.3686-.2006-9.2168-.3505-19.6342-1.9033-30.2241-5.1391-5.2819-1.6567-10.5908-3.7254-15.8194-6.1653-5.187-2.523-10.29-5.3984-15.1636-8.6387-4.8347-3.2982-9.4535-6.9097-13.757-10.7733-4.244-3.9287-8.2024-8.0552-11.758-12.3343-.8897-1.0687-1.7154-2.177-2.5655-3.252-.4218-.5412-.8419-1.0796-1.2601-1.6153a832.7207 832.7207 0 0 0-1.1735-1.6594c-.7732-1.1048-1.542-2.1987-2.3026-3.2837-.7091-1.1183-1.411-2.2267-2.1066-3.3225-.3424-.551-.7028-1.0876-1.0253-1.6413-.317-.5583-.6314-1.1139-.9449-1.6658-.6251-1.1039-1.2412-2.1951-1.85-3.2728-.5565-1.1048-1.1066-2.196-1.6468-3.271-.5475-1.0723-1.0814-2.132-1.534-3.2087-1.3134-2.4246-2.1273-4.2313-2.8563-6.2837-.3866-1.018-.7913-2.0831-1.2575-3.309-.4227-1.243-.9223-2.6404-1.5628-4.3071.2178-.0922-.2321-4.2846-1.3089-5.8754.7678 2.43.6224 2.7652.4327 2.9973-1.1445-3.915-3.1138-11.5411-2.8753-13.2042.178 1.0479.3568 2.0949.5248 2.9052.1635.8112.384 1.3713.5149 1.4697-.5781-2.2159-.692-3.5872-.8645-4.8085-.1427-1.2258-.271-2.3216-.4743-4.0714-.7308-3.4155-.262 2.9973-.9783-2.9042-1.1147-8.6089-.9774-16.7824-.214-24.4482.7705-7.6775 2.1743-14.8582 3.7624-21.7869 1.3785-5.0036 3.1716-9.6034 4.981-14.0515.4779-1.103.9919-2.1807 1.4815-3.2638.5068-1.075.9548-2.1716 1.5212-3.2078 1.1003-2.0876 2.1103-4.2105 3.3343-6.2213 4.691-8.1446 10.2177-15.9486 17.6071-23.664.813-.9061.8907-1.2259 1.9313-2.3162-.3342-.4219-.9214.6486-2.2222 2.0388M38.522 32.1795c-.6722.9025-1.7806 2.1157-2.9956 3.4156.4445-.2936 1.2584-.9756 2.2466-1.8672.9937-.8844 2.1301-2.0109 3.3614-3.0452a10199.227 10199.227 0 0 0 3.4164-3.0425c1.038-.869 1.8645-1.5899 2.2756-1.991l-.1238-.158c-1.122.9403-2.0587 1.701-2.8365 2.383-.7633.6983-1.4029 1.2746-1.9874 1.776-1.1617 1.0108-2.139 1.6793-3.3568 2.5293M227.5126 62.8875c-3.8745-7.0696-8.4571-13.748-13.6496-19.908l-2.9702-3.4281c-.8383-.8266-2.0605-2.1563-2.2303-2.0533 1.8021 1.7642 3.5908 3.879 5.449 6.0433.9223 1.0886 1.7777 2.2584 2.6757 3.3948l1.3288 1.7155c.4155.5908.8293 1.1788 1.2403 1.7633 3.3812 4.617 6.0813 9.2981 8.1563 12.4725M229.5971 66.915c-.5745-1.0234-1.365-2.6513-1.5564-2.598.5754 1.0244 1.365 2.6532 1.5565 2.598M234.2665 78.0551c-2.1274-6.9205-1.9522-3.1518 0 0M119.4471 241.907c-7.9837-.421-1.7976.5654 0 0M88.2315 4.694c2.692-.849 5.4607-1.3062 8.1509-1.924 1.355-.2638 2.71-.486 4.046-.7742 1.3343-.2954 2.6586-.589 3.9811-.8817-3.8934.5131-8.3207 1.3695-12.8546 2.468-2.262.5663-4.5384 1.2475-6.8058 1.9042-1.1192.3785-2.2349.757-3.3424 1.131-1.1075.373-2.2096.7371-3.2656 1.1797-2.2674.8962-4.56 1.7534-6.682 2.757-1.0687.4833-2.1229.9377-3.1238 1.4129-.9864.5077-1.9377.9964-2.842 1.4607-.897.477-1.7642.8997-2.5347 1.3595-.7688.4626-1.477.897-2.1102 1.299-1.262.8122-2.2475 1.4562-2.7887 1.9964 5.8564-3.4815 11.2386-6.1337 16.1997-8.3496 1.2584-.514 2.4824-1.0135 3.6785-1.5022.6007-.2412 1.1852-.4969 1.7768-.7164.5945-.2105 1.1825-.4182 1.7634-.6242 1.1644-.4092 2.3017-.8103 3.4173-1.2033 1.1274-.3568 2.244-.6693 3.336-.9927"/>
    <path fill="#EE8E0D" d="M209.1166 39.1407c-.4616-.6323.9395.608 1.1798.9512.4444.6405-.926-.6233-1.1798-.9512m-3.1084-3.2511c.177-.1175 1.3794 1.2159 2.2177 2.0253-.1716.1084-1.374-1.224-2.2177-2.0253m-26.133-19.9938c1.039.4698 2.4138 1.169 3.9594 2.0479 1.5086.9386 3.2187 2.0117 4.9594 3.177 1.6902 1.2386 3.4833 2.469 5.131 3.7544 1.6233 1.3152 3.2412 2.5059 4.5926 3.6377-.915-.6829-2.2032-1.5347-3.6052-2.6224-.7146-.5266-1.439-1.1373-2.2494-1.7019-.8021-.5736-1.6368-1.1707-2.4878-1.7787-3.3884-2.449-7.1987-4.8518-10.3-6.514m3.6893 2.6007c.0064-.2556 1.1374.4427 2.5023 1.3397.6811.4517 1.4264.945 2.113 1.4002.6738.4752 1.2845.9223 1.7461 1.2132l3.0533 2.1707 2.9476 2.3135c-.9665-.4517-2.9801-2.0985-5.374-3.7615-2.3216-1.7616-5.0497-3.486-6.9883-4.6758m-13.1527-7.1418c-.6648-.4146 1.0949.214 1.4508.4354.663.4128-1.0967-.214-1.4508-.4354M224.7372 59.27c.9748 1.7434 2.0461 3.4498 2.9486 5.2358 1.1743 2.42 1.5763 2.6621.8672 1.252-3.7182-7.066-7.5692-12.8718-11.374-17.9477-.9739-1.253-1.925-2.477-2.8564-3.6757-.9865-1.1545-1.9522-2.2864-2.9025-3.4002-.9268-1.1364-1.9503-2.1509-2.9133-3.1987-.9774-1.0344-1.9142-2.084-2.9367-3.0353-7.9477-7.8112-16.3425-14.3668-28.1438-20.3993.748.383 1.4454.9232-.094.178-.0496.1011-1.187-.3506-1.3342-.684-.9666-.606-1.9873-1.2357-3.1201-1.7723-1.1328-.5366-2.3325-1.0731-3.5926-1.6404-5.2042-2.216-11.0985-4.4066-17.4355-6.0398-6.3325-1.6333-13.057-2.8103-19.7616-3.411-13.4255-1.2169-26.6686.1598-36.4699 2.5338l-2.9241.6748c-.9756.2214-1.9521.44-2.9097.7326l-2.8889.8203c-.9657.2674-1.9304.541-2.8735.8807-1.6531.5728-3.3261 1.094-4.9657 1.7119l-4.8907 1.9277c-5.0037 2.1012-4.8022 2.5502.0786.1852l4.8834-1.925c1.6351-.6161 3.3063-1.1364 4.9558-1.7082 7.6857-2.5475 16.4707-4.4156 25.057-5.1988 8.5863-.8202 16.9269-.7046 23.8077-.224 1.149.0569 2.2854.3234 3.4905.5745 1.2015.2836 2.4833.4968 3.8898.7986 1.2222.2366 2.7173.4444 4.272.6621 1.5528.2277 3.14.5836 4.5736.916 6.43 1.617 13.1626 4.113 19.7083 7.0118 1.0587.486 2.2412.9647 3.4327 1.4444 1.1978.4643 2.3433 1.056 3.4065 1.5827 2.2593 1.103 4.5276 2.485 6.832 3.8609 1.1599.673 2.253 1.4724 3.3803 2.2014 1.1166.748 2.244 1.468 3.29 2.272 1.0632.7777 2.1102 1.5447 3.131 2.2926 1.0127.7561 1.9557 1.551 2.8925 2.2765 1.8898 1.4327 3.5312 2.8717 5.009 4.0506-1.335-1.1148-1.98-1.7751-2.1273-2.1102-1.3812-1.1654-.5122-.8266 0 0 4.2177 3.5104 8.1301 7.3713 11.869 11.3866 1.4427 1.5971.7914-.0045 2.4183 1.8682.2963.6287.5971 1.2195 1.6459 2.5384.6613.4841 2.1545 2.3152 3.7606 4.448 1.5195 2.197 3.244 4.6252 4.347 6.3397.3089.0822 1.6603 2.1906 2.5672 3.7128M240.0623 142.2156c-.6468.1906-.9115 6.1934 0 0M134.483 241.1872c.4227.0009 2.2547-.384 1.4724-.3903-.4182-.0036-2.2565.383-1.4724.3903M119.4499 241.7059l-.0028.2014c.5375.0208 1.0407.0398 1.5113.0578.4698-.0081.907-.0153 1.3108-.0226l2.0154-.0677c1.074-.0515 1.6097-.1075 1.608-.15-.0019-.0424-.5403-.0722-1.6135-.0686-.5374.009-1.2077.0199-2.0126.0334l-1.308.0352c-.4698-.0054-.972-.0117-1.5086-.019M46.8266 25.6496c.8871-.3144 2.4183-1.5908 3.009-2.0985.2846-.2674.3154-.3667-.1273-.0993-.2204.1346-.56.3586-1.0415.7037-.4662.365-1.0705.8545-1.8402 1.4941M56.6858 18.7237c-4.1481 2.477-4.6775 3.1735-3.9828 2.7832.682-.4083 2.7597-1.6206 3.9828-2.7832"/>
    <path fill="#EE8E0D" d="M177.4263 14.1011c-1.1201-.6151-1.2972-.5754-1.4282-.5058.4427.2267.8916.457 1.3343.6838l.094-.178zM132.9277 240.754c-1.1437.046-5.6197.4445-9.2665.4625-.9115.0353-1.7697.0678-2.5086.0967-.7399.009-1.3623.0117-1.8013.0388-.8771.0488-1.0217.1563.0985.3541-.4815-.0867.709-.027 2.6179-.122.953-.0406 2.0858-.0884 3.28-.139a732.6482 732.6482 0 0 1 1.8212-.0723c.6097-.0533 1.2213-.1066 1.8175-.159 4.776-.3577 8.5818-.9846 3.9413-.4598M239.6 98.4333c-.6675-4.0768-1.7623-8.2909-3.0026-12.2457-.5944-1.9856-1.3533-3.8672-1.9802-5.6848-.6486-1.8094-1.411-3.4706-2.018-5.0289-.3686-.9756-.9007-2.1987-1.478-3.5005-.5853-1.2963-1.1372-2.71-1.7885-3.9467-1.2855-2.4842-2.4084-4.5348-2.879-4.5592 1.1138 2.1346 2.0325 3.8998 2.8482 5.4617.7516 1.5944 1.4047 2.982 2.0425 4.3333.6685 1.3406 1.1427 2.7209 1.7435 4.2096.2863.7498.5935 1.533.8925 2.383.2628.8627.5447 1.7841.851 2.7869.1426-.309.4453.1987.8626 1.2926-.5248-.4128.0678 1.2168.4987 2.9847.2972 1.121.6558 2.3514 1.0605 3.6929.3803 1.3469.728 2.8247 1.14 4.4029.4381 1.5736.7552 3.2873 1.1012 5.1048.1671.9087.355 1.842.5068 2.8076.1174.9702.2375 1.9657.3613 2.9864.0678-.6495-.0117-1.8581-.1391-3.2394-.2015-1.3712-.4282-2.915-.6233-4.2412M154.9662 236.4618c-.4129.0596-2.1617.7154-1.3867.6025.4147-.0596 2.159-.7146 1.3867-.6025M149.173 238.0033c-.4192.0398-2.198.608-1.4183.5339.4137-.0388 2.196-.6061 1.4182-.5339M144.785 238.99c-.421.019-2.2231.496-1.4417.4617.4263-.02 2.2231-.496 1.4417-.4617M140.3609 239.78c-1.1364.2864-2.935.4101-2.9413.627.5754-.0859 1.3062-.1952 1.8997-.2846.588-.1183 1.0334-.243 1.0416-.3424M13.4928 174.4723c-2.42-4.9214-4.5917-9.9739-6.2873-15.1943-.4146-.8654-.3712-.5718-.075.3794.3135.944.8022 2.5718 1.525 4.2783.3405.8618.6973 1.7579 1.0424 2.6278.1698.4354.3378.8636.5004 1.2782.178.4065.3505.7986.5131 1.169.645 1.4823 1.1012 2.6224 1.1157 2.935.1788.1237.5076.794.8473 1.4091.355.6062.6956 1.1699.8184 1.1175M4.8414 152.1714c-.7164-2.0678-.1942.2078 0 0M54.483 20.8537c1.767-1.28-.262-.121 0 0M57.0078 19.235c.5456-.3704 1.2674-.8754 2.1003-1.338.832-.4633 1.7263-.961 2.5537-1.4227.8275-.4616 1.579-.9015 2.1292-1.243.5601-.3216.907-.5673.897-.6865-1.3523.6522-2.625 1.4661-3.9304 2.1924-.7561.4607-1.6965.9666-2.43 1.4417-.7281.487-1.281.8916-1.3198 1.056M66.1136 14.0407c1.018-.5718 2.635-1.355 2.5845-1.5501-1.0199.5727-2.6369 1.3559-2.5845 1.5501M222.1701 55.5571c-2.5339-3.5023-1.6107-1.747-.0153.7787 1.6576 2.4905 3.6739 5.9738 3.9051 5.6396-.943-1.6116-1.5944-2.5755-2.168-3.4553-.6053-.8618-1.1075-1.655-1.7218-2.963M89.8882 237.0357c-.383-.1663-2.2096-.5258-1.4932-.215.383.167 2.2114.5284 1.4932.215M72.9628 231.099c-.3541-.2213-2.1093-.8464-1.4463-.4326.356.2213 2.1075.8464 1.4463.4327M70.2307 229.864c-.356-.205-2.0976-.8663-1.4444-.439.345.2303 2.1075.851 1.4444.439M17.0383 181.055c-.5628-.9647-1.2647-2.1544-1.813-3.1743-.5384-1.0262-1.0028-1.841-1.2295-1.9847 1.0027 2.0073 2.5718 4.8962 3.0425 5.159M3.4387 146.3394c1.2132 6.1111.6576.1662 0 0M38.2617 34.0964c.8112-.831 2.1264-2.047 2.038-2.2096-.8258.8257-2.1401 2.0416-2.038 2.2096M47.3216 26.2848c.8826-.7579 2.3207-1.8283 2.252-1.9891-.9241.71-2.3288 1.8175-2.252 1.9891M54.483 20.8537c-1.7615 1.2864.2593.1157 0 0M219.319 52.0571c.1273-.2032-.7733-1.514-1.8934-3.0443-1.187-1.4787-2.5944-3.1707-3.3632-4.243-.2358.4327 3.906 5.0136 5.2566 7.2873M240.3623 105.9142c-.1734.9503.2475 1.7932 0 0M117.9677 240.862c-.41-.065-2.2737.0407-1.5013.1645.4119.066 2.2728-.0389 1.5013-.1644M43.747 210.7993c-.272-.308-1.757-1.393-1.2494-.8148.2728.309 1.757 1.393 1.2494.8148M239.1255 120.8649c.0442-.411-.1545-2.2376-.2394-1.468-.0443.402.1544 2.225.2394 1.468M132.6524 237.95c-.4074-.0253-2.206.2647-1.4417.3108.4092.0253 2.206-.2629 1.4417-.3108"/>
    <path fill="#FFC733" d="M41.1022 76.3327l65.0409 80.3978 26.197-24.3904 51.4908 64.1376-39.7473-120.145-32.5204 29.8104-19.8736-61.4275z"/>
    <path stroke="#EE8E0D" d="M41.1022 76.3327l65.0409 80.3978 26.197-24.3904 51.4908 64.1376-39.7473-120.145-32.5204 29.8104-19.8736-61.4275z"/>
  </g>
</svg>
