<svg xmlns="http://www.w3.org/2000/svg" xmlns:xlink="http://www.w3.org/1999/xlink" width="243" height="213">
  <defs>
    <path id="a" d="M.6192.48h1.6815v.6489H.6192z"/>
    <path id="c" d="M.9052.48h1.6862v.642H.9052z"/>
    <path id="e" d="M.347.4042h.836v1.6991H.347z"/>
  </defs>
  <g fill="none" fill-rule="evenodd">
    <path fill="#F78B53" d="M238.923 48.9846C226.4037-1.754 181.315.5153 181.315.5153c-38.4265-.3168-59.9224 41.364-60.335 42.048-.44-.684-21.9602-42.3648-60.3669-42.048 0 0-45.091-2.2694-57.5264 48.4693 0 0-27.5862 70.0608 117.846 162.4694v.046s.0473 0 .0473-.046c0 .046.0363.046.0363.046l.0088-.046C266.4573 119.0454 238.923 48.9846 238.923 48.9846"/>
    <path fill="#BF461D" d="M227.678 100.6623c-.209.3906-.752 2.4167-.357 1.6764.21-.3933.754-2.4193.357-1.6764M155.1273 11.405c.2508-.115 1.2142-1.027.7463-.81-.2515.118-1.2165 1.026-.7463.81M80.8584 180.3254c-.363-.277-2.404-1.171-1.7188-.651.366.276 2.4099 1.172 1.7188.651M230.0922 31.75c.121.4908 1.028 2.4327.818 1.5-.119-.5024-1.038-2.4299-.818-1.5M192.1826 3.9642c.4234.117 2.4155.347 1.6399.073-.4172-.164-2.4317-.324-1.6399-.073"/>
    <path fill="#BF461D" d="M138.4199 20.2886c.0296.3642-1.7559 2.019-2.8931 3.3096-.0494-.3686 1.679-2.089 2.893-3.3096m31.436-17.8854c-.3553-.0984-1.2699-.0394-2.9172.4484.7579-.6223 2.234-.8716 3.4832-.9974 1.2645-.07 2.325.0973 2.3535.2658 1.2514-.3161 3.4042-.4211 5.2445-.524 1.8501-.0218 3.4074-.0907 3.4864-.3598 1.587.1302 1.825.2746 1.3073.3456-.5155.0602-1.7833.152-3.2737.2275-2.9776.0504-6.679.5535-6.7645.3107l-1.7986.2887c-.5966.116-1.1877.2647-1.7821.3948-.5923.14-1.19.257-1.7778.4167l-1.7503.514c-4.5031 1.1944 2.3678-1.1702 4.1894-1.331m5.7456-1.3737c.7688.0547-1.0309.408-1.4432.3795-.7754-.0426 1.0265-.4156 1.4432-.3795m8.8647-.2012c-.0526.2264-1.8161.0864-2.9644.163.0417-.2472 1.8173-.1904 2.9644-.163m14.0433 4.1451c.6712.3533-1.0736-.035-1.4432-.188-.6822-.325 1.0934-.0198 1.4432.188m.1492-.4637c.6767.3555-1.0835-.0372-1.4553-.1914-.6877-.327 1.101-.0197 1.4553.1914m2.5806 1.412c.647.3806-1.0814-.0788-1.439-.269-.659-.3654 1.0924.0524 1.439.269M111 29.7885c3.4985 4.4394 6.6208 8.882 9.355 13.655l.6053 1.0565.5692-1.074c2.915-5.5036 6.3411-10.563 10.3288-15.2736 3.7913-4.423 9.2814-9.5284 16.2236-14.4523 3.3526-2.3733 6.9213-4.528 10.4922-6.1444 3.5643-1.6264 7.1198-2.695 10.253-3.1707.2063-.1968 1.9138-.9001 3.809-1.2413 1.8753-.4561 3.9163-.5108 4.5721-.3074-1.0046.0842-2.0114.1674-2.7911.268-.7754.1378-1.3204.303-1.417.4593 1.4301-.2132 2.46-.2296 3.2847-.3051.8258-.0645 1.4498-.14 2.1166-.1487.6624-.0296 1.3468-.0602 2.2735-.1029.2358-.0098.487-.0207.7567-.0328.2523-.0043.5232-.0098.8149-.0164.5955.0011 1.2831.0132 2.0892.059.0022-.1366 1.1702-.2022 1.4137.1073-.4716-.0481-.9432-.0777-1.4137-.1072l-.0143.2428c3.5775.2625 5.5154.6376 5.9497.63.4376.0087-.6076-.3555-3.0774-.863 4.7268.5644 9.4185 1.656 13.8734 3.3512 1.236.3346 2.3732.7798 3.493 1.1779 1.0824.4746 2.1649.8793 3.1585 1.4098 1.0112.4987 1.9916 1.0138 2.9282 1.5935.9607.5403 1.8666 1.1604 2.7802 1.7882 3.6355 2.5374 7.1406 5.6096 10.9637 10.1037.3707.0043.1382-.5195-.5373-1.435.0701.3675-1.327-1.027-2.675-2.4575-.7073-.6825-1.396-1.3836-1.8643-1.9053-.4727-.5162-.7535-.8224-.5582-.7962.9223.7853 1.7558 1.6668 2.6364 2.4948.838.8716 1.6451 1.774 2.461 2.6642l.1854-.1586c-1.2053-1.2862-.3334-.8979 0 0 .8642 1.0456 1.678 1.9567 2.3535 2.7004.6438.7678 1.1921 1.3387 1.6078 1.6384-.488-.759-.952-1.4634-1.4093-2.1054a58.4696 58.4696 0 0 0-1.406-1.7106c-.8674-1.0696-1.7711-1.8527-2.518-2.5746-.7403-.7295-1.464-1.2697-2.0552-1.8024-.601-.5239-1.0836-1.0303-1.531-1.5093-1.5464-1.2085-3.5742-2.8283-6.0374-4.3715-2.4413-1.5684-5.2565-3.1379-8.1935-4.4547-5.8685-2.673-12.1767-4.1977-16.035-4.9064 11.1152 1.5771 21.8936 6.2046 30.2659 13.7326-.5286-.7284-1.9127-2.1043-3.3735-3.2582-1.4433-1.1757-2.926-2.1578-3.3757-2.4444-.9497-.5567-1.5068-.583-2.6529-1.2993-.375-.222.0965-.2297-1.1866-.9165-.9695-.536-1.5464-.443-2.7473-1.0927-.4112-.2023.159-.257-1.2524-.8257-2.4544-1.0215-2.972-1.0762-3.4349-1.2982-.4727-.198-.9234-.4638-3.4415-1.4437-3.3976-.945-7.1856-1.7368-11.125-2.1448C184.5265.5723 182.5031.45 180.506.52c-.9947.0196-1.9872.0382-2.9765.058-.9892.0874-1.9751.175-2.9501.2602-3.8933.4506-7.5771 1.3551-10.763 2.4816-3.1827 1.1452-5.8466 2.5309-7.8339 3.7996l.1108.2176c1.0079-.3915 1.804-.7546 2.472-1.0718.6766-.2997 1.2294-.5436 1.7141-.758.9586-.4473 1.6879-.6748 2.7023-.6266-2.347.7163-5.409 2.183-8.0893 3.6836-2.7034 1.471-4.9988 3.0295-6.1887 3.5053-.4946.456-1.1351 1.0106-1.8556 1.587-.7326.561-1.5277 1.1702-2.3086 1.7674-.793.584-1.5694 1.1571-2.2526 1.6613-.6866.502-1.3051.9024-1.7361 1.191 2.496-2.0408 4.7268-4.0827 6.8665-5.791 2.143-1.692 4.1696-3.0745 6.0987-3.7493-.9552.538-2.0936 1.2709-3.0576 1.867-.9388.6387-1.6615 1.2063-1.7547 1.4666.5133-.385 1.2108-.8848 2.0004-1.3737.7984-.4725 1.6571-.981 2.4522-1.4513 1.6264-.874 2.9655-1.6504 2.937-1.9075-.7304.3599-1.5727.6005-.1108-.2176-3.0883 1.1768-7.7734 4.0183-11.7589 7.3727-4.037 3.2986-7.4663 6.922-9.2342 8.6085-1.0419 1.213-.3126 1.0631-1.61 2.5068-.59.351-1.1746.6912-2.2768 1.926-.1689.6934-.8082 1.7609-2.3502 3.7602-3.6784 5.1021-5.3794 8.0639-7.5541 11.9345l-.2632.4692-.2556-.4626c-1.2009-2.183-2.597-4.657-4.7509-8.0081-.1152.5063-1.0945-.852-2.1956-2.322-1.0956-1.4743-2.3327-3.0492-2.733-3.116M6.3923 42.3298c.158-.4168.551-2.4141.211-1.6622-.183.4043-.531 2.4242-.211 1.6622M14.566 24.8975c-1.0868 1.28-1.6692 2.218-2.0651 2.7879-.3863.5738-.5264.8116-.4972.8146.061.005.7981-.927 1.606-1.9964 1.7276-2.0706 3.8647-4.6518.9564-1.6061M98.921 16.4838c-1.307-.8847-3.572-2.7731-5.909-4.459-1.1728-.8375-2.3467-1.6408-3.411-2.2483C88.56 9.1317 87.6244 8.7047 87 8.5c.6663.4314 1.4936.9673 2.3702 1.5351.8777.5635 1.8059 1.1522 2.6396 1.742 1.704 1.1181 3.0602 2.1757 3.2909 2.3143.3315.2102 1.3144 1.106 2.5955 2.235.6192.591 1.308 1.248 2.0162 1.9237.6867.6988 1.3927 1.4163 2.0698 2.1052 2.6739 2.7885 4.7255 5.2668 3.7866 3.6117-1.2619-1.4878-3.8714-4.085-5.7867-5.8567-1.9324-1.7475-3.0462-2.848-1.0612-1.6265M63 1.6006c-5.5776-.3588-11.1465.2573-16.5653 1.6064C41.0225 4.545 35.7965 6.6516 31 9.5c2.086-1.1261 4.676-2.4267 7.5738-3.5219 2.8913-1.1051 6.0553-2.0723 9.1756-2.749 3.1191-.678 6.178-1.1328 8.8272-1.3425 2.6381-.243 4.8874-.1568 6.4234-.286M237.7836 49.274c-.039-.4766-.642-2.4366-.567-1.544.04.4728.64 2.4265.567 1.544M235.89 43.9945c-.3164-.9093-.6746-1.937-1.0125-2.9098-.3819-.9575-.7423-1.8613-1.0135-2.5428-.5153-1.3694-.5944-1.8887.4418-.2114-.2723-.5927-.4983-1.089-.6927-1.5119-.2136-.414-.3921-.757-.5458-1.0517-.2994-.5949-.5017-.9992-.705-1.4034-.2035-.4032-.391-.8151-.713-1.3968-.3459-.5686-.8024-1.3202-1.4803-2.4355-.399-.2158-.0554.7067.652 2.1451.3762.7089.7378 1.6006 1.1796 2.5308.4294.9356.9357 1.9128 1.3266 2.9218.426.9926.8452 1.9687 1.2215 2.8463.3447.8917.6498 1.6827.8837 2.2897.4836 1.2106.7231 1.6784.4576.7296M228.945 27.3709c-.143-.2553-1.157-1.2181-.889-.7393.141.2523 1.154 1.2122.889.7393"/>
    <path fill="#BF461D" d="M225.0548 23.6345c.1908.2374 1.1706 1.2239.8974.728-.1315-.2775-1.2039-1.206-.8974-.728M109.0576 27.6396c.1733.2542 1.1851 1.216.8882.7208-.1515-.2738-1.2-1.2111-.8882-.7208M69 2.5027c1.373.1238 2.9439.4858 4.5972.8375 1.6296.4404 3.344.8819 4.9272 1.4574 1.6115.5024 3.084 1.1357 4.3837 1.5895C84.1794 6.9018 85.2462 7.3133 86 7.5c-2.4975-1.0923-5.8742-2.5415-9.1232-3.5358-1.6376-.4517-3.1982-.9004-4.578-1.1129-.686-.1207-1.3121-.2362-1.8681-.296-.5594-.0433-1.043-.063-1.4307-.0526M64.1967 2.05c.4302.095 2.4228.079 1.6108-.099-.4352-.096-2.4338-.081-1.6108.099"/>
    <path fill="#BF461D" d="M2.853 83.2892c-.0582-.7662.5551.9572.587 1.3666.0592.7739-.5564-.9539-.587-1.3666m62.4035 87.1285c-7.3402-6.3928-15.5724-13.7856-23.5138-22.4923-7.9634-8.6639-15.8675-18.432-22.5988-29.1848-1.5975-2.7365-3.3409-5.4027-4.7793-8.2435-.7384-1.4094-1.5273-2.7924-2.2229-4.2227l-2.0397-4.3095c-2.5893-5.7967-4.7826-11.7461-6.3472-17.768C2.187 78.1797 1.2565 72.0953 1.069 66.1547c-.1185-2.9692 0-5.9043.3105-8.7594.3204-2.8363.8174-5.676 1.6919-8.204l.0164-.0471.0088-.0319c.2019-.7442.372-1.3633.5398-1.979 1.6732-6.2381 3.9532-11.8461 6.785-16.8526 2.822-5.013 6.2167-9.4136 10.1578-13.1819.519-.4577.4103-1.2568 1.7972-2.3369 0 0 .2655.0285.712-.1482.4554-.1668 1.049-.5806 1.8345-1.338.0483-.3864 1.0742-.9956 1.151-.8826 2.1197-1.484 2.3117-2.0372 4.6981-3.4126 3.33-2.09 7.7242-4.1942 12.8448-5.7529C48.7296 1.693 54.5809.614 60.5693.7687c6.0071.0132 12.1119 1.0856 17.6318 3.1174 5.5529 1.945 10.4705 4.7891 14.5882 7.5992.948.6564 2.812 2.136 4.3591 3.406 1.558 1.2536 2.833 2.2711 2.8516 1.719-3.3804-2.9077-7.1997-5.7507-11.4766-8.2512-4.2724-2.4994-9.0474-4.5762-14.158-5.9867-1.2651-.3995-2.5905-.6048-3.8929-.9198-1.321-.2283-2.6552-.4457-4.0003-.6103-2.697-.2975-5.442-.3546-8.196-.3403-5.5123.1668-11.0596 1.2184-16.3755 2.9428-5.3203 1.7245-10.3926 4.2327-14.9327 7.3994-4.572 3.1328-8.5175 7.0163-11.8441 11.1918-3.3234 4.192-5.9643 8.7408-8.0139 13.3203-2.0561 4.5827-3.5362 9.1863-4.707 13.5869l.0045-.0132c-.3171.8814-.5168 1.5686-.6924 2.258-.3993 2.6837-.701 4.5783-.9512 6.6968C.6147 58.9396.5653 60.056.4742 61.337c.0088 1.2831-.068 2.7408.1174 4.4773-.18.0088-.4531 1.0428-.5738 2.3106-.0636 1.2602.0318 2.7475.4762 3.6048-.305-2.4972-.0483-2.7969.2359-2.9802.056.9967.1327 2.2239.2962 3.517.1986 1.2897.4082 2.6552.6068 3.946.5112 2.561.9117 4.8298.869 5.6432-.258-1.012-.4488-2.0351-.62-2.8298-.18-.7914-.3533-1.3523-.5157-1.4478.2535 1.0998.428 1.9823.5574 2.7408.1437.7574.2633 1.3864.3763 1.9857.2283 1.1943.3204 2.2985.8273 3.9659 1.3287 3.181-.0812-2.9648 1.5536 2.6168 2.6991 8.0317 5.892 15.3037 9.4424 21.9578 3.5538 6.6475 7.4225 12.7176 11.8826 18.039 1.4746 2.0527 2.8877 4.0746 4.4227 5.9472 1.5108 1.8891 2.9449 3.7848 4.4546 5.5806 3.0644 3.551 6.0148 7.0525 9.2207 10.351 6.2463 6.7484 13.0313 13.0897 20.8323 20.0214.937.7355 1.2782.7651 2.3985 1.7157.4663-.4522-.6485-.899-2.0781-2.0823M70.8377 174.8875C69.8296 174.3863 68.463 173.497 67 172.5c.6484.811 3.0828 2.8104 5.5996 4.7527 2.5467 1.9106 5.2434 3.6837 6.2412 4.2473l.1592-.185c-2.3931-1.6315-3.9717-2.674-5.194-3.5802-1.2018-.9272-2.0335-1.734-2.9683-2.8473M229 105.5c-3.4493 6.945-7.5035 13.5764-11.8825 19.975l-2.5761 3.526c-.6245.9463-1.6867 2.323-1.5248 2.499 1.4227-1.9723 2.9844-4.139 4.5961-6.3724 1.5162-2.298 3.1637-4.61 4.6244-6.9505.7125-1.1822 1.414-2.3481 2.0961-3.4812.6832-1.1331 1.338-2.2378 1.8789-3.3381 1.1023-2.1886 2.1558-4.139 2.7879-5.8578M229.971 101.5c-.3982 1.1427-1.1207 2.8465-.9435 3 .4-1.1499 1.1266-2.8585.9434-3M235 91.5c-2.0868 6.6765-.3088 3.7995 0 0"/>
    <path fill="#BF461D" d="M103 20.5c-2.8303-3.211-3.3293-3.352-2.8292-2.667.4863.7014 1.9302 2.2502 2.8292 2.667M115.9831 209.1095c1.5405 1.0026 3.041 2.0477 4.5327 3.0828l.1453.1007-.0034.16-.001.047-.3073-.3077h-.0055l.0066.2764V212.4485l-.001-.0078-.0012-.0034.0022.0056a.0437.0437 0 0 0 .0067.0146c.0055.0033-.0044-.0056-.0277-.0056h.1586c-.0278 0-.0455.0067-.05.0112v-.0023.0023l-.001.0056v.0067l-.0012.0056.01-.2854h-.0066l-.3006.2496.0089-.0481.0277-.1332.1065-.0671c3.052-1.9314 6.0532-3.8571 8.7182-6.161-2.5697 1.7041-5.4399 3.6064-8.8868 5.8924l-.2285.15-.0476.263c-.0012.0089-.0056.0279-.009.0469l.6145-.5102h.011l-.0177.6042v-.0034l.0011-.0078.0012-.0056v-.0045.0012l-.0012.0022s.0189-.0123.051-.0123h-.1585a.0571.0571 0 0 1 .0288.0056s-.0044-.0045-.0078-.0123l-.0022-.0079.0011.0023v.0078l.0011.0112v.0112l-.0155-.592h.0122l.621.6222v-.3827l-.286-.189a57478.2417 57478.2417 0 0 0-13.2565-8.7885 41513.897 41513.897 0 0 1-11.1603-7.8943c-3.2717-2.323-5.8525-4.176-7.2654-4.7455 2.6917 2.0365 5.1715 4.0272 7.6535 5.718 2.471 1.7063 4.8 3.3154 7.0148 4.8473a5099.253 5099.253 0 0 1 3.2528 2.2167c1.0758.6915 2.126 1.3662 3.153 2.0275 2.0517 1.3193 4.0137 2.5815 5.909 3.8"/>
    <path fill="#BF461D" d="M214.2084 131.3206c-.5562.5407.3829-1.0483.6786-1.3358.554-.5396-.3818 1.0473-.6786 1.3358m-2.7002 3.5251c-.1743-.1905 1.014-1.5032 1.6243-2.4789.085.087-.1435.4824-.4778.9702a1586.986 1586.986 0 0 1-1.1465 1.5087m-22.0095 23.9345c.7018-.8832 1.7291-1.9933 2.9518-3.2388 1.2325-1.2367 2.5567-2.7123 3.9945-4.1814 1.4179-1.49 2.9363-2.992 4.3189-4.5085 1.3638-1.5351 2.6626-3.0174 3.7727-4.3455-1.28 1.849-3.6944 4.8091-6.602 7.7307-1.4312 1.48-2.9153 3.0163-4.3432 4.4931-1.461 1.4426-2.8855 2.807-4.0927 4.0504m3.5245-2.7542c-.5154-.1531 3.5575-3.861 4.9445-5.5118l2.5457-2.6826 2.4453-2.7773c-.863 1.98-6.9044 7.647-9.9355 10.9717m-10.8812 10.0345c-.6521.4207.5804-.9493.928-1.174.6533-.4217-.5793.9494-.928 1.174m45.2537-56.0996c.4657-.8634.9335-1.7279 1.4003-2.5934.4502-.8744.8563-1.7708 1.2855-2.654 1.2028-2.3512 1.0947-2.8258.4171-1.4405-1.5801 3.5714-3.3666 6.7595-4.9953 9.8033-.8916 1.4779-1.7578 2.914-2.602 4.3114-.4248.697-.843 1.3854-1.2568 2.067-.4447.6586-.885 1.3105-1.3186 1.9536-1.7401 2.5747-3.381 5.0371-5.1465 7.2958-1.7192 2.2928-3.3666 4.5195-5.1388 6.5964-6.9054 8.4488-13.8296 16.0143-22.9993 25.19.5882-.5727 1.3385-1.0276.17.1772.0982.097-.661 1.0374-1.0538 1.0286-1.7876 1.3611-3.6183 2.9777-5.6089 4.8146-16.2108 15.1983-42.164 33.6992-58.6816 44.7425l-1.4334.9405.054-.0826-.0077.0473-.0176.098-.1048.0022c-.1126.0033-.1689-.1244-.1578-.1685l.1511-.6001.0938.6001c.0133.0804-.096.184-.1688.1685l-.1236-.0242v-.1443l.0563.1036-8.2627-5.416-4.3255-2.8357c-1.4367-.9537-2.837-1.9635-4.2571-2.9425-4.2803-3.198-4.6345-2.7124-.1402.2015 1.4213.9801 2.8227 1.991 4.2605 2.9448l4.3277 2.8357c2.6538 1.73 5.4169 3.5317 8.2792 5.396l-.1589-.2874v.4097l.3454-.021c.1048-.0065.1644-.022.2637-.1023.0938-.0826.128-.2148.1258-.2864l-.0871-1.7983-.6014 1.7983c-.0265.0804.0982.3943.3762.3888l.2914-.0066.0518-.2742.0088-.0474-.1533.2269c11.2773-7.298 23.3788-15.194 31.7287-22.1196 1.7379-1.4548 3.9525-2.328 6.2124-4.0537 1.9575-1.4944 4.5065-3.9304 6.8083-5.7023 2.6251-1.9547 5.2359-4.1395 7.9714-6.2848a7887.376 7887.376 0 0 0 4.107-3.2883 9826.9612 9826.9612 0 0 1 3.9956-3.5086c1.7093-1.5538 3.6028-3.5559 5.29-5.1901 7.2552-6.7837 15.9901-15.348 20.5705-21.3124-1.1078 1.3237-1.782 1.9492-2.1407 2.0692-1.1608 1.3612-.8706.4526 0 0 1.824-2.012 3.5134-4.1396 5.2116-6.2595l2.5556-3.1726 2.42-3.2795c1.2181-1.7488-.2837-.8524 1.1563-2.816.5617-.4074 1.151-.7686 2.1054-2.1341.2064-.8117 1.4775-2.751 2.9606-4.9204 1.4466-2.1926 2.9826-4.6957 3.9702-6.4423-.0949-.3248 1.1233-2.4547 1.92-4.002M229.9664 29.5c.0867-.1284-.0038-.467-.1632-.8293-.1741-.3514-.4109-.7282-.5826-.9567-.3575-.4452-.39-.3478.7458 1.786M113.0516 31.6352c.158.2585 1.187 1.212.8973.7314-.1563-.2593-1.1888-1.2167-.8973-.7314M103.1554 20.5l-.1554.1864c1.314 1.6218 2.2993 2.8379 2.9578 3.6482.6525.8174 1.0041 1.1996 1.039 1.163.0369-.0377-.246-.4942-.8627-1.354-.6326-.8423-1.588-2.102-2.9787-3.6436M79 182.5c.9059 1.3423 6.272 3.7346 0 0M88 189.5c-7.2617-6.0043-2.9933-1.3705 0 0"/>
    <path fill="#BF461D" d="M186.8296 160.5c-.84.6986-.839.8621-.801 1l.955-.853-.154-.147zM112.757 29.8144c-.6721-.91-3.4426-4.4103-5.988-7.005-1.2643-1.3033-2.4373-2.4034-3.1364-2.9398-.6901-.544-.8849-.5419-.2342.3747-.5944-.757 3.5879 3.0808 6.7074 6.6575 3.1263 3.5615 5.4229 6.6193 2.6512 2.9126M240.1402 70.9043c-.971 8.0757-2.9904 16.8672-5.2434 23.1026-.6085 1.9777-2.037 4.8716-3.0654 7.4343-1.1806 2.4962-2.0712 4.6311-1.7736 5.0588 1.0251-2.1682 1.9102-3.9442 2.5694-5.5707.6415-1.6342 1.1993-3.0557 1.7438-4.4406.9766-2.813 1.995-5.4366 3.3167-9.4041-.3428.155-.3252-.4388-.0441-1.5611.2756.6504.7352-1.0138 1.1927-2.771C240.008 78.2689 240.8512 71.68 241 63.5c-.3285 1.2664-.4497 4.7863-.8598 7.4043M123.7666 36.6477c-.263.371-1 2.4203-.534 1.7.242-.3845 1.008-2.4039.534-1.7M120.6251 41.6218c-.097.118-.277.479-.396.768l.528-.008c-.255-.359-.535-.69-.393-.296.032.088.117.247.219.408l-.178.002c.253-.523.549-1.286.22-.874M118.9478 40.2444c-.14-.5112-1.163-2.4288-.893-1.4888.149.5054 1.152 2.4302.893 1.4888M117 35.4964c-.7268-.8046-1.7644-2.0892-2-1.9911.7608.778 1.7608 2.072 2 1.991M1.9373 48.5l-.136.5884.0217-.0783C.3722 54.217.0208 59.5695 0 64.9152c.2843 1.9184.1445-1.1868.3448-4.9072.0821-1.8613.2994-3.8714.5478-5.4732.2588-1.6019.5601-2.7898.7424-3.0348-.1095-.3065.1823-1.6074.3476-2.4172l-.015.0537c.0453-.3569.05-.6074-.0303-.6365M.3814 71.5944c.389 1.925.234-.163 0 0M85.1276 187.817c1.648 1.054.055-.295 0 0M88 189.5036c2.0904 1.4041 6.5475 5.2998 7 4.9775a4022.0108 4022.0108 0 0 0-3.4288-2.582c-1.3703-.986-3.2217-2.4817-3.5712-2.3955M96 195.5242c1.1398.8014 2.8019 2.177 3 1.951-1.1372-.8-2.7967-2.174-3-1.951M225.1002 114.1637c-2.1048 3.8925-.8345 2.3027.85-.292 1.5584-2.6625 3.4608-6.3423 2.9715-6.3717-1.8715 3.3256-1.8786 4.3814-3.8215 6.6637M78.8307 3.1245c-.41-.186-2.4245-.594-1.6586-.249.4039.184 2.4172.595 1.6586.249"/>
    <g transform="translate(60 -.5)">
      <mask id="b" fill="#fff">
        <use xlink:href="#a"/>
      </mask>
      <path fill="#BF461D" d="M2.136.5346C1.759.4656.098.5876.783.7226c.37.071 2.042-.054 1.353-.188" mask="url(#b)"/>
    </g>
    <g transform="translate(56 -.5)">
      <mask id="d" fill="#fff">
        <use xlink:href="#c"/>
      </mask>
      <path fill="#BF461D" d="M2.4211.4917c-.378-.068-2.05.189-1.344.268.37.035 2.047-.169 1.344-.268" mask="url(#d)"/>
    </g>
    <path fill="#BF461D" d="M4.979 41.5c-.4167 1.1094-1.0481 2.451-1.4462 3.6099-.3737 1.1634-.6286 2.1153-.4983 2.3901.6272-2.2671 2.1622-5.431 1.9445-6M1.7709 77.5c-.693-6.6574-.751-.1833 0 0M69 175.516c.754.7992 1.8466 2.1474 2 1.9677-.7567-.7991-1.8466-2.146-2-1.9676M79 182.5182c.7565.7988 1.8564 2.1585 2 1.9628-.7565-.8014-1.851-2.1533-2-1.9628M85.8727 188.1835c-1.65-1.056-.054.295 0 0M223 118.5028c-.2978-.0716-1.0528 1.2422-2.0838 2.729-1.0092 1.5003-2.1438 3.2683-2.9162 4.265.2706.0738 1.1575-1.1632 2.1689-2.6678.5018-.7523 1.044-1.5678 1.5481-2.3243.4833-.7702.9175-1.4877 1.283-2.0019M240.4374 63.4732c.312-.835-.045-1.628 0 0M102.9356 18.3483c-.1769-.2747-1.2017-1.212-.87-.6958.1754.2738 1.1979 1.2102.87.6958M26.7414 8.5501c-.5103.155-2.4348 1.1893-1.479.8987.5045-.154 2.4261-1.1856 1.479-.8987"/>
    <g transform="translate(241 48.5)">
      <mask id="f" fill="#fff">
        <use xlink:href="#e"/>
      </mask>
      <path fill="#BF461D" d="M.5129.5131c.102.423.761 2.176.659 1.39-.033-.213-.196-.737-.394-1.158-.046-.1-.093-.199-.13-.265-.028-.031-.054-.055-.075-.067-.043-.024-.068-.002-.06.1" mask="url(#f)"/>
    </g>
    <path fill="#BF461D" d="M114.9458 27.3647c-.156-.2643-1.1982-1.2127-.8887-.7298.1647.256 1.187 1.2158.8887.7298"/>
    <path fill="#FEF0E9" d="M140.6002 161.5L120.997 73.0326l-23.9008 57.3018-17.2457-28.7301-15.2219 25.3573-37.2264 1.1001L23 121.4613h38.5129l18.3376-30.5485 16.3113 27.1747L122.5973 53.5l19.5481 89.3266 21.32-53.2756 15.9614 31.9103H220l-4.4022 5.5003h-39.5717l-12.0027-23.9955z"/>
    <path fill="#BF461D" d="M169.3981 110.3598c.282-.3708.726-2.4119.202-1.7165-.274.3605-.726 2.4037-.202 1.7165M116.4287 102.3614c.267-.3675.642-2.4079.143-1.7213-.267.3663-.643 2.4033-.143 1.7213M144.8709 129.2607c.037-.4823-.677-2.4305-.742-1.5228-.033.4835.679 2.434.742 1.5228M135.2354 144.8866c.07.6248.657 2.39.527 1.2242-.064-.6237-.648-2.384-.527-1.2242M121.1255 90.768c-.017.5204.716 2.4313.749 1.4617.018-.5182-.713-2.4257-.749-1.4618"/>
    <path fill="#BF461D" d="M102.984 118.5595c.4294.4501-.7292 2.8024-1.3716 4.5362-.4327-.4556.7237-2.8045 1.3716-4.5362m15.2008-36.2724c-.4908.178-1.0355.9942-1.6714 2.716-.6237-2.3314 2.6686-5.6943 3.3374-5.4288.4326-1.4246 1.5857-3.708 2.4126-5.5938l-1.5165-.1344c.369 1.7929.7643 3.1946 1.2673 3.1531.2591 3.9113-.894.672-1.7846-3.0384l2.5225.2218c-1.086 2.7183-2.451 5.5381-2.9013 5.3917a81201.1384 81201.1384 0 0 0-3.0398 7.2545c-2.3127 4.4532.4832-2.8231 1.3738-4.5417m1.5265-6.1783c.5458-.65.1362 1.288-.156 1.6377-.5457.6544-.1361-1.2892.156-1.6377m3.9281 3.6906c-.4667.0983-.7797-1.7634-1.1497-2.9226.471-.072.783 1.7732 1.1497 2.9226m.7754 16.5946c-.0308.944-.816-.8456-.7995-1.3515.0362-.932.8192.8588.7995 1.3515m.8598-.4621c-.0351.934-.8082-.8326-.7885-1.333.044-.9231.8138.8435.7885 1.333m-.1252 3.625c-.0252.9472-.805-.8281-.794-1.3438.0308-.9385.8094.8412.794 1.3438m-44.4099 5.3567c.4041-.6708.806-1.3394 1.1959-1.9873H79c5.9609 9.7772 12.1556 18.7393 17.6684 28.2608l1.1432 1.9731.95-2.125c.2877-.6457.5787-1.2957.8686-1.9447 2.595-5.726 6.6856-12.7172 10.4743-21.203 3.658-8.1918 6.8713-16.8174 10.6292-22.8352-.4272-.7822 1.555-8.0345 3.1979-8.8944-.8994 2.0376-1.7966 4.0763-1.3727 4.5407 1.4506-2.928 1.9854-4.1626 2.5191-5.5502l-7.3083-.6457c.3624 1.4302.8072 2.9805 1.6506 6.552.2603-.0786.8225 1.1297.3624 1.5995l-.3624-1.5995-.469.1388c1.7912 8.228 2.1437 8.808 1.6583 2.9061 1.2332 5.3174 2.4676 10.6381 3.702 15.9588 1.9942 5.2944 3.1802 9.8296 4.364 14.7023 1.1718 4.8575 2.3633 10.0416 4.0863 16.2483.3493-.2349.3525-1.0914.1241-2.3905-.235 1.3908-2.5236-7.852-1.8361-7.7625a10224.149 10224.149 0 0 0 1.8361 7.7625l.2559-.4151c-.4568-1.8224.1592-1.547 0 0 .7017 2.8165 1.3518 4.877 1.8581 5.2966-.649-4.0916-1.375-6.5738-2.0371-8.4945-.6534-1.913-1.2168-3.2536-1.2991-4.9077-2.383-7.5735-6.9086-26.9115-7.9332-35.3995l7.9332 35.3995c.0856-2.4855-1.1048-8.7993-1.353-9.8919-.2526-1.1187-.8126-1.2411-1.0356-2.7237-.0713-.4763.379-.3463.0462-1.8355-.2493-1.1307-.8401-1.2662-1.0598-2.7553-.0724-.4993.4448-.27.067-1.806-1.331-5.3688-.749-1.9371-1.2288-7.8193-1.4716-5.9664-2.8959-13.0494-4.3312-19.8646l-.8225-3.9015-1.5935 3.6884c-3.8776 8.9753-7.4862 17.6249-8.7008 23.4187l.4525.1879c2.4522-3.978 1.7472-5.5993 3.9435-6.8787-2.3358 4.7679-5.067 13.7169-7.1392 15.7698-.28 2.9924-3.1715 8.2323-4.71 9.9727 3.2747-6.127 3.6722-12.5544 6.689-15.961-.8336 2.2004-2.405 5.2847-1.979 5.9883.806-2.656 4.116-8.2968 3.1957-8.8911-.3382.8074-1.0575 1.499-.4525-.188-3.9775 5.9511-8.749 21.381-11.3957 25.9272-.548 1.6191.4843 1.3536-.313 3.2787-.6742.4774-1.343.9385-2.1205 2.527.1746.5179.1944 1.2182-.067 2.278l-.0362.1442-.1153-.1333c-.4283-.4906-.9247-1.2018-1.4782-2.137-5.8038-9.0473-7.6377-11.4083-13.0034-21.5613-.6325.9844-2.2853-2.172-3.6777-4.2686h2.0458c-.56 1.027-.9433 1.8956-.7511 2.2517M75.68 91.617c-.31.3384-.94 2.3913-.359 1.7649.309-.335.938-2.3878.359-1.765M66.5695 109.8552c7.7365-12.7502-6.0115 7.2842 0 0M69.6566 120.7883c-.5166 1.7173-2.2762 4.521-3.9606 7.2569l-.3335.542-.6468.0187c-3.1914.092-6.2873.208-7.7157.7776 2.083.218 5.3485.0909 7.737-.0624l1.1095-.0701.4783-.8368c.931-1.6307 1.5778-2.8497 1.6957-3.0698.813-1.529 11.7504-16.2145 8.313-13.5137-2.4232 3.532-7.9121 14.1073-6.677 8.9576M30.6154 129.0252l-2.7165.0804-.674.0196-.374-.5595-4.3623-6.5176-1.2606-1.884H49c-6.6666-.4128-17.1991-.7582-25.4993-.641l-3.5007.049 1.9532 2.8313c1.7067 2.477 3.2956 4.6662 4.6327 6.3383l.6063.7583.7165-.0782c1.0742-.1184 1.9717-.25 2.7067-.3966M140.6867 163.0995c-.079-.6396-.524-2.3864-.375-1.1913.084.6322.528 2.3704.375 1.1913M138.8815 156.8012c-1.0276-4.1693-2.6524-10.2392-1.3227-7.3036-1.4414-5.1673-.9182-3.8135-2.4102-8.9976-.5784.0786.6349 5.3615 1.8612 10.0102 1.2274 4.6486 2.3667 8.6518 1.8717 6.291M134.7592 138.1177c-.04-.6158-.598-2.3912-.52-1.2353.047.6195.607 2.39.52 1.2353"/>
    <path fill="#BF461D" d="M133.2242 131.8726c.04.6156.622 2.3968.55 1.252-.031-.6084-.612-2.392-.55-1.252M78.3217 107.382c.311-.3343.937-2.3888.358-1.7647-.311.3331-.94 2.3913-.358 1.7648M37 129.4775c5.8463-.442 15.8069.152 19-.955-5.843.441-15.797-.155-19 .955M32.2077 130.244c.4482.111 2.428-.279 1.5862-.487-.4482-.114-2.4325.277-1.5862.487"/>
    <path fill="#BF461D" d="M100.7596 108.1154c-.541.6599-.1457-1.2977.1424-1.6524.5421-.6632.1467 1.2988-.1424 1.6524m35.4218 3.5704c-3.9679-16.4406-8.4078-36.4823-12.9704-57.6653l-.542-2.5205-.9858 2.3861c-8.7867 21.3053-18.0684 43.8102-26.6219 64.5482l2.0415-.1554c-5.0828-8.5772-9.7834-16.5055-14.2047-23.9634-.7195-1.214-1.4292-2.4104-1.9538-3.295l-1.048-1.7659-1.0635 1.766c-6.5 10.788-12.2957 19.9491-17.902 29.0782-.241.3922-.081.9198-.1621 1.6249l.8718-.4968c-.4107.1916-.9386.3337-1.6823.2842 0 0-.7874-1.5621-3.153-.9805-.3.5563-1.5815.2732-1.577 0-2.8224-.0606-3.3229.5993-6.304.4903-6.6369.271-15.6087.4197-25.6089.5232L22 121.5573l.7327 1.084c1.3613 2.0116 2.8946 4.2776 4.4432 6.5657l.1982.293.3406-.0132c12.862-.4913 26.3109-.9617 37.034-1.4762l.1412-.0066.0679-.1168c.069-.1222.1183-.206.1654-.2897 1.232-2.157 5.8362-8.4571 4.0259-8.6598-1.449 2.5767-2.9537 5.2558-4.8178 8.5717l.3965-.2314c-11.23.617-23.816 1.1865-37.0284 1.6954l-.0624.0022-.035-.0528c-1.4534-2.157-2.9177-4.3316-4.4312-6.5767l-.1807-.2688.3252-.0022c12.7053-.0815 25.7556-.0925 38.3252-.0419l-.1851.1047C67.9433 111.3597 74.2505 101 79.9773 91.7112h-.1786c1.4862 2.5855 2.9056 5.0553 4.2768 7.4415 3.775 4.4945 4.0785 7.253 8.5238 13.3328-.6122.3812.1534 5.052 2.404 5.9421-1.531-2.2153-1.2025-2.7617-.782-3.2222.5213 1.0333 1.266 2.2671 2.0743 3.5604l-.3625.0276c1.4796-3.8722 3.0162-8.379 4.2285-9.2084-.8849 2.061-1.761 4.12-1.3372 4.5805 1.496-4.6125 2.6361-5.1545 4.0303-8.6114.725-3.676-2.5967 2.277-.162-3.4932 6.2064-17.1962 13.9308-31.1967 18.0432-45.6598.3746-.8714.7458-1.7362 1.0612-2.4687l.8707-2.0248.425 2.1382c4.028 20.2698 7.5874 36.8172 12.1358 57.8504.3614 1.2327.8115 1.4387 1.1477 2.9875 1.277-.2148.2727-1.2514-.195-3.198"/>
    <path fill="#BF461D" d="M139.0701 118.7973c-.7104-1.0033-1.3713-2.5745-2.0153-4.2973-.481 2.28 2.3334 12.8524 3.4551 15 .1641-.0342.3237-.0672.4901-.1014-1.731-5.7361-2.4818-7.4269-1.9299-10.6013M163 104.5c3.7388 7.3858 7.4754 14.7726 11.213 22.1552l.463.917.4695.9278h4.7171c1.22-.1076 3.0916-.015 3.1374-.479-2.121.0625-4.411.0754-6.8032.0625l-.7974-.0043-.3465-.6943c-4.1156-8.2404-8.4503-17.7508-12.0529-22.8849"/>
    <path fill="#BF461D" d="M164.1524 107.5c.339-1.1381 1.075-2.7892.692-3-.333 1.1299-1.068 2.7718-.692 3M159 119.5c4.4004-6.1698.1959-4.426 0 0M72.9865 114.5c-4.617 7.5391.302 2.5777 0 0M155.1498 109.893c2.06-5.5508 5.0194-10.6227 5.8502-16.393-2.9786 7.6724-6.8288 17.5933-10.2989 26.5312-3.6692 9.5359-7.8995 19-7.6939 22.4688 5.4915-13.221 8.8181-23.6339 12.1426-32.607"/>
    <path fill="#BF461D" d="M181.8414 126.1683c.8162.2493-1.1393.6156-1.5742.4823-.8128-.2471 1.1404-.6157 1.5742-.4823m4.7293 0c-.045.4725-1.927.375-3.1496.4823.0406-.4693 1.927-.374 3.1496-.4823m32.5032-3.5043c-.5795 1.2075-1.6016 2.713-2.8844 4.4028l-.0778.1019-.1446.0043c-5.5147.167-13.0133-.2634-18.3648-.0368 3.741-.8747 11.6023-.4845 18.3648-.425l-.1424.0673c1.193-1.4492 2.305-2.8387 3.2492-4.1145m-3.7159 3.0501c.1994.09.1863.324-.0044.6915l.6135-.2915c-1.3913.3305-5.5004-.1572-7.331.0542h-7.8788c2.1044-1.0623 10.3612-.2418 15.2098-.4553l-.93.4422c.1215-.168.2223-.3056.321-.4411m-4.302-3.5172c-.8162-.2504 1.1392-.6157 1.5742-.4824.8172.2471-1.1394.6157-1.5743.4824m-44.3258-14.25l-2.3191-4.5882.4491-.0184-.4152 1.0264c-1.1765 2.5385-.7931 3.1813-.1457 1.6573.3385-.878.6726-1.7429.9717-2.5211l-1.2554.052c4.7818 9.1318 8.569 16.808 11.885 23.6734l.1972.4065.482.0076c13.8251.2308 25.2938.6178 39.3873.2807l.5324-.013.2827-.374c1.2149-1.615 2.6752-3.554 4.1924-5.569L222 120.6046l-1.651.077c-.391.0173-.9026.0422-1.4175.065.8786 0 1.79.3913 0 .4823.0033.271-1.274.5507-1.571 0-2.3837-.5397-4.992-.491-7.883-.4823-8.8111.0238-19.0386.051-29.5126.0791l.5839.3566c-5.495-10.7598-11.1861-21.7809-16.2747-31.2487l-.2333-.4336-.1698.4498c-1.8043 4.7822-3.3478 9.0061-4.68 12.8139-1.56 3.8586-3.1177 7.7151-4.6821 11.5836-1.3639 3.373-2.73 6.7537-4.096 10.1333-2.443 5.0998-1.3376 5.5496.4524.1789 1.366-3.3796 2.7321-6.7592 4.096-10.1323 2.9765-7.699 6.5007-16.0688 9.8387-24.2089l-1.422.0586c4.1081 8.23 8.1614 16.1457 11.9474 22.454 1.2785 2.0388 1.3858 4.6868 2.6522 7.4073.2553.5507.573 1.137.9323 1.756l.3977.6828.6573-.038c2.3257-.1354 5.0776-.5028 7.4515-.4421 6.9662.1712 14.5021.8617 22.061.9679 2.4561.0314 5.3822-.4965 7.8832-.4856.9728.013 1.9653.026 2.9885.038l-.9827-2.0226c-1.4635 1.7364-3.0038 3.5085-4.5561 5.2807l1.1568-.5506c-7.9259-.309-15.9427-.7219-21.5154-.2244 1.8338-.0758 2.8044.1084 3.1506.4856 1.9029-.0488.9706.7002 0 0h-17.335c-2.2678.1073-.5533 1.4416-3.154 1.4503-.1742-.1073-.3462-.2146-.5335-.3154l.0657.039c.0252-.6439-.0548-1.3928-.5817-2.609-1.7396-.9885-4.5967-8.682-6.781-12.3347-.6212.0314-1.6532-2.3586-2.5526-3.9692M135.7595 140.5c.427-1.6357-1.502-5.8432 0 0M80.016 102.8105c.088.5573 1.126 2.4172.9676 1.3809-.0845-.5546-1.1243-2.4228-.9675-1.381M72 115.2456l.452.2544c5.3198-7.6462 4.2334-8.257-.452-.2544M140.2187 129.5c-.959 2.0865 2.102 7.849 0 0M143 142.5c-1.1207-9.5996-1.5303-2.9481 0 0"/>
    <path fill="#BF461D" d="M219 120.7852c-1.7003-.082-1.8857.176-2 .445h2v-.445zM78.6257 102.1739c-1.3218 2.0615-10.6023 16.0799-6.655 12.8432-1.0464 1.0374 5.1436-9.5666 7.2465-13.3764l.4074-.7364.4933.7364c.9809 1.464 1.2845 1.8305.1783-.1055L79.707 100.5l-.6693 1.0352c-.1185.1844-.2574.3987-.412.6387M149.1965 140.0913c1.7259-3.8559 3.455-8.2194 4.9942-12.409 1.5469-4.1928 2.9158-8.2017 4.16-11.5035 1.369-3.6444 4.9732-10.6842 4.6494-12.9408l-.1624-1.141 1.5181 1.0837c.2354.1685.4475.2335.6442.1993-.0807-.164-.1591-.3249-.2044-.4174L163.59 100.5l-1.0452 2.5551c-1.8297 4.4682-2.8374 7.508-3.8827 10.4067-1.0341 2.891-2.1225 5.6455-3.9301 9.3482.496.1652.4917.9395.1083 2.1608-.3724-1.163-1.0607.4747-1.7811 2.1653-.9204 2.1553-1.8353 5.0177-2.9734 8.3493-1.1292 3.3294-2.4981 7.1213-4.0859 11.0146.6331-.5308 2.0352-4.0375 3.1965-6.4087M91.9836 121.1913c-.0862-.5558-1.1278-2.4216-.9667-1.3814.0853.5545 1.1252 2.4188.9667 1.3814M88.9836 116.1924c-.0869-.5593-1.1284-2.4223-.9666-1.3823.0835.551 1.125 2.4182.9666 1.3823M86.9836 112.1913c-.087-.559-1.1277-2.4202-.9667-1.3818.0878.5618 1.125 2.4174.9667 1.3818M84 107.4863c-.71-.8-1.5832-2.1422-2-1.9715.7078.7974 1.5747 2.1352 2 1.9715M81 96.5277l9.3919 14.5916c3.1779 2.8142-7.1506-10.843-6.8023-12.429-.691-.0646-1.999-2.4734-2.5896-2.1626M95 118.5426c.5408.3895.8084.5223.8878.5063L97 118.9993c-.0042-.0312-.0293-.0304-.0613-.0136l-1.009.5143.0152-.4711c.0042-.1376-.6132-.6839-.9449-.4863M140.271 139.597c.716 1.983.496-.257 0 0M141 142.6764c.0754.1992.1485.4216.2276.6948l.6181 2.1288.8336-2.024c1.1232-2.7324 4.0827-7.4539 3.1371-7.976-.6498 1.4139-1.302 2.833-1.9506 4.2417-.4892 1.2074-1.262 2.7176-1.4846 3.6306l-.2848 1.1597-.5561-1.2201c-.168-.3686-.3444-.6016-.5403-.6355M147.1715 133.5c.324-1.1362 1.046-2.793.657-3-.323 1.1362-1.046 2.7888-.657 3M168.3225 112.459c4.7954 7.4471-2.0893-7.9602-3.3225-6.9071 1.699 3.4138 2.8278 3.8712 3.3225 6.9071M47.7958 126.756c-.4479-.111-2.4293.281-1.5916.488.4479.111 2.4293-.278 1.5916-.488M28.853 127.616c-.151-.051-.5412.006-.853.103l.7261.463c-.269-.322-.5185-.507-.4224-.108.0194.079.0751.195.155.329l-.4482-.287c.5064-.049 1.3255-.331.8425-.5M26.979 126.1748c-.0952-.5651-1.1407-2.416-.9575-1.35.0952.5637 1.1382 2.4173.9575 1.35M79.6747 93.6812c.31-.6121.6969-1.2988 1.068-1.9704H79c.7756 1.4168 1.5317 2.7408 2 2.7892-.5377-.9025-1.1319-2.0571-1.678-3h1.0977c-.5173.9892-.8801 1.8282-.745 2.1812M98.8182 113.5c-2.2471 6.2714.9506.907 0 0M136 117.5013c.3197 1.179.588 3.0548 1 2.9974-.3206-1.1833-.588-3.0558-1-2.9974M138 130.5012c.3197 1.1789.589 3.057 1 2.9974-.3206-1.1822-.587-3.0525-1-2.9974M140.7286 139.4041c-.716-1.987-.493.256 0 0M172.1318 115.5c-.8636.6843 2.7633 6.2993 3.737 9 .8614-.6809-2.7645-6.3016-3.737-9M146.6978 146.6116c-.439.186-.609 1.651 0 0M69.6776 115.617c-.309.3352-.938 2.3943-.356 1.7638.309-.334.94-2.387.356-1.7638M52.1986 127.2225c.442.123 2.4308-.215 1.6012-.445-.442-.123-2.4263.215-1.6012.445M141.2872 155.4281c.106-.2642.615-2.3423.422-1.8541-.094.2539-.606 2.335-.422 1.8541M72.6782 98.6172c-.31.3343-.937 2.392-.357 1.7645.311-.3331.938-2.3885.357-1.7645"/>
    <path fill="#FEF0E9" d="M140.6002 162.5L120.997 74.0326l-23.9008 57.3018-17.2457-28.7301-15.2219 25.3573-37.2264 1.1001L23 122.4613h38.5129l18.3376-30.5485 16.3113 27.1747L122.5973 54.5l19.5481 89.3266 21.32-53.2756 15.9614 31.9103H220l-4.4022 5.5003h-39.5717l-12.0027-23.9955z"/>
  </g>
</svg>
