<svg xmlns="http://www.w3.org/2000/svg" xmlns:xlink="http://www.w3.org/1999/xlink" width="610" height="291">
  <defs>
    <path id="a" d="M.5288.2793h.7192v4.5146H.5288z"/>
    <path id="c" d="M.9943.2715h4.3095V1H.9943z"/>
    <path id="e" d="M.7899.997h4.3613v.7483H.7899z"/>
    <path id="g" d="M1 .2988h.7484v4.3638H1z"/>
    <path id="i" d="M1 292h609.248V.997H1z"/>
  </defs>
  <g fill="none" fill-rule="evenodd">
    <path fill="#ECF7ED" d="M2.922 285.15h600v-280h-600z"/>
    <g transform="translate(-1 -.997)">
      <g transform="translate(609 155)">
        <mask id="b" fill="#fff">
          <use xlink:href="#a"/>
        </mask>
        <path fill="#31843F" d="M1.218 4.3995c.121-.925-.153-5.472-.379-3.724-.119.922.153 5.467.379 3.724" mask="url(#b)"/>
      </g>
      <g transform="translate(343 291)">
        <mask id="d" fill="#fff">
          <use xlink:href="#c"/>
        </mask>
        <path fill="#31843F" d="M1.4855.9786c1.026.107 5.243-.214 3.324-.414-1.024-.107-5.235.211-3.324.414" mask="url(#d)"/>
      </g>
      <g transform="translate(254)">
        <mask id="f" fill="#fff">
          <use xlink:href="#e"/>
        </mask>
        <path fill="#31843F" d="M4.7096 1.0235c-.964-.125-5.294.215-3.481.445.964.121 5.302-.216 3.481-.445" mask="url(#f)"/>
      </g>
      <path fill="#31843F" d="M560.6369 288.9678c1.05.089 5.167-.176 3.201-.341-1.055-.09-5.159.174-3.201.341M441.5094 289.3194c1.037.1 5.191-.194 3.259-.382-1.042-.1-5.196.194-3.259.382"/>
      <path fill="#31843F" d="M296.4132 286.3555c-.364.481-6.229.35-10.308.416.378-.488 6.231-.354 10.308-.416m87.288-.012c-.949-.306-3.165-.456-7.198-.393 3.601-1.182 14.042.213 14.395.78 6.01-.225 20.81.452 20.727-.392 15.646.82-20.053 1.246-20.727.392-5.811.003-11.646.005-17.465.008-11.274-.329 5.923-.521 10.268-.395m13.522-.776c1.911.2-2.241.492-3.267.386-1.917-.2 2.243-.494 3.267-.386m20.922.01c.137.371-4.093.294-6.75.378-.117-.371 4.097-.294 6.75-.378m36.371 2.229c1.947.188-2.198.475-3.241.374-1.938-.188 2.213-.475 3.241-.374m-.5-.737c1.945.188-2.196.473-3.238.372-1.937-.191 2.209-.475 3.238-.372m7.508.726c1.933.187-2.209.472-3.261.372-1.932-.186 2.224-.472 3.261-.372m-273.026-.131c28.987.017 55.97-.767 83.777-.47 14.008.149 32.218 1.043 52.981 1.189 20.047.142 40.353-.183 56.434.7.95-.565 17.099-1.36 20.807-.432-4.978-.024-9.953-.046-10.291.409 14.47.288 12.104.03 28.034-.064-.137-.212 2.576-.437 3.503-.008l-3.503.008.233.38c17.868.012 19.269-.147 6.543-.774 11.666-.025 23.34-.05 35.015-.074 24.132-1.167 41.018-.452 69.431-.842.243-.399-1.274-.607-4.062-.681 2.036.556-18.593.589-17.47.016 5.828-.005 11.649-.011 17.47-.016l-.284-.342c-4.19.036-2.556-.5 0 0 6.459-.052 11.485-.233 13.391-.686-17.549-.541-24.49.855-31.13.345-18.224.582-61.215.639-80.288.013 26.76-.003 53.528-.008 80.288-.013-4.654-.578-18.97-.718-21.486-.711-2.584.008-3.424.442-6.693.355-1.054-.027-.339-.367-3.766-.36-2.603.003-3.407.446-6.707.358-1.106-.03-.197-.395-3.759-.364-12.45.116-4.598.245-17.679-.378-32.966.301-79.225-.84-100.695.724l.196.402c10.539.587 12.734-.45 17.867.788-11.895-.248-32.227.543-38.628-.38-6.042.749-19.505.228-24.633-.402 15.592.537 28.301-1.218 38.408-.005-5.188.068-12.944-.144-13.775.407 6.022-.234 20.756.476 20.761-.408-1.943 0-4.127-.325-.196-.402-16.094-1.134-51.159.15-62.968-.423-3.744.101-2.046.825-6.666.834-1.694-.374-3.346-.749-7.292-.839-1.333.516-4.149.861-10.172.84-23.738.258-30.253.573-55.851.005 2.048 1.356-15.933.325-17.145 1.301"/>
      <g transform="translate(0 152)">
        <mask id="h" fill="#fff">
          <use xlink:href="#g"/>
        </mask>
        <path fill="#31843F" d="M1.0256.7315c-.121.972.215 5.302.445 3.495.123-.963-.215-5.294-.445-3.495" mask="url(#h)"/>
      </g>
      <path fill="#31843F" d="M2.3615 198.1153c-.727-32.884-.705 20.419 0 0M146.3674 286.8057c-7.446.805-28.612-.081-34.813.888 7.81.431 23.175.023 24.477-.008 3.78-.093 44.233 1.309 34.98-.013-9.456-.184-35.558.59-24.644-.867M52.0739 287.2598l-48.152.002h-1.115v-33.299c-.222 8.684-.423 20.313-.53 32.184l-.015 1.631 1.66.014c19.264.174 39.176.098 48.152-.532M604.2746 286.9356c-1.062-.088-5.165.156-3.179.319 1.052.086 5.141-.158 3.179-.319M590.298 286.9483c-9.203.004-23.041.2-14.592-.638-12.095.289-8.539.041-20.639.337-2.485 1.299 44.953.577 35.231.301M548.3693 286.9874c-1.046-.094-5.168.165-3.201.34 1.047.091 5.16-.169 3.201-.34M534.6721 287.3399c1.053.093 5.171-.17 3.212-.344-1.045-.094-5.169.168-3.212.344M181.4992 287.668c.994.119 5.249-.212 3.394-.436-.993-.121-5.255.209-3.394.436M66.0812 287.7022c12.89-.284 34.917.565 41.912-.449-12.885.286-34.852-.572-41.912.449M55.61 287.7041c.974.122 5.282-.215 3.451-.444-.973-.125-5.289.213-3.451.444"/>
      <path fill="#31843F" d="M4.1447 51.5215c-.23 1.799-.568-2.524-.447-3.488.23-1.807.57 2.524.447 3.488m212.693-46.49c-58.5.55-136.66.415-212.916.234l-.879-.002-.001.883c-.083 46.558-.164 92.282-.235 132.631 0 30.861-.305 57.485-.445 83.765-.008 1.676 1.006 2.801.89 6.978 0 0-1.418 1.744-.89 6.985.506.666.248 3.503 0 3.495-.055 6.25.545 7.36.445 13.962.136 8.112.238 17.797.318 32.184l.004.801.793-.004c35.319-.162 87.619-.403 124.911-.575 5.469-.042 22.743.607 20.784-.878-41.315.516-93.21.796-145.695.863h-.207v-.207c-.073-56.115.091-112.879.43-157.844-.857-12.792.193-18.345-.447-34.893.656-.024 2.238-9.718.892-13.964.164 5.93-.347 6.589-.892 6.978.277-9.478-.565-27.703.447-31.405-.039 4.941-.072 9.876.445 10.457-.322-10.656.455-12.715.446-20.932-.651-8.101-1.412 6.818-1.338-6.984-.179-10.839-.186-21.299-.129-31.413l.002-.355.351.001c27.55.155 52.727.778 76.79-.316 48.068.383 86.567.42 136.126.445 2.823-.084 3.481-.445 6.971-.445.144-1.18-2.564-.484-6.971-.445"/>
      <path fill="#31843F" d="M234.2809 4.586c-2.556.416-6.349.676-10.473.891 4.842.875 29.615.545 34.902 0v-.446c-13.534.356-17.635.67-24.429-.445M605.3635 146.6856c.026-18.695.053-37.391.078-56.077.004-3.505.007-7.016.01-10.521-.095-2.746-.007-6.918-.432-7.094.262 23.473-.592 55.777.344 73.692M605.3449 157.2022c-.086-2.759 0-6.919-.396-7.188.087 2.764 0 6.926.396 7.188M604.8976 185.0274c1.121-16.15-1.278-9.161 0 0M160.3415 286.8038c-18.623-.473-3.871 1.328 0 0M366.9201 5.4766c13.066-.082 25.913.777 38.391-.445h-62.835c-22.555.027-45.437-.455-52.345.89 31.612.313 55.673-.308 76.789-.445M603.2658 76.1661c.227-1.762.559 2.63.437 3.569-.222 1.751-.557-2.632-.437-3.569m-.003-10.454c.43.169.342 4.32.44 7.043-.426-.168-.341-4.323-.44-7.043m-16.459-59.343c4.004-.39 10.142-.506 17.118-.517h.294l.001.294c.018 11.432-.25 25.082-.071 35.264-.707-7.366-.515-21.697-.421-35.264l.197.198c-6.115-.042-12.052-.065-17.118.025m10.475.891c-.3-.486 2.819-.534 6.643-.493l-.62-.621c-.04 3.789-.169 8.264-.048 10.79.001 5.804.001 11.609.002 17.419-.828-3.998-.418-17.611-.388-28.209l1.054 1.055c-2.45-.006-4.696.008-6.643.059m-34.902-.446c-1.806-.23 2.525-.568 3.488-.445 1.806.229-2.524.568-3.488.445m41.755 128.895l-.003 13.955c-.117 6.195.38 7.34.407 3.686-.196-31.854-.027-56.487.169-79.288.195-22.79.402-43.735.216-67.916l-.008-1.007-.991.008c-7.106.063-15.343.167-24.103.33 1.945 0 3.965.361 0 .445.009.25-2.822.508-3.48 0-5.278-.498-11.055-.453-17.459-.445-52.452.076-127.588-.026-174.518.892H332.0098c-12.609-.322-12.631.768 0 .445h24.428c37.709-.236 83.124.51 115.188-.445 5.347-.203 10.756.801 17.457.891 5.807.08 14.086-.518 20.942-.446 15.429.159 32.116.795 48.855.893 5.44.029 11.92-.457 17.459-.447 8.742.015 18.219.174 27.583.331l-1.444-1.445c-.265 15.686-.522 30.988-.107 42.048-.072-4.051.097-6.174.443-6.907-.046-4.207.643-2.087 0 0 .006 12.754.012 25.513.016 38.273.101 5.026 1.304 1.489 1.312 7.253-.39 1.469-.779 2.877-.868 6.772.981 3.945.17 21.956.437 31.498.494.72.356 6.483.421 10.626M555.0666 286.6475c-1.596-1.002-14.227.325 0 0M195.2751 286.7969c1.002.117 5.246-.21 3.389-.433-.993-.121-5.253.205-3.389.433M160.2546 286.3672l.087.437c20.016.301 19.781-.744-.087-.437M258.7096 5.4766c4.14 1.355 18.529-.48 0 0M286.6418 5.4766c-22.362-.514-7.673 1.361 0 0"/>
      <path fill="#31843F" d="M579.8185 5.4766c-2.959-.082-3.28.176-3.479.445h3.479v-.445zM191.466 285.4981c-5.336-.049-41.92-.603-31.211.869-4.553-.447 53-.668 31.211-.869M604.1017 233.4854c.318-18.964-.245-40.5-.377-56.087-.082-9.707.685-29.95-.831-31.736-.048 22.339.642 29.58.071 48.728.445-.307.683 1.176.767 3.943-.664-1.693-.697 2.315-.749 6.504-.125 10.675.601 26.558.426 45.545.506-2.535.494-10.825.693-16.897M243.7809 285.5108c-1-.118-5.225.205-3.351.423 1.001.117 5.219-.203 3.351-.423M229.8312 285.5069c-1.005-.118-5.237.206-3.367.426.991.118 5.231-.205 3.367-.426M219.3659 285.504c-1.003-.119-5.238.208-3.373.428 1.013.119 5.234-.206 3.373-.428M208.9103 285.502c-2.689.095-6.893.009-6.868.429 2.682-.096 6.873-.009 6.868-.429M5.0353 135.2881v-38.392c-1.018-8.881.127 28.713-.891 31.407.483.873.303 6.947.891 6.985M4.59 79.4454c-.275-5.079-.539.353 0 0M279.6564 6.8145c5.074-.275-.351-.539 0 0M286.6418 6.8145c6.136-.256 20.496.537 20.939-.445h-10.465c-4.116.07-9.915-.076-10.474.445M311.0622 6.8145c2.717-.1 6.9-.012 6.993-.445-2.715.099-6.892.009-6.993.445M603.7111 125.0831c-1.016-20.362-1.393 17.709.004 17.44-.045-8.703-.79-11.068-.004-17.44M90.2902 285.0391c-.976-.122-5.265.215-3.439.443.976.122 5.267-.212 3.439-.443M48.4679 285.0352c-.968-.123-5.276.216-3.461.444.97.123 5.271-.213 3.461-.444M41.485 285.0342c-.959-.123-5.271.217-3.457.445.96.122 5.272-.213 3.457-.445M5.0353 152.7315c-.076-5.21.158-12.876-.445-13.954.076 5.225-.16 12.874.445 13.954M4.59 65.4756c-.426 14.506 1.334.713 0 0M230.7931 7.2598c2.708-.1 6.885-.012 6.985-.445-2.717.099-6.886.011-6.985.445M258.7096 7.2598c2.709-.1 6.893-.012 6.985-.445-2.715.099-6.879.011-6.985.445M279.6564 6.8145c-5.08.275.353.537 0 0M602.8586 114.3536c.94-.148.172-14.717.415-20.769-.954.2-.174 14.724-.415 20.769M603.4084 250.3829c-.493 1.731.039 4.237 0 0M156.425 284.6153c-.984-.12-5.251.211-3.399.437.986.122 5.246-.207 3.399-.437M8.5998 246.9786c.123-.964-.215-5.295-.445-3.488-.123.964.215 5.287.445 3.488M599.9807 281.7774c.076-.877-.207-5.406-.354-3.764-.076.858.209 5.381.354 3.764M189.9899 279.4366c-.983-.122-5.196.199-3.353.426.985.123 5.191-.197 3.353-.426"/>
      <path fill="#6BC373" d="M307.3014 78.9639c.691-.713 1.028-1.674 1.009-2.885-.018-1.209-.384-2.161-1.097-2.852-.714-.692-1.773-1.027-3.178-1.005-1.405.021-2.473.389-3.204 1.103-.73.714-1.086 1.677-1.068 2.886.019 1.211.405 2.16 1.157 2.852.752.69 1.811 1.025 3.177 1.005 1.366-.022 2.434-.389 3.204-1.104zm.079-10.073l.755-19.335-8.898.137 1.352 19.303 6.791-.105zm-3.829-28.048c4.371-.067 8.408.945 12.109 3.034 3.702 2.091 6.654 4.954 8.857 8.588 2.203 3.637 3.339 7.641 3.407 12.011.067 4.372-.944 8.408-3.035 12.109-2.089 3.702-4.952 6.654-8.588 8.857-3.635 2.204-7.639 3.338-12.01 3.406-4.371.067-8.407-.943-12.108-3.034-3.703-2.089-6.655-4.952-8.857-8.588-2.204-3.635-3.338-7.638-3.406-12.01-.068-4.37.943-8.407 3.034-12.109 2.089-3.702 4.951-6.654 8.588-8.858 3.634-2.202 7.638-3.339 12.009-3.406z"/>
      <path fill="#31843F" d="M304.7121 76.5352c-.019-.059.004.111.041.221.02.057-.002-.111-.041-.221M305.0544 75.8106c-.061.014.11.01.223-.017.059-.015-.11-.012-.223.017M302.3512 76.5166c.06-.013-.111-.022-.224.006-.06.016.113.024.224-.006M306.1271 77.4102c-.055-.029.071.088.174.141.056.026-.069-.09-.174-.141M306.3986 76.5518c-.062.001.101.061.217.058.062-.004-.1-.064-.217-.058"/>
      <path fill="#31843F" d="M307.9767 74.6651c-.25.074-.208-.023-.259-.064.247-.086.208.019.259.064m.216 1.255c.174-.019.26-.056.219-.116.677.031-.11.224-.438.224.132.089-.267.284.223.303-.491.188-.705-.289-.223-.303l-.012-.246c.175-.174.303.07.231.138m.452.202c-.115.028-.284-.036-.223-.052.114-.03.285.035.223.052m-.006.332c-.218-.012-.17-.074-.219-.117.217.007.17.071.219.117m-1.375.356c-.118.002-.277-.07-.215-.072.116-.006.278.07.215.072m.44.066c-.118.005-.276-.073-.214-.076.117-.008.279.072.214.076m-.454.014c-.117 0-.275-.077-.213-.076.117-.002.275.075.213.076m-.556-3.079c.21.227.74.295.748.704.001.206-.393.557-.444.784-.047.22.147.45-.363.65.317-.012.769.188.228.227.02-.057.036-.115-.224-.114-.184.155-.03.13-.003.299.124.005.251.044-.002.037l.002-.037-.222-.009c-.047.166.043.197.44.096-.01.126-.021.25-.043.365.624.399.131.48.211.817.232.117.362.162.421.15-.334-.137-.25-.342.084-.205-.025.07-.054.138-.084.205l.202.092c.003-.061.308.106 0 0-.006.094.062.206.311.379.442-.099-.348-.568-.012-.521-.239-.38-.143-.887.24-1.143-.03.391-.104.778-.24 1.143.37.075.52-.128.524-.169.006-.043-.251-.13-.187-.165.02-.011.222.055.23-.001.006-.042-.257-.119-.194-.156.022-.012.238.052.23-.009-.038-.214-.133-.093.267-.246-.096-.533.486-1.352-.445-1.605l-.221.031c-.309.186.273.165-.414.293.125-.183-.337-.373.143-.549-.417 0-.171-.218.13-.391-.226.27.759.278.125.546-.046-.069.043-.203-.255-.155.147.063-.216.32.271.256-.004-.027.169-.086.221-.031.588-.357-.249-.767-.026-1.015-.072-.039-.426.124-.455.064.176-.097.351-.197.369-.276-.261.088-.447.127-.473.044-.287-.249-.446-.205-.447-.673-.512.475-.27-.051-.643.288M303.05 73.7754c.022.057.035-.118-.007-.227-.024-.057-.037.119.007.227M303.4958 73.0332c-.383.404.294.324 0 0M306.5744 73.1446c-.291.292-.313-.229-.596.182-.01.234.226.131.252.129.101-.007-.033.803.32.225-.021-.151-.488.014.024-.536M305.3371 72.8897c-.349-.07-.715-.107-1.087-.11.33.288.801.564 1.087.11M306.9147 78.5616c.052.035-.036-.119-.133-.185-.05-.037.04.117.133.185M307.0221 78.4415c.078-.083.081-.307.465.131-.053-.254.052-.119-.018-.366-.707-.478-.65.169-.447.235M307.3224 78.0137c.061.02-.06-.108-.173-.145-.059-.021.062.106.173.145"/>
      <path fill="#31843F" d="M307.2052 77.7608c-.06-.019.067.104.18.138.061.016-.066-.107-.18-.138M306.6369 73.7579c-.035.051.118-.038.183-.135.034-.053-.12.035-.183.135M305.4611 73.1475c.208-.095.295.395.568-.042-.188.068-.344-.43-.568.042M305.3341 73.1172c-.002.062.089-.089.093-.206.001-.065-.091.087-.093.206"/>
      <path fill="#31843F" d="M301.2853 72.8233c.085.083.124.259.079.215-.088-.08-.126-.258-.079-.215m-.962 3.422c-.244-.627-.123-1.526.388-2.166.506-.667 1.285-.968 1.971-1.133.403-.101.786.011 1.139.063.023.002.017-.503.08-.449 0 0 .047.708.109.443.004-.253.046-.125.047-.001.084.027.1-.273.192-.223.54-.326 1.562-.142 2.229.051.09.019.105.424.51-.213-1.466-.344-3.244-.301-4.627-.277-.053.465-.304-.008-.417.386-.118-.307-.609-.957-.382-.315.052-.117.17.109.288.355-.195-.061-.212.426-.52.028.075-.027.149-.045.03-.277-.068.223-.298-.085-.419-.001.081.343.487.52.299.61-.129.302-.395.382-.627.541-.225.149-.401.384-.162.752-.455.515-.573 1.118-.574 1.837.044.041.225.044.226.092.59-.022.241-.043.22-.103M300.5563 76.4649c-.21-.018-.344-.062-.453-.116-.44.087-.238.461.044.487l.221-.032c-.2-.152-.363-.211.188-.339M305.2746 79.1504c-.23.054-.47.092-.716.112l-.139.01c-.034.053-.092.013-.082.229.296-.156.822.211.937-.351M305.4035 79.1172c-.021.058-.082.03-.032.239.023-.057.087-.029.032-.239M305.8127 79.2217c-.406-.515.132.73 0 0M306.7277 73.252c-.06-.339-.438.518 0 0M300.6432 78.2178c.117.112-.088.544.48.259-.164-.161-.318-.412-.444-.646-.146-.259.011-.585-.661-.513-.032.503.421.713.625.9"/>
      <path fill="#31843F" d="M304.4372 80.3887c-.034-.113.022-.287.04-.227.036.113-.021.288-.04.227m-.164.007c-.006-.218.059-.174.098-.226.01.217-.058.175-.098.226m-1.176-.272c.217-.487.542-.025.799-.169-.171.514-.545.061-.799.169m.112.461c.041-.48.207-.08.298-.198l.274.012c-.093.507-.393.068-.572.186m-.525-.305c-.004-.119.095-.271.097-.208.006.118-.094.271-.097.208m2.593-.446l.2-.045c.105.038.047-.229-.005-.228-.478.261-.908.152-1.27.058-.373-.097-.682-.169-1.143.048.026.004.03.187-.034.22-.018.124-.082.245-.05-.008-.037-.256-.116-.252-.205-.263-.763-.1-1.576-.618-2.348-.935-.086-.115-.168-.234-.239-.36a3.1347 3.1347 0 0 1-.171-.337c.072-.238-.436-.04-.204.091.054.122.114.242.183.357.204.237.357.545.583.793.22.246.514.429.851.349.117-.045-.049.43.038.529.077.08.325-.133.412-.062.198.164.38.554.66.664.091.033.245-.182.332-.165.363.084.832.64 1.134.308-.067.035-.103-.05-.113-.224-.068.023-.03-.323 0 0 .206.001.411-.002.618-.017.077-.055-.026-.664.059-.674.039.197.08.394.145.435.006-.508.327-.122.455-.286-.037-.258.06-.202.112-.248M307.4689 78.2061c.578.334-.083-.28 0 0M307.0739 73.5635c-.035.05.128-.02.197-.116.036-.054-.13.017-.197.116M306.8615 73.0743l-.134.178c.102.284.461-.115.134-.178M300.1476 76.836c-.66.165.279.218 0 0M300.2209 77.2159c.185-.358-.689.041 0 0"/>
      <path fill="#31843F" d="M303.0587 79.667c-.035-.047-.06.08-.084.212l.05.008.034-.22zM307.5202 73.0635c-.023-.086-.346-.702-.659.011.085-.255.836.297.659-.011M306.61 79.3389c-.323-.026-.451.404-.668.548-.138.09-.529-.234-.362.564.385-.048.358-.45.781-.246-.106-.236-.138-.373-.119-.433.132.365.202.359.283.363.215-.001.239-.495.551-.566-.225-.243-.325-.172-.466-.23M308.0456 73.7461c.044-.047-.138-.018-.22.068-.045.044.136.015.22-.068M307.9211 73.5518c.041-.049-.138-.009-.215.082-.042.047.136.007.215-.082M307.8205 73.4122c.039-.051-.139-.002-.211.092-.04.049.136 0 .211-.092M307.7135 73.2764c-.067-.002-.08-.082-.242.062.065-.002.073.076.242-.062M302.3498 71.8819c-.207.054-.412.124-.614.206.05.521.431-.23.625.252-.054-.235.064-.174-.011-.458M301.5622 72.4112c-.012.159.125.239 0 0M299.5461 77.2637c.151.05.262-.062 0 0M299.571 77.3741c.144.06-.166.403.305.258l-.048-.154c-.05-.053-.002-.157-.257-.104M299.6818 77.7559c.062.024.045.104.249.028-.062-.022-.043-.097-.249-.028M305.1647 80.0821c-.239.575.44.687.262-.053-.121.054-.086.446-.262.053M306.1911 71.9737c.004-.063-.12.073-.127.192-.006.063.116-.073.127-.192M305.5099 71.7891c-.004-.063-.106.09-.099.207.003.064.104-.088.099-.207M305.3957 71.7666c-.005-.063-.104.092-.094.209.004.063.102-.089.094-.209M302.6315 71.8145c-.075.055-.229-.03-.17.269.072-.061.216.032.17-.269M301.36 72.5176c.312.069-.312-.59 0 0M299.2184 76.502c.053.041.014.113.23.097-.052-.039-.014-.109-.23-.097M299.2653 76.9639c.056.037.024.113.238.079-.056-.035-.023-.108-.238-.079M299.5461 77.2637c-.152-.053-.261.062 0 0M305.0714 80.5479c-.077-.485-.247-.062-.361-.181.055.49.248.071.361.181M307.0763 79.5694c.214.245.044-.059 0 0M307.3449 72.3223c.02-.06-.143.032-.182.146-.022.059.14-.032.182-.146M304.1496 69.8829c-.02-.062-.102.107-.066.223.018.061.1-.108.066-.223M309.2384 80.9629c-.064-.022-.053.194.069.239.067.023.055-.197-.069-.239M309.7545 70.8868c.023-.064-.188-.037-.231.083-.025.063.185.036.231-.083M302.2794 65.6788c-.037-.062-.068.084.001.2.039.061.071-.084-.001-.2M304.8356 59.294c-.054-.003.099.194.199.199.054.002-.097-.194-.199-.199M302.2692 56.3174c.061-.034-.119-.155-.229-.092-.059.034.119.156.229.092M306.0446 66.1915c-.044-.014.08.229.164.254.045.013-.08-.229-.164-.254M306.0211 62.7344c-.05-.007.089.215.183.229.051.006-.088-.215-.183-.229"/>
      <path fill="#31843F" d="M307.6491 59.3457c-.236-.124-.164-.271-.192-.41.239.121.166.271.192.41m-.1 2.684c.152.066.227.043.202-.102.574.473-.122.374-.4.201.103.257-.246.483.167.76-.42.194-.586-1.009-.167-.76l.017-.532c.175-.247.248.337.181.433m.364.664c-.1-.004-.238-.228-.184-.225.099.003.238.227.184.225m-.03.654c-.182-.122-.139-.228-.177-.338.182.12.14.227.177.338m-1.136.31c-.095-.013-.23-.24-.18-.233.095.013.23.24.18.233m.361.26c-.094-.012-.229-.241-.178-.235.096.013.23.242.178.235m-.365-.051c-.094-.014-.228-.242-.178-.235.094.014.229.242.178.235m.391-8.037c-.042.853.311 1.813.132 2.594-.09.394-.55.726-.646 1.286-.093.54.042 1.232-.41 1.423.275.193.645.918.186.727.018-.134.035-.271-.188-.422-.159.317-.029.33-.002.812.104.069.211.223-.001.103l.001-.103-.187-.121c-.028.491.048.593.371.448l-.006 1.028c.542 1.146.171 1.363.327 2.352.196.188.3.237.339.186-.276-.191-.266-.808.014-.53l-.014.53.169.145c-.013-.143.249.146 0 0 .018.219.1.454.321.723.286-.306-.391-1.138-.132-1.115-.264-.813-.239-2.101.09-2.47l-.09 2.47c.29.107.375-.288.375-.369-.001-.085-.213-.287-.167-.354.015-.021.18.137.182.027.001-.083-.215-.284-.168-.351.016-.023.194.148.183.024-.042-.437-.115-.234.207-.416-.108-1.131.506-2.275-.234-3.395l-.197-.106c-.3.156.205.523-.408.319.136-.291-.227-1.112.233-1.062-.36-.377-.088-.642.227-.652-.282.337.563 1.189-.044 1.181-.027-.177.087-.361-.183-.529.108.247-.258.499.175.743.002-.059.164-.037.197.106.575-.199-.012-1.634.284-1.859-.045-.14-.402-.25-.401-.393.185.03.372.061.42-.044-.251-.152-.418-.313-.4-.493-.098-.784-.246-1.029.065-1.717-.67-.161-.141-.538-.62-.726M304.8429 51.0547c.031.061.163-.109.105-.224-.031-.061-.162.11-.105.224M306.235 50.3653c-1.01.379.637.343 0 0M307.6071 54.6797c-.389-.322.074-.862-.398-1.149-.223.187-.039.687-.025.731.042.134-.696 1.135-.034 1.045.102-.258-.25-1.135.457-.627M307.4928 51.7793l.086-2.245.566.579-.187.003c.057.02.118.042.188.065l-.636-.65c-.281.701-.467 1.786-.017 2.248M306.9909 68.4786c.044.016-.071-.237-.153-.265-.044-.014.071.238.153.265M307.0016 68.0538c.01-.276-.07-.792.332-.116-.128-.514-.01-.284-.141-.795-.635-.693-.339 1.045-.191.911M307.0338 66.7793c.047.013-.075-.232-.163-.254-.046-.013.077.232.163.254"/>
      <path fill="#31843F" d="M306.8771 66.2081c-.046-.011.078.231.165.253.048.012-.076-.231-.165-.253M307.1403 55.6202c-.06.012.098.188.21.167.061-.012-.096-.189-.21-.167M307.257 52.17c.126.412-.32.99.174 1.297-.127-.41.325-1.008-.174-1.297M307.2682 51.8575c-.062.021.101.172.217.133.063-.022-.1-.174-.217-.133"/>
      <path fill="#31843F" d="M301.6916 49.544c.058.114-.073.285-.104.226-.058-.116.073-.288.104-.226m-1.512 5.623c-.341-1.519-.465-3.492-.54-5.502l-.396.431c1.788.03 3.601.099 5.155.075.953-.015 1.778.125 2.591.183.053.003.079-.504.209-.449 0 0 .065.708.223.443.017-.254.106-.126.108-.002.194.024.223-.277.428-.23.047-.013.095-.026.186-.039l-.528-.542c.23 1.151.112 3.228.228 4.66.015.175-.327.621.409.75-.239-1.59-.302-3.525-.229-5.393l.114.116c-1.47.022-2.901-.036-4.073-.16-.389.434-.569-.088-1.075.24-.006-.328-.318-1.115-.439-.439.183-.086.207.17.223.442-.295-.134-.852.296-.974-.209.153.018.306.032.32-.227-.327.166-.397-.222-.65-.213-.246.329.221.703-.206.672-.72.206-1.392.006-2.025-.046l.034-.038c-.013.459.049.893.391 1.295-.087 1.496-.022 2.684.072 4.213.048.084.229.091.237.2.589-.038.236-.097.207-.231"/>
      <path fill="#31843F" d="M300.4396 55.6895c-.213-.064-.351-.173-.467-.292-.426.18-.208.932.075 1.075l.223-.015c-.207-.405-.373-.52.169-.768M302.8327 68.209l-1.578-.002-.297.004c-.074.05-.194.009-.19.225.647-.153 1.694.268 2.065-.227M303.1281 68.2129c-.061.046-.192.004-.132.21.064-.047.199-.005.132-.21M304.0094 68.4317c-.725-.576.039.67 0 0M307.5915 55.1055c.255-.505-.651-.291 0 0M300.2819 59.8086c.069.4-.332.826.305 1.168-.039-.56-.09-1.284-.136-1.937-.062-.694.129-1.417-.557-1.583-.088.987.274 1.706.388 2.352"/>
      <path fill="#31843F" d="M300.9113 69.3243c-.062-.113.066-.285.099-.224.064.114-.064.286-.099.224zm-.656-.322c.044-.003.078.001.104.01l.234.213c.036-.099.132-.081.198-.122.005.203-.112.18-.197.218l-.12.053-.209-.356-.01-.016zm.056-2.383c.535.29.157 1.103.336 1.599-.536-.29-.156-1.105-.336-1.599zm-.421.353c.48-.051.126.375.259.523l.038.538c-.517-.113-.135-.743-.297-1.061zm.146-1.09c.111-.065.289.057.23.091-.11.064-.289-.058-.23-.091zm2.665 2.971l.426-.005c.211.058.151-.201.039-.212-1.021.131-1.859.022-2.584-.072l.437.402c.054-.85.087-1.627-.278-2.594.004.06-.172.135-.222.015-.125.009-.259-.069-.007-.107.236-.18.202-.356.184-.554-.151-1.614-.263-3.933-.822-5.348l-.06-.861-.053-.754c.133-.399-.41-.362-.222.016l.053.754c.199 1.153-.075 2.58.47 3.535.113.157-.376.36-.406.569-.028.182.288.416.267.63-.045.482-.327 1.018-.34 1.537-.003.169.254.352.261.523.029.725-.438 1.646-.072 2.168-.044-.123.036-.195.208-.231-.032-.128.318-.088 0 0l.054.77.037.526.527-.007.438-.008c.16-.053-.002-.664.174-.671.063.198.128.396.259.44.06-.504.68-.095.96-.238-.038-.255.154-.187.272-.223zM307.1925 67.1426c.495.428-.142-.587 0 0M307.5534 56.169c-.059.012.097.193.208.173.062-.012-.094-.194-.208-.173M307.8068 55.1612l-.215-.056c-.173.565.342.711.215.056M300.048 56.4727c-.667.176.28.555 0 0M300.1086 57.334c.208-.707-.696-.188 0 0"/>
      <path fill="#31843F" d="M300.7414 66.3721c.035-.094-.095-.095-.229-.092l.007.108.222-.016zM308.1974 56.2559c.03-.157.349-1.234-.391-1.095.227-.087.266 1.741.391 1.095M305.6857 68.8233c-.681-.157-1.147.146-1.619.222-.3.048-1.05-.341-.858.447.764.016.824-.347 1.602-.06-.134-.231-.152-.355-.089-.4.135.346.276.361.431.386.407.058.669-.326 1.34-.246-.296-.259-.546-.248-.807-.349M308.1271 57.8936c.06-.009-.094-.203-.204-.187-.059.008.094.202.204.187M308.1461 57.4571c.06-.011-.095-.202-.206-.184-.059.01.095.201.206.184M308.1603 57.129c.06-.011-.096-.2-.207-.18-.059.01.096.199.207.18M308.1745 56.8018c-.044-.101.003-.218-.203-.286.044.099-.004.215.203.286M304.2731 49.0586l-1.186.019c-.267.512.886-.078.977.43.023-.242.212-.155.209-.449M302.5509 49.3086c-.155.14.015.269 0 0M299.4259 57.1661c.148.146.268-.03 0 0M299.4411 57.3809c.141.181-.224.65.268.63l-.023-.322c-.044-.125.016-.309-.245-.308M299.4938 58.1338c.056.08.021.212.237.2-.055-.08-.02-.212-.237-.2M302.4289 69.0762c-.553.532.776.716.546-.01-.261.028-.245.414-.546.01M308.549 53.127c.062-.021-.1-.185-.215-.146-.062.019.098.183.215.146M308.6032 51.8067c.062-.023-.101-.18-.217-.136-.062.023.099.178.217.136M308.6125 51.586c.062-.023-.101-.178-.217-.134-.062.024.099.178.217.134M304.8122 49.0508c-.16.04-.399-.073-.428.229.161-.041.399.074.428-.229M302.1193 49.3145c.452.206.012-.667 0 0M299.0983 55.6749c.056.08.021.212.237.2-.055-.081-.02-.212-.237-.2M299.1588 56.5352c.055.08.021.212.237.2-.055-.08-.021-.212-.237-.2M299.4259 57.1661c-.148-.147-.267.029 0 0M302.1789 69.5206c-.098-.484-.493-.083-.709-.206.066.488.493.085.709.206M306.4928 69.1719c.267.252.12-.022 0 0M308.6759 55.2735c.061-.016-.097-.194-.212-.165-.06.016.096.193.212.165M307.6969 47.2237c-.031-.062-.162.11-.104.224.03.061.162-.11.104-.224M309.3092 70.8858c-.078-.038-.124.112.024.185.079.037.124-.115-.024-.185M311.1842 57.1553c.062-.017-.091-.217-.205-.186-.062.016.089.214.205.186M291.2638 40.4454c-.112-.01-.406.341-.195.357.11.011.404-.338.195-.357M325.6203 48.3506c-.009-.112-.398-.342-.382-.133.007.112.395.341.382.133M283.1877 81.4932c.01.11.401.32.382.114-.011-.107-.402-.318-.382-.114M307.7365 39.211c-.081-.072-.5.044-.349.18.08.072.496-.044.349-.18M317.9479 43.0489c-.042-.1-.47-.169-.391.017.042.098.469.168.391-.017"/>
      <path fill="#31843F" d="M325.2462 53.5215c.256-.082.425.4.612.705-.26.072-.408-.412-.612-.705m-4.497-5.99c-.074.174-.005.362.266.583-.725.215-.763-.91-.553-1.158-.466-.272-1.181-1.377-1.521-1.011-.371-.586.1-.469.618-.111.524.347 1.067.936.903 1.122.371.341.732.698 1.082 1.064.521.827-.577-.189-.795-.489m-1.18-.479c-.039-.188.349-.072.37.03.039.185-.35.069-.37-.03m-1.373-1.118c.137-.17.392.084.607.186-.142.164-.395-.086-.607-.186m-1.792-2.784c-.083-.183.337-.133.382-.035.08.18-.34.131-.382.035m-.223.385c-.081-.181.334-.134.377-.037.077.179-.337.132-.377.037m-.321-.692c-.087-.177.336-.14.384-.044.085.178-.338.139-.384.044m12.722 19.484c-.228-2.57-1.224-4.802-2.015-7.082-.395-1.15-.68-2.799-1.633-4.404-.915-1.558-2.232-2.839-2.872-4.201-.3.122-1.687-.55-1.556-1.137.326.311.649.622.863.471-.854-1.007-.797-.775-1.967-1.642-.074.097-.357.046-.258-.191l.258.191.134-.178c-1.308-1.002-1.483-.964-.781-.019a26.6961 26.6961 0 0 0-2.681-1.682c-2.292-.438-3.451-1.426-6.011-1.883-.112.239-.029.399.188.51-.042-.402 1.728.115 1.47.437-.486-.162-.975-.309-1.47-.437l-.056.215c.36.074.095.362 0 0-.555-.113-1.021-.096-1.273.158 1.334.634 2.236.007 2.658.486.823.072 2.117.476 3.313 1.088 1.203.6 2.288 1.408 2.841 2.019-1.894-1.313-3.966-2.377-6.154-3.107.231.458 1.32.96 1.515 1.05.203.08.404-.133.63.033.074.052-.088.21.178.326.201.088.406-.114.63.059.074.057-.115.214.165.332.967.437.441.05 1.176.908 1.25.628 2.545 1.688 3.67 2.73 1.135 1.04 2.113 2.052 3.049 2.521l.174-.14c-.304-.9-.908-.684-.643-1.444.596.835 2.033 2.038 1.899 2.769.661.224 1.029 1.381.934 1.911-.413-1.32-1.87-1.72-1.821-2.759.304.336.589.94.887.848-.395-.366-.841-1.604-1.256-1.325.106.132.069.38-.174.14.17.714.825 1.56 1.429 2.415.606.848 1.163 1.696 1.235 2.206.192.263.486-.011.657.35-.128.206-.249.4-.167.725.297.013.58.171.748.662.425.937.685 1.549.879 2.199.196.646.323 1.338.354 2.445.68-.255.363 1.351.854 1.427M316.9982 86.712c.109.008.351-.345.152-.355-.103-.005-.35.34-.152.355M319.9186 83.8096c-1.016 1.062-.62.845-.151.471.467-.375.949-.933.151-.471M328.2365 66.0059c.396.689-.241 2.471.124 3.09.349-.643.276-2.035.266-2.147-.013-.169.227-1.127.314-1.963.097-.836.064-1.532-.255-1.12-.033.828.249 3.155-.449 2.14M326.7262 74.0645c-.891 2.177-2.091 4.216-3.542 6.062.737-.688 1.677-1.816 2.377-2.991.71-1.17 1.163-2.384 1.165-3.071M303.5807 40.2852c.085.062.465-.105.305-.223-.086-.06-.465.109-.305.223M304.8044 40.2989c.807.019 2.035.018 1.187.509 1.082-.09.737.036 1.826-.008.227-.4-.73-.67-1.651-.714-.921-.051-1.773.1-1.362.213M308.4562 40.6797c.071.078.478-.015.343-.159-.073-.077-.479.014-.343.159"/>
      <path fill="#31843F" d="M309.7077 40.7159c-.071-.08-.481-.002-.35.147.068.08.478.002.35-.147M328.6359 62.9424c.06-.091-.146-.456-.246-.288-.051.088.14.455.246.288M327.3673 72.9903c.261-1.104 1.133-2.909.724-3.629-.046 1.162-.982 2.882-.724 3.629M327.047 73.8594c.088-.058.066-.476-.099-.366-.088.056-.067.473.099.366M308.1457 88.3809c.172.089-.167.314-.259.268-.171-.089.168-.316.259-.268m-20.888-5.455c3.146 2.632 7.795 5.319 13.131 6.077 2.644.394 5.377.375 7.978-.043 2.6-.427 5.045-1.286 7.107-2.406 2.377-1.286 4.336-2.611 6.037-4.21.107-.104-.18-.524.107-.749 0 0 .624.376.744-.149-.15-.212.111-.314.204-.232.39-.397.213-.672.619-1.087.904-1.394 2.177-3.423 3.107-5.733.952-2.298 1.509-4.853 1.612-6.899.045-.465.442-1.936-.326-1.813.084 1.82-.081 3.91-.644 6.044-.553 2.134-1.509 4.297-2.771 6.266-1.263 1.971-2.843 3.74-4.558 5.153-1.713 1.416-3.542 2.489-5.243 3.228-.814.859-1.456.576-2.681 1.344-.118-.301-1.116-.814-1.27-.073.457-.219.583.007.696.258-.804.124-2.255.877-2.668.426.419-.057.836-.131.826-.397-.85.35-1.097-.009-1.772.104-.636.413.681.626-.5.74-1.707.375-3.36.265-4.886.081-1.535-.188-2.945-.45-4.421-.45-1.998-.624-3.718-1.396-5.353-2.333-1.631-.938-3.204-2.024-4.773-3.474-.206-.136-.372-.043-.593-.251-.421.414-.003.329.291.578M286.0031 82.0079c.305.021.636.162.963.34-.017-.591-1.56-2.028-2.04-2.246l-.174.138c.888.814 1.248.943 1.251 1.768M291.6891 43.2598c-1.428.819-2.781 1.769-4.027 2.849-.233.203-.467.407-.69.621-.143.198-.439.424-.291.586.678-.772 1.657-1.526 2.605-2.191.95-.667 1.857-1.261 2.403-1.865M292.5026 42.8135c-.188.158-.534.296-.437.489.187-.158.531-.294.437-.489M294.8332 41.9864c-1.596-.004-.398.959 0 0M328.2589 64.793c-.263 1.606.68.367 0 0M280.5705 71.8243c-.365-1.095-.174-2.248-.937-3.228.234 1.577.715 3.597 1.422 5.321.729 1.834 1.578 3.707 2.473 3.843-1.317-2.374-2.364-4.184-2.958-5.936"/>
      <path fill="#31843F" d="M287.5172 47.7452c-.192.021-.039-.353.063-.364.19-.021.039.353-.063.364m-.628.624c-.152-.158.132-.377.26-.576.147.16-.135.378-.26.576m-4.018 5.123c-.034-1.062 1.516-2.701 2.303-3.855-.182 1.004-1.778 2.524-2.303 3.855m.825-.552c-.445-.206.45-.949.597-1.361.274-.409.56-.81.863-1.197.144.616-1.134 1.7-1.46 2.558m-1.538 2.513c-.166.095-.177-.312-.083-.361.17-.091.167.309.083.361m9.089-11.151c.336-.215.687-.412 1.035-.611.503-.199.446-.479.16-.34-2.748 1.665-4.652 3.107-6.292 4.666-1.614 1.571-2.975 3.294-3.956 5.798.077-.152.315-.223.198.102.112.057.119.33-.134.267-.427.297-.623.767-.831 1.283-.883 2.101-1.591 4.825-1.715 7.533-.148 2.704.235 5.356.912 7.257.171.775.389 1.54.645 2.294.217.659.478 1.304.755 1.942.306 1.049.796.809.204-.09-.275-.632-.533-1.27-.748-1.924-.577-1.491-.892-3.238-1.058-4.924-.163-1.693-.184-3.324-.318-4.705-.062-.467.481-.875.602-1.419.104-.474-.069-1.211.091-1.775.362-1.263 1.071-2.507 1.658-3.758.184-.409.188-1.002.402-1.416.889-1.783 2.681-3.433 3.379-4.731-.187.282-.365.366-.542.306-.206.287-.366-.063 0 0 .675-.833 1.407-1.62 2.191-2.351.276-.321-.382-.564-.013-.895.234.062.46.127.742-.053-.088-.6 1.403-1.238 2-1.782-.108-.244.349-.46.633-.674M307.817 40.7999c-.048.669 1.277-.006 0 0M328.0744 61.7666c.049-.092-.165-.442-.259-.271-.052.088.162.44.259.271M328.0363 64.793h.223c.114-1.74-.42-1.707-.223 0M284.9259 80.1016c.313-.696-1.174-1.127 0 0M283.5031 78.1348c.885 1.748.93.169 0 0"/>
      <path fill="#31843F" d="M282.1945 53.8155c-.152.212-.049.294.064.369l.134-.267-.198-.102zM327.446 62.1407c.012.226.022 1.111.061 1.827.051.713.148 1.272.529.825-.112.193-.192-.949-.342-1.888-.147-.942-.315-1.683-.248-.764M299.0314 41.2081c-1.673.131-3.322 1.043-4.501 1.63-.744.336-2.508.808-2.178 1.582 1.66-.858 2.056-1.448 3.714-1.706-.132-.228-.071-.395.133-.515.023.405.349.307.699.24.88-.177 2.04-.935 3.677-1.038-.294-.297-.996-.18-1.544-.193M326.5563 57.8096c-.036.095.233.397.299.22.035-.098-.233-.401-.299-.22M326.8756 58.9454c-.036.093.207.412.285.236.045-.095-.211-.413-.285-.236M327.0758 59.8086c-.045.092.192.419.275.247.044-.096-.192-.422-.275-.247M327.2404 60.6778c.085.219.098.575.314.551-.086-.221-.098-.579-.314-.551M314.6891 85.711c-.951.496-1.936.923-2.946 1.278-.27.362.3.157.973-.127.671-.288 1.432-.66 1.645-.489-.039-.25.462-.398.328-.662M310.4103 87.6436c-.38.243.101.252 0 0M284.3927 78.2598c-.354-.279-.206.178 0 0M284.0631 77.7696c-.398-.37-.671-1.612-1.109-1.41l.447.773c.215.281.416.741.662.637M283.0089 75.9922c-.157-.177-.277-.513-.473-.423.144.187.278.519.473.423M290.6139 44.9766c-1.105 1.372 1.676-.222 1.261-.793-.627.404-.561.826-1.261.793M326.6886 70.5918c-.077.062-.009.456.142.339.084-.064.008-.459-.142-.339M325.5807 73.9141c-.087.049-.072.452.091.358.088-.051.075-.454-.091-.358M325.3468 74.4502c-.089.047-.087.448.08.359.09-.047.09-.45-.08-.359M315.963 84.9952c-.356.259-.972.469-.912.772.374-.235.989-.469.912-.772M309.2648 87.9307c1.242-.069-.094-.661 0 0M287.173 81.293c-.199-.123-.4-.414-.566-.271.191.135.403.419.566.271M285.6222 79.544c-.183-.145-.358-.453-.537-.327.18.152.359.459.537.327M284.3927 78.2598c.355.275.203-.176 0 0M290.1413 45.8487c-.328-.385-1.057.673-1.527.909.34.35 1.021-.718 1.527-.909M300.5753 41.4014c.222.298.351-.067 0 0M327.1437 65.087c-.058.079.102.443.22.294.068-.08-.104-.445-.22-.294M320.5705 78.7481c-.092.02-.181.384-.003.353.098-.017.18-.388.003-.353M303.5607 43.628c-.076-.058-.404.12-.261.231.074.06.4-.12.261-.231M324.3449 62.4766c-.055.077.144.38.246.235.055-.078-.143-.381-.246-.235"/>
      <path fill="#6BC373" d="M383.8634 242.4532c0 5.5-4.5 10-10 10h-139.883c-5.5 0-10-4.5-10-10v-34c0-5.5 4.5-10 10-10h139.883c5.5 0 10 4.5 10 10v34z"/>
      <path fill="#31843F" d="M387.3166 212.2256c.062-.223-.107-1.233-.223-.812-.061.223.107 1.233.223.812M328.3922 255.6836c.225.062 1.235-.107.814-.223-.225-.061-1.233.107-.814.223M277.7189 195.8916c-.225-.062-1.235.107-.812.223.225.06 1.237-.109.812-.223M379.5768 252.8731c.266-.084 1.192-.854.703-.687-.25.089-1.182.833-.703.687M351.1901 254.3467c.225.062 1.233-.107.814-.223-.227-.061-1.235.108-.814.223"/>
      <path fill="#31843F" d="M317.8078 252.5655c-.13.26-1.485.187-2.441.223.132-.262 1.484-.19 2.441-.223m20.355 0c-.182-.175-.68-.26-1.629-.224.99-.672 3.251.119 3.256.447 1.432-.129 4.787.268 4.885-.223 3.528.485-4.84.713-4.885.223h-4.07c-2.588-.188 1.445-.294 2.443-.223m3.257-.446c.419.115-.589.284-.814.222-.421-.114.589-.284.814-.222m4.884 0c-.021.217-.997.173-1.629.222.025-.216.998-.172 1.629-.222m8.14 1.337c.423.115-.586.284-.812.222-.421-.115.589-.284.812-.222m0-.446c.423.116-.586.284-.812.223-.421-.116.589-.285.812-.223m1.631.446c.42.115-.589.284-.817.222-.42-.115.592-.284.817-.222m-63.504-.223c6.741.019 13.082-.386 19.537-.223 3.252.082 7.406.571 12.214.668 4.641.095 9.403-.074 13.026.446.289-.318 4.148-.762 4.885-.223-1.152-.02-2.305-.037-2.443.223 3.32.184 2.804.034 6.514 0-.001-.124.661-.253.814 0h-.814v.222c4.14.037 4.492-.058 1.629-.445h8.142c5.798-.686 9.607-.232 16.28-.445.135-.26-.178-.397-.813-.446.366.364-4.437.364-4.071 0h4.071v-.222c-.984.022-.5-.325 0 0 1.506-.025 2.739-.148 3.245-.494-3.969-.252-5.87.58-7.316.271-4.358.37-14.367.37-18.724 0h18.724c-.978-.37-4.297-.451-4.886-.446-.605.006-.876.276-1.624.222-.241-.016-.016-.227-.818-.222-.608.003-.87.276-1.625.222-.253-.018.019-.243-.817-.222-2.927.075-1.112.148-4.069-.223-7.738.185-18.414-.435-23.611.445v.224c2.389.33 3.024-.252 4.071.445-2.742-.141-7.563.287-8.955-.222-1.486.409-4.564.117-5.701-.223 3.578.297 6.729-.668 8.956 0-1.217.037-3.003-.08-3.255.223 1.43-.129 4.783.268 4.884-.223-.453 0-.925-.181 0-.224-3.633-.623-11.956.089-14.654-.222-.884.054-.552.442-1.629.446-.363-.199-.716-.399-1.63-.446-.355.274-1.04.458-2.443.446-5.557.136-7.092.296-13.024 0 .394.701-3.733.166-4.07.668M222.5426 242.6729c-.06.268.198 1.4.27.91.045-.252-.177-1.384-.27-.91M228.8923 251.9463c-1.843-.952-2.336-1.537-2.373-1.465-.023.044.514.58 1.22 1.072.359.234.749.469 1.104.648.363.165.679.298.875.366.411.092.283.033-.826-.621M282.7995 252.7881c-1.767.407-6.666-.043-8.141.445 1.804.219 5.393.016 5.698 0 .889-.049 10.231.678 8.143 0-2.193-.095-8.302.293-5.7-.445M260.817 253.0108h-18.724c5.306.291 15.328.51 18.724 0M384.4157 242.5606c-.073.232.039 1.316.178.878.076-.242-.041-1.327-.178-.878M383.817 245.9307c-.358 1.072-1.049 2.347-1.641 2.979-.58.647-.839.762-.354-.251-.852 1.188-1.285 1.503-1.67 1.83-.412.299-.776.671-2.083 1.39-.122.277.475.214 1.339-.223.868-.421 1.973-1.253 2.791-2.281 1.694-2.066 2.058-4.554 1.618-3.444M376.5402 252.6524c-.234.026-1.26.371-.8.406.264.054 1.265-.421.8-.406"/>
      <path fill="#31843F" d="M373.1691 253.2334c.212.072 1.259-.125.822-.229-.238-.05-1.24.11-.822.229M290.9411 253.2334c.225.062 1.233-.107.813-.223-.224-.062-1.234.107-.813.223M264.0719 253.2334c3.009-.143 8.113.288 9.771-.223-3.007.143-8.107-.289-9.771.223M261.6344 253.2334c.225.062 1.233-.107.81-.223-.225-.062-1.235.107-.81.223"/>
      <path fill="#31843F" d="M224.092 219.0372c-.115.42-.284-.589-.224-.813.116-.422.286.588.224.813m43.86-21.142c-5.479.111-11.697.165-18.333.186-3.318.003-6.739.006-10.225.008-1.743-.003-3.502-.007-5.272-.011-1.822-.013-3.692.44-5.297 1.371-.816.446-1.538 1.044-2.215 1.682-.644.672-1.231 1.404-1.692 2.218-.925 1.616-1.407 3.51-1.378 5.357-.019 3.58-.037 7.144-.054 10.65-.022 7.014-.043 13.799-.063 20.035l-.006 2.655c-.013.424.022.896.039 1.345.044.45.108.898.196 1.335.391 1.744 1.166 3.365 2.283 4.663 1.109 1.298 2.485 2.345 4.028 2.987.772.31 1.568.573 2.39.69.81.158 1.673.153 2.411.167.391.004.653-.503 1.627-.445 0 0 .408.709 1.63.445.155-.253.817-.124.815 0 1.458.028 1.717-.272 3.257-.222 8.804-.317 25.559-.265 36.636-.446 1.278-.021 5.277.31 4.884-.446-10.023.275-22.667.413-35.336.44-3.168.001-6.337.001-9.467.001-1.566-.004-3.121-.009-4.661-.014-1.554.019-3.094-.339-4.456-1.001-2.754-1.305-4.722-3.858-5.376-6.59-.362-1.367-.3-2.756-.282-4.094.019-1.342.038-2.647.057-3.914-.428-2.983.097-4.279-.224-8.139.329-.005 1.12-2.267.447-3.257.082 1.382-.174 1.537-.447 1.628.139-2.211-.282-6.462.224-7.327-.02 1.154-.036 2.304.223 2.44-.161-2.485.228-2.966.222-4.882-.325-1.891-.706 1.59-.669-1.63-.083-2.347-.091-4.619-.069-6.825-.067-2.236.643-4.412 1.846-6.129 1.232-1.706 2.903-3 4.763-3.731.922-.391 1.899-.609 2.879-.731.992-.119 1.949-.137 2.912-.246 11.212.191 20.193.21 31.753.223.659-.042.812-.223 1.626-.223.034-.59-.598-.242-1.626-.223"/>
      <path fill="#31843F" d="M272.0207 197.6729c-.596.208-1.481.338-2.443.445 1.13.438 6.908.273 8.141 0v-.222c-3.156.177-4.113.335-5.698-.223M384.6437 209.7832c-.007-.554.015-1.063-.016-1.651-.008-.587-.088-1.166-.189-1.745a11.1121 11.1121 0 0 0-1.228-3.272c-1.152-2.041-3.006-3.648-5.148-4.586-.816-.318-1.657-.598-2.529-.714-.675-.095-1.732-.121-1.744.08 1.426-.05 3.033.253 4.499.964 1.467.703 2.817 1.762 3.804 3.053.998 1.283 1.671 2.742 2.031 4.14.377 1.405.382 2.745.52 3.731M384.6437 212.2256c-.05-.632-.007-1.606-.223-1.629.05.634.006 1.609.223 1.629M384.4211 218.7393c.619-3.891-.73-1.972 0 0M286.0563 252.7881c-4.318-.242-.961.676 0 0M302.9606 198.1182c3.047-.041 6.044.389 8.955-.223h-14.657c-5.261.014-10.599-.227-12.21.446 7.374.156 12.986-.155 17.912-.223"/>
      <path fill="#31843F" d="M374.5802 198.8243c-.405-.146.602-.251.814-.128.384.188-.604.166-.814.128m-2.417-.037c.023-.218.996-.173 1.627-.223-.021.217-.996.173-1.627.223m-17.912-.223c2.465-.513 8.396-.079 12.213-.223-2.466.514-8.398.079-12.213.223m2.443.446c-.139-.484 2.887-.101 4.071-.223h4.07c-1.128.508-5.666.083-8.141.223m-8.141-.223c-.422-.115.589-.284.813-.223.422.114-.588.284-.813.223m35.356 8.546c.099 1.095.057 2.179.067 3.263-.064 1.457.209 1.67.222.818-.016-1.08-.033-2.126-.048-3.14-.016-1.045-.227-2.042-.511-2.977-.307-.934-.747-1.784-1.246-2.565-.538-.753-1.109-1.461-1.784-2.033-1.311-1.189-2.879-1.943-4.463-2.347-.396-.109-.803-.149-1.2-.225-.401-.031-.809-.063-1.199-.078-.769-.014-1.528-.028-2.281-.041-6.029-.106-11.688-.174-18.844.11.453 0 .924.181 0 .223.001.125-.659.254-.813 0-1.231-.249-2.578-.227-4.072-.223-12.235.038-29.761-.013-40.708.446h-12.212c-2.941-.161-2.946.384 0 .223h5.698c8.796-.118 19.39.255 26.869-.223 1.247-.101 2.509.401 4.072.446 1.354.04 3.286-.259 4.885-.223 3.599.079 7.491.397 11.396.446 1.269.015 2.781-.228 4.072-.223 5.467.021 12.166.551 16.283.223-.948.035-1.449-.05-1.628-.223-.983.022-.501-.324 0 0h4.477c1.484.027 3.025-.079 4.384.126.551.049.65-.07.776-.208.122-.126.278-.272.928-.07.28.32.54.595 1.305 1.039.475-.027 1.642.576 2.615 1.645 1.001 1.045 1.743 2.474 2.171 3.474.306.019.67 1.353.789 2.317M378.0695 251.879c-.209-.246-.975.091-1.336.316-.38.176-.251.449 1.336-.316M294.1979 252.7881c.227.061 1.235-.107.815-.223-.225-.062-1.236.106-.815.223M286.0563 252.5655v.223c4.649.156 4.649-.379 0-.223M277.7189 198.1182c.966.678 4.322-.24 0 0M284.2345 198.1182c-5.216-.257-1.79.681 0 0"/>
      <path fill="#31843F" d="M352.6217 198.1182c-.69-.041-.766.088-.812.223h.812v-.223zM293.3839 252.1192c-1.242-.024-9.76-.303-7.328.446-1.044-.226 12.402-.343 7.328-.446M383.9757 230.1377c.187-4.471-.159-9.399-.224-13.027-.04-2.262.374-7.057-.445-7.327-.047 5.239.343 6.842 0 11.399.259-.134.397.18.445.813-.387-.3-.41.641-.445 1.63-.091 2.524.343 6.117.223 10.584.331-.69.321-2.621.446-4.072M305.5978 252.1192c-.225-.062-1.235.108-.814.223.225.061 1.233-.108.814-.223M302.341 252.1192c-.227-.062-1.237.108-.815.223.222.061 1.234-.108.815-.223M299.8976 252.1192c-.227-.062-1.236.108-.815.223.228.061 1.234-.108.815-.223M297.4562 252.1192c-.633.05-1.61.006-1.629.223.631-.05 1.604-.005 1.629-.223M224.5373 238.5762v-8.955c-.509-2.071.064 6.698-.445 7.326.241.203.151 1.621.445 1.629M224.3146 225.5508c-.138-1.185-.27.082 0 0M282.6051 198.7872c1.184-.138-.082-.27 0 0M284.2345 198.7872c1.431-.128 4.781.269 4.884-.223h-2.441c-.96.036-2.313-.038-2.443.223M289.9308 198.7872c.634-.05 1.61-.006 1.631-.223-.633.05-1.608.005-1.631.223M383.1198 205.0166c-.55-1.027-.832-1.215-.815-1.032-.006.196.256.777.481 1.51.528 1.438.587 3.542.966 3.476-.01-1.016-.169-1.619-.316-2.156-.055-.273-.138-.522-.19-.805-.041-.287-.081-.599-.126-.993M269.7741 251.8965c-.225-.062-1.235.108-.814.223.225.061 1.235-.107.814-.223M260.005 251.8965c-.225-.062-1.235.108-.813.223.224.061 1.232-.107.813-.223M258.3737 251.8965c-.223-.062-1.233.108-.812.223.224.061 1.233-.107.812-.223M224.547 242.6348c-.057-1.193.074-2.998-.232-3.244.042 1.214-.09 3.014.232 3.244M224.3146 222.292c-.213 3.384.667.166 0 0M271.2072 199.0098c.632-.05 1.606-.006 1.629-.223-.633.05-1.606.006-1.629.223M277.7189 199.0098c.632-.05 1.608-.006 1.629-.223-.633.05-1.604.006-1.629.223M282.6051 198.7872c-1.185.138.083.269 0 0M381.6471 203.129c.171-.169-.281-.89-1.006-1.58-.72-.704-1.731-1.271-2.307-1.651-.067.239.642.633 1.414 1.222.772.586 1.567 1.414 1.899 2.009M383.5294 234.21c-.323.502.022.983 0 0M285.2428 251.6729c-.225-.061-1.237.108-.814.224.225.061 1.235-.107.814-.224M240.4635 250.1143c-.225-.062-1.235.107-.813.223.225.061 1.233-.108.813-.223M381.0793 242.3516c.061-.227-.108-1.239-.223-.813-.061.222.107 1.232.223.813M293.3839 249c-.225-.062-1.235.108-.813.223.224.062 1.232-.107.813-.223"/>
      <path fill="#B5E1B9" d="M383.8634 232.9239c0 5.5-4.5 10-10 10h-139.883c-5.5 0-10-4.5-10-10v-34c0-5.5 4.5-10 10-10h139.883c5.5 0 10 4.5 10 10v34z"/>
      <path fill="#31843F" d="M387.3166 202.6963c.062-.223-.107-1.233-.223-.812-.061.223.107 1.233.223.812M328.3922 246.1543c.225.062 1.235-.107.814-.223-.225-.061-1.233.107-.814.223M277.7189 186.3624c-.225-.062-1.235.107-.812.223.225.06 1.237-.109.812-.223M379.5768 243.3438c.266-.084 1.192-.854.703-.688-.25.09-1.182.834-.703.688M351.1901 244.8174c.225.062 1.233-.107.814-.223-.227-.061-1.235.108-.814.223"/>
      <path fill="#31843F" d="M317.8078 243.0362c-.13.26-1.485.187-2.441.223.132-.262 1.484-.19 2.441-.223m20.355 0c-.182-.175-.68-.26-1.629-.224.99-.672 3.251.119 3.256.447 1.432-.129 4.787.268 4.885-.223 3.528.485-4.84.713-4.885.223h-4.07c-2.588-.188 1.445-.294 2.443-.223m3.257-.446c.419.115-.589.284-.814.222-.421-.114.589-.284.814-.222m4.884 0c-.021.217-.997.173-1.629.222.025-.216.998-.172 1.629-.222m8.14 1.337c.423.115-.586.284-.812.222-.421-.115.589-.284.812-.222m0-.446c.423.116-.586.284-.812.223-.421-.116.589-.285.812-.223m1.631.446c.42.115-.589.284-.817.222-.42-.115.592-.284.817-.222m-63.504-.223c6.741.019 13.082-.386 19.537-.223 3.252.082 7.406.571 12.214.668 4.641.095 9.403-.074 13.026.446.289-.318 4.148-.762 4.885-.223-1.152-.02-2.305-.037-2.443.223 3.32.184 2.804.034 6.514 0-.001-.124.661-.253.814 0h-.814v.222c4.14.037 4.492-.058 1.629-.445h8.142c5.798-.686 9.607-.232 16.28-.445.135-.26-.178-.397-.813-.446.366.364-4.437.364-4.071 0h4.071v-.222c-.984.022-.5-.325 0 0 1.506-.025 2.739-.148 3.245-.494-3.969-.252-5.87.58-7.316.271-4.358.37-14.367.37-18.724 0h18.724c-.978-.37-4.297-.451-4.886-.446-.605.006-.876.276-1.624.222-.241-.016-.016-.227-.818-.222-.608.003-.87.276-1.625.222-.253-.018.019-.243-.817-.222-2.927.075-1.112.148-4.069-.223-7.738.185-18.414-.435-23.611.445v.224c2.389.33 3.024-.252 4.071.445-2.742-.141-7.563.287-8.955-.222-1.486.409-4.564.117-5.701-.223 3.578.297 6.729-.668 8.956 0-1.217.037-3.003-.08-3.255.223 1.43-.129 4.783.268 4.884-.223-.453 0-.925-.181 0-.224-3.633-.623-11.956.089-14.654-.222-.884.054-.552.442-1.629.446-.363-.199-.716-.399-1.63-.446-.355.274-1.04.458-2.443.446-5.557.136-7.092.296-13.024 0 .394.701-3.733.166-4.07.668M222.5426 233.1436c-.06.268.198 1.4.27.91.045-.252-.177-1.384-.27-.91M228.8923 242.417c-1.843-.952-2.336-1.538-2.373-1.465-.023.044.514.58 1.22 1.072.359.234.749.469 1.104.648.363.165.679.298.875.365.411.093.283.034-.826-.62M282.7995 243.2588c-1.767.407-6.666-.043-8.141.445 1.804.219 5.393.016 5.698 0 .889-.049 10.231.678 8.143 0-2.193-.095-8.302.293-5.7-.445M260.817 243.4815h-18.724c5.306.291 15.328.51 18.724 0M384.4157 233.0303c-.073.233.039 1.317.178.879.076-.242-.041-1.327-.178-.879M383.817 236.4014c-.358 1.072-1.049 2.347-1.641 2.979-.58.647-.839.762-.354-.251-.852 1.188-1.285 1.502-1.67 1.829-.412.3-.776.672-2.083 1.391-.122.277.475.213 1.339-.224.868-.42 1.973-1.252 2.791-2.28 1.694-2.066 2.058-4.554 1.618-3.444M376.5402 243.1231c-.234.026-1.26.371-.8.406.264.054 1.265-.421.8-.406"/>
      <path fill="#31843F" d="M373.1691 243.7041c.212.072 1.259-.125.822-.229-.238-.05-1.24.11-.822.229M290.9411 243.7041c.225.062 1.233-.107.813-.223-.224-.062-1.234.107-.813.223M264.0719 243.7041c3.009-.143 8.113.288 9.771-.223-3.007.143-8.107-.289-9.771.223M261.6344 243.7041c.225.062 1.233-.107.81-.223-.225-.062-1.235.107-.81.223"/>
      <path fill="#31843F" d="M224.092 209.5079c-.115.42-.284-.589-.224-.813.116-.422.286.588.224.813m43.86-21.142c-5.479.111-11.697.165-18.333.186-3.318.003-6.739.005-10.225.008-1.743-.003-3.502-.007-5.272-.011-1.822-.013-3.692.44-5.297 1.371-.816.446-1.538 1.044-2.215 1.682-.644.672-1.231 1.404-1.692 2.218-.925 1.616-1.407 3.51-1.378 5.357-.019 3.58-.037 7.143-.054 10.65-.022 7.014-.043 13.799-.063 20.035l-.006 2.654c-.013.425.022.897.039 1.346.044.45.108.898.196 1.335.391 1.744 1.166 3.365 2.283 4.663 1.109 1.298 2.485 2.345 4.028 2.987.772.31 1.568.573 2.39.69.81.158 1.673.153 2.411.167.391.004.653-.503 1.627-.445 0 0 .408.709 1.63.445.155-.253.817-.124.815 0 1.458.028 1.717-.272 3.257-.222 8.804-.317 25.559-.265 36.636-.446 1.278-.021 5.277.31 4.884-.446-10.023.275-22.667.413-35.336.44-3.168 0-6.337.001-9.467.001-1.566-.004-3.121-.009-4.661-.014-1.554.019-3.094-.339-4.456-1.001-2.754-1.305-4.722-3.858-5.376-6.59-.362-1.367-.3-2.756-.282-4.094.019-1.342.038-2.648.057-3.914-.428-2.984.097-4.279-.224-8.139.329-.005 1.12-2.267.447-3.257.082 1.382-.174 1.537-.447 1.628.139-2.212-.282-6.462.224-7.327-.02 1.154-.036 2.304.223 2.44-.161-2.485.228-2.966.222-4.883-.325-1.89-.706 1.591-.669-1.629-.083-2.347-.091-4.619-.069-6.825-.067-2.237.643-4.412 1.846-6.13 1.232-1.705 2.903-2.999 4.763-3.73.922-.391 1.899-.609 2.879-.732.992-.119 1.949-.137 2.912-.245 11.212.191 20.193.21 31.753.223.659-.042.812-.223 1.626-.223.034-.59-.598-.242-1.626-.223"/>
      <path fill="#31843F" d="M272.0207 188.1436c-.596.208-1.481.338-2.443.445 1.13.438 6.908.273 8.141 0v-.222c-3.156.177-4.113.335-5.698-.223M384.6437 200.253c-.007-.553.015-1.062-.016-1.65-.008-.587-.088-1.166-.189-1.745a11.1121 11.1121 0 0 0-1.228-3.272c-1.152-2.041-3.006-3.648-5.148-4.586-.816-.318-1.657-.598-2.529-.714-.675-.095-1.732-.121-1.744.08 1.426-.05 3.033.253 4.499.964 1.467.703 2.817 1.762 3.804 3.053.998 1.282 1.671 2.742 2.031 4.14.377 1.405.382 2.745.52 3.73M384.6437 202.6963c-.05-.632-.007-1.606-.223-1.63.05.635.006 1.61.223 1.63M384.4211 209.21c.619-3.891-.73-1.972 0 0M286.0563 243.2588c-4.318-.242-.961.676 0 0M302.9606 188.5889c3.047-.041 6.044.389 8.955-.223h-14.657c-5.261.014-10.599-.227-12.21.446 7.374.156 12.986-.155 17.912-.223"/>
      <path fill="#31843F" d="M374.5802 189.294c-.405-.146.602-.251.814-.127.384.188-.604.166-.814.127m-2.417-.036c.023-.218.996-.173 1.627-.223-.021.217-.996.173-1.627.223m-17.912-.223c2.465-.513 8.396-.079 12.213-.223-2.466.514-8.398.079-12.213.223m2.443.446c-.139-.484 2.887-.101 4.071-.223h4.07c-1.128.508-5.666.083-8.141.223m-8.141-.223c-.422-.115.589-.284.813-.223.422.114-.588.284-.813.223m35.356 8.546c.099 1.094.057 2.179.067 3.262-.064 1.457.209 1.671.222.819-.016-1.08-.033-2.126-.048-3.14-.016-1.045-.227-2.042-.511-2.977-.307-.934-.747-1.784-1.246-2.565-.538-.753-1.109-1.461-1.784-2.034-1.311-1.188-2.879-1.942-4.463-2.346-.396-.109-.803-.149-1.2-.225-.401-.031-.809-.063-1.199-.078-.769-.014-1.528-.028-2.281-.041-6.029-.106-11.688-.174-18.844.11.453 0 .924.181 0 .223.001.125-.659.253-.813 0-1.231-.249-2.578-.227-4.072-.223-12.235.038-29.761-.013-40.708.446h-12.212c-2.941-.161-2.946.384 0 .223h5.698c8.796-.118 19.39.255 26.869-.223 1.247-.101 2.509.401 4.072.446 1.354.04 3.286-.259 4.885-.223 3.599.079 7.491.397 11.396.446 1.269.015 2.781-.228 4.072-.223 5.467.021 12.166.551 16.283.223-.948.035-1.449-.05-1.628-.223-.983.022-.501-.324 0 0h4.477c1.484.027 3.025-.08 4.384.125.551.05.65-.069.776-.208.122-.125.278-.271.928-.069.28.32.54.595 1.305 1.039.475-.027 1.642.575 2.615 1.645 1.001 1.044 1.743 2.473 2.171 3.474.306.019.67 1.353.789 2.317M378.0695 242.3497c-.209-.246-.975.091-1.336.316-.38.176-.251.449 1.336-.316M294.1979 243.2588c.227.061 1.235-.107.815-.223-.225-.062-1.236.106-.815.223M286.0563 243.0362v.223c4.649.156 4.649-.379 0-.223M277.7189 188.5889c.966.678 4.322-.24 0 0M284.2345 188.5889c-5.216-.257-1.79.681 0 0"/>
      <path fill="#31843F" d="M352.6217 188.5889c-.69-.041-.766.088-.812.223h.812v-.223zM293.3839 242.5899c-1.242-.024-9.76-.303-7.328.446-1.044-.226 12.402-.343 7.328-.446M383.9757 220.6084c.187-4.471-.159-9.399-.224-13.027-.04-2.262.374-7.057-.445-7.328-.047 5.24.343 6.843 0 11.4.259-.134.397.18.445.813-.387-.3-.41.641-.445 1.63-.091 2.523.343 6.117.223 10.584.331-.69.321-2.622.446-4.072M305.5978 242.5899c-.225-.062-1.235.108-.814.223.225.061 1.233-.108.814-.223M302.341 242.5899c-.227-.062-1.237.108-.815.223.222.061 1.234-.108.815-.223M299.8976 242.5899c-.227-.062-1.236.108-.815.223.228.061 1.234-.108.815-.223M297.4562 242.5899c-.633.05-1.61.006-1.629.223.631-.05 1.604-.005 1.629-.223M224.5373 229.0469v-8.955c-.509-2.071.064 6.697-.445 7.326.241.203.151 1.62.445 1.629M224.3146 216.0215c-.138-1.186-.27.082 0 0M282.6051 189.2579c1.184-.138-.082-.27 0 0M284.2345 189.2579c1.431-.128 4.781.269 4.884-.223h-2.441c-.96.036-2.313-.038-2.443.223M289.9308 189.2579c.634-.05 1.61-.006 1.631-.223-.633.05-1.608.005-1.631.223M383.1198 195.4874c-.55-1.028-.832-1.215-.815-1.032-.006.196.256.777.481 1.51.528 1.438.587 3.541.966 3.476-.01-1.016-.169-1.619-.316-2.157-.055-.272-.138-.521-.19-.804-.041-.287-.081-.599-.126-.993M269.7741 242.3672c-.225-.062-1.235.108-.814.223.225.061 1.235-.107.814-.223M260.005 242.3672c-.225-.062-1.235.108-.813.223.224.061 1.232-.107.813-.223M258.3737 242.3672c-.223-.062-1.233.108-.812.223.224.061 1.233-.107.812-.223M224.547 233.1055c-.057-1.193.074-2.998-.232-3.244.042 1.214-.09 3.014.232 3.244M224.3146 212.7627c-.213 3.384.667.166 0 0M271.2072 189.4805c.632-.05 1.606-.006 1.629-.223-.633.05-1.606.006-1.629.223M277.7189 189.4805c.632-.05 1.608-.006 1.629-.223-.633.05-1.604.006-1.629.223M282.6051 189.2579c-1.185.138.083.269 0 0M381.6471 193.5997c.171-.169-.281-.89-1.006-1.581-.72-.704-1.731-1.27-2.307-1.65-.067.239.642.633 1.414 1.222.772.586 1.567 1.413 1.899 2.009M383.5294 224.6807c-.323.502.022.983 0 0M285.2428 242.1436c-.225-.061-1.237.108-.814.224.225.061 1.235-.107.814-.224M240.4635 240.585c-.225-.062-1.235.107-.813.223.225.061 1.233-.108.813-.223M381.0793 232.8223c.061-.227-.108-1.239-.223-.814-.061.223.107 1.233.223.814M293.3839 239.4707c-.225-.062-1.235.108-.813.223.224.062 1.232-.107.813-.223"/>
      <path fill="#ECF7ED" d="M304.2829 197.5206c3.212 0 6.174.715 8.888 2.142 2.713 1.428 4.961 3.41 6.746 5.943 1.784 2.535 2.891 5.337 3.32 8.406h5.782l-9.637 10.922-9.638-10.922h6.425c-.642-2.784-2.071-5.068-4.283-6.853-2.213-1.784-4.749-2.678-7.603-2.678-1.928 0-3.748.447-5.461 1.339-1.714.893-3.143 2.088-4.284 3.587l-4.605-5.354c1.785-2.069 3.926-3.676 6.426-4.819 2.498-1.141 5.14-1.713 7.924-1.713m-1.071 36.837c-3.142 0-6.087-.713-8.834-2.142-2.749-1.426-5.016-3.408-6.8-5.943-1.785-2.533-2.892-5.335-3.32-8.406h-5.783l9.638-10.923 9.638 10.923h-6.425c.642 2.784 2.07 5.069 4.283 6.853 2.212 1.786 4.747 2.677 7.603 2.677 1.927 0 3.748-.445 5.462-1.338 1.713-.892 3.14-2.088 4.283-3.588l4.604 5.355c-1.785 2.071-3.926 3.677-6.424 4.819-2.5 1.143-5.141 1.713-7.925 1.713"/>
      <path fill="#31843F" d="M294.2272 196.4268c-.097-.021-.329.287-.147.324.095.021.327-.285.147-.324M322.2521 203.3223c.006-.1-.337-.27-.343-.086-.001.094.332.27.343.086M310.1003 209.0157c.002.081.298.093.291-.058-.006-.081-.301-.095-.291.058M307.6818 195.8858c-.062-.074-.407.048-.29.182.062.067.404-.046.29-.182M315.9103 199.0899c-.027-.092-.388-.129-.338.042.026.091.386.128.338-.042"/>
      <path fill="#31843F" d="M321.3864 207.8086c.251-.088.367.306.521.547-.257.078-.356-.315-.521-.547m-3.508-4.812c-.087.162-.046.324.171.497-.678.258-.572-.748-.358-.993-.385-.202-.887-1.156-1.227-.791-.51-1.058 1.583.393 1.227.791.291.279.575.566.846.864.377.689-.499-.118-.659-.368m-.992-.331c-.012-.167.318-.095.325-.005.011.164-.319.093-.325.005m-1.07-.904c.139-.168.332.045.506.121-.144.163-.333-.047-.506-.121m-1.244-2.463c-.055-.164.302-.153.329-.06.05.166-.301.145-.329.06m-.228.383c-.052-.163.299-.155.325-.063.047.166-.299.148-.325.063m-.206-.634c-.056-.165.299-.158.329-.067.054.165-.299.153-.329.067m9.983 14.184c-.298-.003-.595.004-.884.016l.755.659c-.314-1.694-.997-3.184-1.49-4.749-.291-.925-.406-2.295-1.145-3.608-.711-1.269-1.766-2.291-2.192-3.467-.292.138-1.451-.36-1.269-.907.258.256.509.516.718.361-.651-.852-.628-.643-1.566-1.356-.076.098-.32.074-.206-.156l.206.156.137-.176c-1.047-.832-1.195-.792-.682.042-.686-.507-1.404-.97-2.146-1.387-1.903-.253-2.784-1.138-4.851-1.487-.105.241-.047.398.125.493-.013-.392 1.402.043 1.169.364a20.236 20.236 0 0 0-1.169-.364l-.059.214c.286.061.054.354 0 0-.444-.087-.821-.055-1.037.205 1.032.588 1.807-.083 2.119.366.666.028 1.702.346 2.651.842.951.495 1.803 1.162 2.21 1.689-1.488-1.07-3.128-1.93-4.861-2.531.155.439 1.005.86 1.158.931.161.063.345-.151.519-.01.056.045-.092.208.118.301.158.073.346-.135.519.011.056.051-.116.212.105.306.771.337.363.023.898.769.989.493 1.986 1.363 2.854 2.204.877.839 1.645 1.639 2.452 1.967l.177-.137c-.179-.762-.75-.524-.426-1.215.44.692 1.651 1.612 1.449 2.254.591.142.831 1.101.684 1.555-.264-1.089-1.579-1.31-1.418-2.213.245.266.441.765.734.658-.332-.28-.611-1.318-1.023-1.039.081.106.021.325-.177.137.079.606.591 1.278 1.07 1.953.482.67.931 1.341.955 1.758.157.206.467-.041.601.246-.138.177-.281.35-.225.609.293-.01.541.108.673.5.655 1.491.941 1.929.95 3.699.255-.085.365.047.431.248l-.495-.431c.333-.057.823.032.884-.28M316.86 224.2647c-.001.09.319.2.325.031.002-.09-.32-.199-.325-.031M320.5763 224.7598c-1.209 1.92 1.185-.81 0 0M326.9748 213.6768c.421-.333 1.454-.094 2.044-.261l1.098-.31-.651 1.3c-.065.13-.096.253-.081.372.09-.045.182-.11.279-.198l1.307-1.163-1.952-.265c-.535-.074-1.257.067-1.331.08-.259.049-2.987-.678-2.378 0 .641.095 2.425-.293 1.665.445M326.5436 217.6602l-3.618 4.1c1.243-.969 3.344-3.019 3.618-4.1M304.3131 196.9629c.067.063.373-.102.247-.219-.068-.062-.373.102-.247.219M305.2892 196.9883c.644.027 1.626.011.934.511.865-.104.586.029 1.458-.034.201-.405-.559-.649-1.297-.69-.738-.047-1.421.097-1.095.213M308.1999 197.3331c.054.073.387-.034.286-.172-.056-.073-.39.034-.286.172"/>
      <path fill="#31843F" d="M309.2106 197.3272c-.053-.08-.391.019-.292.158.051.073.387-.014.292-.158M324.5973 213.2315c-.065-.062-.36.107-.237.223.065.062.36-.107.237-.223M327.339 217.0948c.475-.753 1.784-1.585 1.721-2.286-.474.752-1.783 1.584-1.721 2.286M326.8683 217.629c.089-.009.158-.342-.01-.325-.091.008-.159.341.01.325"/>
      <path fill="#31843F" d="M313.4684 218.0635c-.005.169-.327.06-.325-.029.005-.169.327-.061.325.029m-.183-8.747c1.115 1.161 2.066 2.826 2.525 4.777l.359-.451c-2.05.019-4.228-.001-6.425-.032l-.883-.013.582.68c2.581 3.012 5.172 6.098 7.456 8.685.76.863 1.429 1.69 1.99 2.406l.44.56.544-.56 1.803-1.857c.079-.083-.25-.475-.019-.65 0 0 .61.38.649-.063-.16-.201.065-.26.157-.178.302-.301.128-.556.463-.861 1.351-1.973 4.249-5.223 6.206-7.649l.212-.263-.325.014c-.352.015-.609.027-.856.038-.373.021-1.541-.31-1.426.446a60.753 60.753 0 0 1 2.282-.172l-.122-.269c-2.668 3.464-6.296 7.641-9.484 11.057l-.033.037-.031-.037c-.886-1.061-1.697-2.058-2.421-2.976-.898-.37-.754-1.001-1.74-1.634.245-.219.401-1.237-.295-1.009.329.249.167.451-.02.652-.323-.576-1.46-1.228-1.247-1.752.208.265.418.528.638.386-.601-.437-.402-.799-.776-1.215-.609-.2-.223.815-.817.086-1.226-1.091-2.054-2.366-2.951-3.467l-.044-.055.068.003c.974.039 1.908 0 2.818-.304 1.274.075 2.448.122 3.607.155l-.176.22c-.365-1.756-1.072-3.431-2.364-5.018-.157-.118-.322-.034-.472-.209-.446.386-.075.285.128.492M312.3644 208.6368c.266-.035.526.06.793.187.138-.554-1.239-1.607-1.696-1.571l-.136.177c.798.406 1.122.504 1.039 1.207M294.7614 199.1622a19.4202 19.4202 0 0 0-3.262 2.238c-.189.16-.376.324-.557.492-.111.165-.35.341-.206.5 1.075-1.289 3.19-2.221 4.025-3.23M295.4196 198.8194c-.149.13-.432.227-.336.423.144-.136.428-.225.336-.423M297.3102 198.2334c-1.32-.139-.275.892 0 0M326.0236 213.6768c1.261.242.281-.676 0 0M304.8439 204.8282c-.845.002-1.778-.372-2.496.375 1.156-.224 2.712-.217 4.066.021 1.473.235 2.691 1.075 3.404.705-1.851-1.138-3.603-1.103-4.974-1.101"/>
      <path fill="#31843F" d="M291.5246 202.8711c-.168 0-.071-.324.021-.322.167.004.066.322-.021.322m-.5.491c-.15-.157.078-.328.177-.488.145.159-.087.322-.177.488m1.583 3.629c-.858-.21-1.658-1.807-2.495-2.558.86.21 1.659 1.808 2.495 2.558m-.127-.831c-.34.346-.626-.573-.944-.756l-.775-.901c.599-.081 1.141 1.2 1.719 1.657m1.381 1.947c-.007.169-.328.056-.324-.034.007-.168.328-.056.324.034m.597-8.005c.274-.161.552-.318.833-.466.407-.142.344-.411.111-.31-2.637 1.571-4.352 2.851-5.849 4.399l-.283.293.283.362c.857 1.092 1.765 2.145 3.026 3.263-.086-.1-.039-.323.169-.145.094-.082.318-.02.154.18.046.435.32.718.607 1.047.24.274.49.56.782.894l.268.307.237-.323c.989-1.336 2.447-2.618 4.071-3.521 1.61-.927 3.362-1.432 4.798-1.696.639-.032 1.278-.012 1.916.049.556.054 1.11.144 1.654.28.79.377.955-.143.053-.217-.555-.138-1.119-.229-1.685-.284-1.311-.073-2.776-.079-4.156.241-1.377.306-2.635.921-3.448 1.7-.256.274-.845.058-1.261.309-.361.216-.625.815-.994 1.113-.547.44-1.163.887-1.725 1.435l1.013-.031c-.208-.336-.43-.671-.677-.984-.231-.29-.703-.466-.945-.756-1.006-1.202-1.866-2.987-2.873-3.708v1.04c.011-.023.021-.042.031-.061-.015.02-.028.04-.039.054l.001-1.027c.161.17.178.319.09.458.204.203-.15.322 0 0l-.265-.308v.727c.467-.541.965-1.056 1.491-1.539.214-.26-.39-.55-.096-.812.213.081.417.164.649.035-.135-.563 1.11-.984 1.572-1.43-.113-.241.263-.393.487-.568M307.6813 197.4649c-.068.659 1.023-.027 0 0M323.6466 213.6768c-.066-.061-.361.107-.238.223.065.062.361-.106.238-.223M326.0236 213.8995v-.223c-1.357-.156-1.357.379 0 .223M311.4611 207.253c.186-.719-1.137-.532 0 0M309.9176 206.2344c1.14.982.794-.329 0 0"/>
      <path fill="#31843F" d="M292.5797 207.6436c.101.18.212.112.323.034l-.154-.18-.169.146zM323.8839 214.3457c.363.024 2.85.303 2.14-.446.305.226-3.621.343-2.14.446M300.6862 197.7393c-1.341.054-2.644.829-3.578 1.293-.589.264-2.039.535-1.707 1.304 1.326-.642 1.618-1.181 2.957-1.297-.119-.232-.079-.395.081-.495.039.396.3.331.579.286.699-.112 1.603-.79 2.905-.831-.238-.309-.796-.215-1.237-.26M322.3004 211.2559c-.039.078.2.312.278.164.044-.081-.202-.313-.278-.164M322.5421 212.1582c-.043.076.189.32.273.178.044-.078-.19-.324-.273-.178M322.6964 212.8418c-.044.075.173.329.264.187.05-.078-.177-.329-.264-.187M322.8249 213.5313c.077.172.076.455.292.431-.078-.174-.076-.46-.292-.431M317.5773 222.0479l-1.73-1.961c-.782-.117 1.341 1.425 1.081 1.899.22-.116.427.254.649.062M314.8937 219.3428c-.332-.168-.186.196 0 0M310.6642 205.8946c-.375-.062-.118.243 0 0M310.2414 205.6485c-.417-.108-1.19-.871-1.406-.425.219.097.444.184.657.292.275.086.587.344.749.133M308.6896 204.9317c-.194-.024-.458-.158-.532.047.196.007.448.154.532-.047M293.9713 200.67c-.825 1.161 1.405-.017 1.011-.611-.503.316-.409.721-1.011.611M327.4381 214.962c-.089.009-.157.342.01.325.09-.008.158-.341-.01-.325M325.5509 217.1006c-.089.009-.157.343.01.326.09-.009.158-.341-.01-.326M325.236 217.4581c-.089.008-.157.342.01.325.089-.008.158-.341-.01-.325M318.3634 222.9385c-.264-.241-.521-.71-.796-.565.264.242.52.711.796.565M314.2643 218.629c.494.882.532-.404 0 0M313.484 207.8672c-.169-.104-.352-.342-.506-.19.169.098.347.332.506.19M312.0065 206.5469c-.18-.08-.396-.288-.528-.114.187.066.389.281.528.114M310.6642 205.8946c.379.065.119-.242 0 0M293.6398 201.4307c-.312-.388-.856.501-1.24.669.33.356.824-.541 1.24-.669M301.923 197.9991c.181.305.277-.056 0 0M326.2614 214.792c.065.061.361-.108.238-.224-.066-.061-.361.107-.238.224M320.4396 220.2002c-.09.009-.158.342.009.325.09-.008.158-.341-.009-.325M304.2575 200.3047c-.058-.06-.31.111-.202.226.056.061.306-.112.202-.226M323.8839 217.4649c.066.062.361-.108.238-.223-.066-.062-.36.107-.238.223M313.2658 235.4522c.097.021.33-.287.148-.324-.095-.021-.328.285-.148.324M285.236 228.5459c-.006.101.337.271.343.088.001-.096-.332-.271-.343-.088M297.3976 222.8653c-.002-.081-.298-.094-.291.057.006.081.302.096.291-.057M299.8063 235.9825c.062.074.407-.045.29-.179-.061-.071-.404.044-.29.179M291.5929 232.7735c.027.092.389.127.338-.044-.026-.091-.387-.126-.338.044"/>
      <path fill="#31843F" d="M286.1032 224.0616c-.251.087-.367-.307-.521-.548.257-.077.357.316.521.548m3.509 4.811c.087-.163.045-.324-.172-.497.677-.259.574.748.361.992.384.202.89 1.153 1.228.788.514 1.056-1.584-.389-1.228-.788-.292-.278-.577-.565-.849-.863-.378-.688.499.119.66.368m.992.328c.013.167-.317.096-.324.007-.012-.166.318-.095.324-.007m1.073.9c-.138.168-.331-.044-.506-.119.142-.163.333.045.506.119m1.253 2.459c.054.165-.302.153-.329.062-.05-.168.3-.147.329-.062m.226-.384c.052.164-.298.156-.324.065-.047-.167.297-.149.324-.065m.208.633c.056.165-.297.158-.328.068-.055-.164.299-.155.328-.068m-10-14.162c.302.003.601-.004.894-.018l-.756-.657c.315 1.69.994 3.178 1.485 4.74.291.925.406 2.296 1.145 3.609.709 1.268 1.765 2.292 2.195 3.467.292-.138 1.451.358 1.272.906-.259-.256-.51-.515-.72-.36.654.852.631.642 1.571 1.352.075-.097.32-.075.207.156l-.207-.156-.136.177c1.05.829 1.198.787.683-.045.688.505 1.407.966 2.15 1.381 1.898.245 2.776 1.13 4.839 1.489.107-.242.049-.395-.121-.494.01.39-1.402-.046-1.167-.368.385.135.775.257 1.167.368l.06-.215c-.286-.06-.053-.353 0 0 .443.09.82.061 1.037-.199-1.029-.591-1.807.076-2.117-.374-.666-.032-1.7-.351-2.65-.845-.949-.493-1.805-1.154-2.215-1.68 1.494 1.063 3.135 1.917 4.865 2.525-.155-.438-1.002-.865-1.157-.935-.161-.06-.343.15-.518.01-.056-.045.092-.208-.119-.301-.156-.074-.346.136-.518-.011-.057-.05.114-.211-.107-.305-.773-.333-.362-.024-.901-.766-.991-.488-1.99-1.357-2.86-2.194-.879-.837-1.647-1.634-2.454-1.963l-.176.137c.178.762.749.524.426 1.215-.442-.691-1.652-1.613-1.45-2.255-.591-.141-.83-1.1-.683-1.554.263 1.089 1.58 1.31 1.418 2.212-.245-.265-.441-.764-.735-.658.333.28.611 1.319 1.024 1.04-.082-.107-.022-.324.176-.137-.078-.606-.59-1.278-1.069-1.953-.482-.67-.931-1.341-.954-1.759-.157-.206-.467.042-.602-.245.138-.177.282-.35.226-.61-.293.011-.541-.108-.673-.5-.654-1.491-.939-1.929-.947-3.699-.252.083-.362-.044-.428-.239l.494.43c-.334.059-.832-.033-.894.281M290.6393 207.6182c.001-.09-.319-.2-.324-.031-.003.09.319.199.324.031M286.9235 207.1133c1.209-1.92-1.185.809 0 0M280.5119 218.2012c-.42.331-1.444.096-2.036.259l-1.101.303.656-1.29c.068-.133.1-.258.085-.378-.093.044-.187.112-.286.202l-1.31 1.174 1.956.256c.534.071 1.249-.068 1.323-.081.259-.049 2.987.678 2.377 0-.64-.095-2.424.293-1.664-.445M280.9567 214.212l3.617-4.1c-1.243.969-3.343 3.019-3.617 4.1M303.1813 234.9151c-.067-.063-.373.101-.247.219.068.062.374-.103.247-.219M302.2047 234.8887c-.644-.029-1.627-.015-.933-.514-.865.1-.586-.029-1.459.03-.202.403.558.65 1.296.694.738.05 1.422-.093 1.096-.21M299.2941 234.5342c-.054-.072-.387.03-.286.17.055.075.389-.033.286-.17"/>
      <path fill="#31843F" d="M298.2838 234.5342c.052.079.39-.015.292-.156-.051-.073-.386.01-.292.156M282.8888 218.6465c.065.062.36-.107.237-.223-.065-.062-.36.107-.237.223M280.1608 214.7774c-.474.753-1.783 1.585-1.72 2.286.473-.753 1.782-1.584 1.72-2.286M280.632 214.2432c-.09.009-.158.341.01.325.091-.008.159-.341-.01-.325"/>
      <path fill="#31843F" d="M294.0304 213.8184c.005-.168.327-.059.325.03-.005.169-.327.06-.325-.03m.181 8.747c-1.117-1.161-2.068-2.828-2.527-4.782l-.359.451c2.05-.018 4.228.002 6.425.033l.884.013-.583-.68c-2.58-3.011-5.169-6.095-7.451-8.68-.762-.865-1.433-1.694-1.995-2.411l-.44-.56-.545.56c-.666.686-1.234 1.271-1.798 1.851-.078.083.251.476.02.651 0 0-.61-.38-.649.062.16.201-.065.261-.158.179-.302.3-.127.555-.462.86-1.352 1.975-4.253 5.228-6.21 7.655l-.212.263.324-.015c.348-.014.603-.026.848-.037.373-.021 1.54.31 1.426-.446-.683.064-1.408.121-2.274.171l.122.271c2.667-3.464 6.295-7.641 9.483-11.058l.034-.037.031.037c.888 1.062 1.7 2.061 2.426 2.981.897.37.753 1.001 1.739 1.634-.245.219-.401 1.237.295 1.009-.329-.249-.167-.452.02-.652.323.576 1.46 1.228 1.248 1.751-.208-.264-.418-.528-.638-.386.601.438.402.799.775 1.216.61.199.223-.815.817-.086 1.224 1.089 2.051 2.362 2.947 3.462l.044.055-.068-.003c-.976-.039-1.911 0-2.824.304-1.271-.074-2.444-.122-3.601-.154l.176-.221c.365 1.758 1.072 3.434 2.366 5.022.157.118.322.034.472.209.446-.386.075-.285-.128-.492M295.133 223.2442c-.266.036-.526-.059-.793-.187-.138.556 1.239 1.607 1.697 1.571l.136-.177c-.798-.407-1.123-.504-1.04-1.207M312.7326 232.7159a19.2754 19.2754 0 0 0 3.262-2.237c.189-.16.376-.324.557-.492.111-.165.35-.341.206-.5-1.075 1.289-3.19 2.221-4.025 3.229M312.0744 233.0596c.149-.131.433-.227.336-.423-.144.135-.428.225-.336.423M310.1842 233.6456c1.32.138.275-.893 0 0M281.4626 218.2012c-1.261-.242-.281.676 0 0M302.654 227.0499c.845-.003 1.778.372 2.496-.375-1.155.224-2.712.218-4.066-.021-1.474-.233-2.691-1.072-3.404-.702 1.851 1.137 3.603 1.1 4.974 1.098"/>
      <path fill="#31843F" d="M315.9694 229.0079c.167 0 .071.324-.021.322-.167-.004-.066-.322.021-.322m.5-.491c.15.157-.078.328-.177.488-.145-.159.087-.322.177-.488m-1.582-3.629c.859.211 1.659 1.807 2.496 2.558-.86-.21-1.659-1.808-2.496-2.558m.128.831c.34-.346.626.574.944.756l.775.901c-.599.081-1.141-1.2-1.719-1.657m-1.381-1.947c.007-.168.328-.055.324.035-.007.168-.328.055-.324-.035m-.599 8.004c-.274.162-.551.319-.833.467-.407.141-.344.411-.111.309 2.638-1.57 4.353-2.851 5.85-4.399l.283-.293-.283-.362c-.856-1.091-1.764-2.144-3.025-3.261.086.099.039.322-.169.144-.094.082-.318.021-.154-.18-.046-.434-.32-.718-.607-1.047-.24-.274-.49-.56-.783-.895l-.268-.307-.237.322c-.989 1.337-2.446 2.619-4.069 3.521-1.61.928-3.361 1.433-4.797 1.697-.638.032-1.278.012-1.915-.048-.556-.054-1.111-.145-1.655-.279-.79-.377-.955.143-.052.216.554.138 1.119.229 1.685.283 1.31.073 2.775.079 4.155-.241 1.377-.306 2.634-.923 3.447-1.701.256-.275.846-.058 1.261-.309.361-.216.624-.816.994-1.114.546-.439 1.161-.886 1.722-1.433l-1.011.03c.208.337.43.672.677.986.231.29.703.467.945.756 1.006 1.201 1.866 2.985 2.871 3.708l.001-1.041c-.012.023-.022.043-.032.062.015-.021.029-.041.04-.055l-.001 1.027c-.16-.17-.177-.319-.089-.457-.204-.203.15-.321 0 0l.264.307v-.727c-.467.542-.966 1.057-1.492 1.54-.214.26.39.55.096.812-.213-.081-.417-.164-.649-.035.135.563-1.11.984-1.571 1.429.112.242-.264.394-.488.568M299.8131 234.4043c.071-.661-1.023.022 0 0M283.8395 218.2012c.066.061.361-.107.238-.223-.065-.062-.361.106-.238.223M281.4626 217.9786v.223c1.357.156 1.357-.379 0-.223M296.0368 224.628c-.185.719 1.137.532 0 0M297.5802 225.6465c-1.14-.982-.794.329 0 0"/>
      <path fill="#31843F" d="M314.9162 224.2364c-.1-.18-.212-.112-.323-.035l.155.18.168-.145zM283.6022 217.5323c-.363-.024-2.85-.303-2.14.446-.304-.226 3.621-.343 2.14-.446M306.8083 234.1397c1.341-.054 2.644-.829 3.578-1.293.589-.265 2.038-.535 1.706-1.305-1.325.642-1.617 1.182-2.956 1.297.119.233.079.395-.081.496-.039-.396-.3-.332-.579-.287-.699.113-1.603.791-2.904.831.237.309.796.215 1.236.261M285.1916 220.6133c.04-.077-.2-.312-.278-.163-.043.081.202.312.278.163M284.9503 219.711c.043-.076-.189-.32-.273-.177-.044.077.19.323.273.177M284.7965 219.0274c.044-.074-.172-.328-.263-.187-.051.078.175.33.263.187M284.6686 218.3389c-.077-.173-.076-.456-.292-.432.078.174.076.46.292.432M289.922 209.835l1.73 1.961c.782.117-1.341-1.424-1.081-1.899-.22.116-.427-.254-.649-.062M292.6056 212.5401c.332.168.186-.196 0 0M296.8336 225.9864c.375.062.118-.243 0 0M297.2565 226.2315c.417.109 1.19.871 1.407.425-.22-.096-.445-.184-.658-.291-.275-.086-.587-.344-.749-.134M298.8083 226.9493c.194.024.458.157.532-.048-.195-.007-.448-.153-.532.048M313.5231 231.2081c.825-1.16-1.405.018-1.011.612.502-.316.409-.721 1.011-.612M280.0617 216.9102c.09-.009.157-.343-.01-.326-.089.009-.158.341.01.326M281.9489 214.7715c.09-.009.157-.343-.01-.326-.089.009-.158.341.01.326M282.2643 214.4141c.089-.008.157-.342-.01-.325-.09.008-.159.341.01.325M289.1359 208.9444c.264.241.521.71.796.565-.264-.241-.52-.71-.796-.565M293.235 213.253c-.494-.882-.532.405 0 0M294.0138 224.0157c.169.103.352.341.506.189-.169-.098-.348-.332-.506-.189M295.4919 225.3331c.179.081.396.288.527.115-.186-.066-.388-.281-.527-.115M296.8336 225.9864c-.379-.065-.119.242 0 0M313.8546 230.4483c.311.388.856-.5 1.24-.669-.33-.356-.824.541-1.24.669M305.5719 233.879c-.181-.305-.277.056 0 0M281.2253 217.086c-.066-.061-.361.108-.238.224.066.061.361-.107.238-.224M287.0602 211.6719c.09-.009.158-.342-.01-.325-.089.009-.157.341.01.325M303.2375 231.5733c.058.06.31-.112.202-.226-.056-.061-.306.112-.202.226M283.6022 214.4131c-.066-.062-.361.108-.238.223.066.062.361-.107.238-.223"/>
      <mask id="j" fill="#fff">
        <use xlink:href="#i"/>
      </mask>
      <path fill="#B5E1B9" d="M123.869 132.361h360.105v-22.089H123.869z" mask="url(#j)"/>
      <path fill="#31843F" d="M178.0051 135.0674c.379.05 2.375-.074 1.658-.168-.379-.05-2.375.073-1.658.168M215.6637 107.0411c-.419-.062-2.299.107-1.515.223.418.061 2.296-.107 1.515-.223M394.9347 134.879c.41.062 2.332-.104 1.561-.218-.41-.059-2.334.105-1.561.218M121.9806 112.6006c-.061.453.122 2.435.23 1.585.058-.45-.119-2.419-.23-1.585M173.2155 108.378c-.419-.062-2.296.107-1.515.223.422.061 2.299-.108 1.515-.223" mask="url(#j)"/>
      <path fill="#31843F" d="M235.3713 110.1592c.242-.26 2.764-.187 4.545-.223-.246.262-2.764.19-4.545.223m-37.9 0c.339.175 1.267.26 3.034.224-1.844.672-6.054-.119-6.064-.447-2.665.129-8.912-.268-9.094.223-6.569-.485 9.011-.713 9.094-.223h7.579c4.818.188-2.691.294-4.549.223m-6.064.446c-.78-.115 1.096-.284 1.516-.222.783.114-1.097.284-1.516.222m-9.094 0c.039-.217 1.857-.173 3.034-.222-.047.216-1.858.172-3.034.222m-15.155-1.337c-.787-.115 1.09-.284 1.512-.222.784.115-1.096.284-1.512.222m0 .446c-.787-.116 1.09-.284 1.512-.223.784.116-1.096.285-1.512.223m-3.037-.446c-.781-.115 1.097-.284 1.522-.222.78.115-1.103.284-1.522.222m118.24.223c-12.553-.019-24.36.386-36.378.223-6.053-.082-13.789-.571-22.741-.668-8.642-.095-17.507.074-24.252-.446-.538.318-7.725.762-9.098.223 2.147.02 4.293.037 4.549-.223-6.18-.184-5.22-.034-12.128 0 .003.124-1.23.253-1.515 0h1.515v-.222c-7.709-.037-8.363.058-3.034.445h-15.158c-10.796.686-17.887.232-30.313.445-.25.26.332.397 1.515.446-.681-.364 8.26-.364 7.579 0h-7.579v.222c1.831-.022.93.325 0 0-2.821.032-5.067.148-6.064.447 7.433.346 10.942-.554 13.643-.224 8.115-.37 26.751-.37 34.862 0h-34.862c1.821.37 8.001.451 9.097.446 1.127-.006 1.632-.276 3.024-.222.449.016.03.227 1.522.222 1.133-.003 1.621-.276 3.027-.222.472.018-.036.243 1.522.222 5.449-.075 2.07-.148 7.576.223 14.407-.185 34.284.435 43.96-.445v-.224c-4.446-.33-5.629.252-7.579-.445 5.107.141 14.081-.287 16.673.222 2.768-.409 8.5-.117 10.616.223-6.662-.297-12.53.668-16.677 0 2.267-.037 5.592.08 6.061-.223-2.662.129-8.905-.268-9.094.223.844 0 1.724.181 0 .224 6.765.623 22.262-.089 27.286.222 1.644-.054 1.027-.442 3.034-.446.674.199 1.332.399 3.033.446.661-.274 1.937-.458 4.549-.446 10.347-.136 13.205-.296 24.25 0-.734-.701 6.95-.166 7.579-.668M420.3112 108.8233c-.422-.061-2.303.107-1.518.223.418.061 2.299-.108 1.518-.223M400.6007 109.4913c14.282-.363-8.868-.353 0 0M300.5534 109.9366c3.29-.407 12.41.043 15.158-.445-3.359-.219-10.041-.016-10.61 0-1.654.049-19.049-.678-15.161 0 4.083.095 15.457-.293 10.613.445M341.4826 109.7139h34.862c-9.879-.291-28.539-.51-34.862 0M123.4723 132.5635c.042-.469-.108-2.267-.185-1.388-.036.471.116 2.263.185 1.388M123.3996 126.4082c-.046-4.066-.192-10.209.364-6.331-.195-5.347-.032-3.724-.229-9.121-.432-.81-.545 4.144-.469 8.783.077 4.638.278 8.81.334 6.669M126.2253 109.7139c.418.062 2.303-.106 1.516-.223-.42-.061-2.3.108-1.516.223" mask="url(#j)"/>
      <path fill="#31843F" d="M132.2926 109.4913c-.422-.062-2.303.107-1.518.223.418.062 2.302-.107 1.518-.223M285.3947 109.4913c-.419-.062-2.296.107-1.515.223.418.062 2.299-.107 1.515-.223M335.422 109.4913c-5.602.143-15.105-.288-18.192.223 5.599-.143 15.095.289 18.192-.223M339.9611 109.4913c-.419-.062-2.296.107-1.509.223.419.062 2.3-.107 1.509-.223" mask="url(#j)"/>
      <path fill="#31843F" d="M464.2682 110.3829c-.781-.115 1.096-.284 1.515-.224.784.116-1.097.286-1.515.224m-50.757 22.529c19.814-.208 44.746-.215 70.464-.164h.386l.001-.387c.017-7.328.035-14.729.053-22.089l.001-.44-.441-.001c-20.221-.041-40.08-.082-57.603-.117-13.404 0-24.967-.152-36.381-.223-.727-.004-1.216.503-3.031.446 0 0-.757-.709-3.033-.446-.289.253-1.522.124-1.518 0-2.715-.027-3.197.273-6.064.223-16.391.316-47.589.265-68.213.445-2.379.022-9.825-.309-9.094.447 37.328-.552 94.163-.55 131.883-.223 5.555-.429 7.968.097 15.155-.224.01.328 4.22 1.12 6.064.447-2.576.082-2.862-.174-3.031-.447 4.117.139 12.032-.282 13.64.224-2.147-.02-4.289-.036-4.542.223 4.628-.161 5.522.227 9.091.222 3.519-.325-2.961-.706 3.034-.669 4.707-.089 9.25-.092 13.643-.064l.178.001-.002.176c-.05 7.747-.197 15.062-.148 22.089l.001.029h-.029c-3.833.027-7.579.113-11.269.305-20.885-.191-37.601-.209-59.13-.223-1.233.042-1.545.22-3.062.22-.152.583 1.078.24 2.997.22" mask="url(#j)"/>
      <path fill="#31843F" d="M405.8908 133.1309c1.145-.205 2.815-.333 4.624-.439-2.039-.433-12.819-.269-15.17-.002l-.041.219c5.919-.174 7.722-.329 10.587.222M184.2194 132.9766c8.095.009 16.191.017 24.283.024l4.555.005c1.209-.04 2.998-.003 3.162-.181-10.219.108-24.085-.251-32 .152M179.6652 132.9727c1.208-.038 2.998-.003 3.175-.173-1.212.038-3.004.003-3.175.173M167.6637 132.7891c6.857.482 4.14-.562 0 0M294.4894 109.9366c8.041.242 1.79-.676 0 0M348.3136 132.6817c-5.695.037-11.138-.371-16.758.207 7.902.003 18.118.007 27.323.01 9.809-.011 19.712.228 22.857-.428-13.695-.152-24.221.149-33.422.211M215.1984 132.084c.72.096-1.255.235-1.639.185-.716-.094 1.256-.236 1.639-.185m4.546-.002c-.163.182-1.948.145-3.152.187.161-.181 1.949-.145 3.152-.187m33.221.182c-4.842.447-15.674.067-22.855.192 4.863-.437 15.677-.068 22.855-.192m-4.327-.386c.019.419-5.422.089-7.685.196-2.524 0-5.047.002-7.574.002 2.363-.433 10.583-.076 15.259-.198m15.038.187c.73.102-1.229.251-1.619.198-.73-.101 1.229-.252 1.619-.198m-74.504.385c-2.014-.001-4.041-.001-6.058-.001-2.673-.05-3.242.164-1.661.175 32.295-.22 47.364.503 74.33.03-.845 0-1.635-.158.107-.195.058-.109 1.348-.223 1.512 0 2.174.22 4.697.201 7.482.198 22.807-.027 55.463.035 75.983-.402 4.04-.001 8.076-.001 12.125-.001 3.532 0 7.07-.001 10.607-.001 5.436.156 5.578-.373.057-.216l-10.602.003c-16.409.113-35.98-.227-50.077.218-2.362.094-4.514-.368-7.402-.407-2.502-.036-6.216.239-9.177.207-6.666-.071-13.763-.352-20.998-.389-2.351-.011-5.277.206-7.678.203-10.162-.017-22.337-.456-30.164-.169 1.781-.031 2.668.039 2.908.187 1.841-.021.761.272 0 0l-16.656.01c-2.207.043-.907.55-3.411.553-.562-.164-1.099-.328-2.776-.366-1.898.414-9.572.071-13.767.184-.396.209-2.875.151-4.684.179M123.5343 110.9561c.128-.062.199-.333.232-.685l.01-.111.093.008c1.4.133 4.121-.35 0-.252l-.366.009.01.346c.006.188.013.426.021.685M279.3307 109.9366c-.422-.061-2.3.107-1.519.223.419.062 2.304-.106 1.519-.223M294.4894 110.1592v-.223c-8.656-.156-8.656.379 0 .223M395.3449 132.6895c-1.671-.665-8.098.235 0 0M383.2052 132.6885c9.666.253 3.473-.666 0 0" mask="url(#j)"/>
      <path fill="#31843F" d="M255.7834 132.6543c1.267.036 1.468-.077 1.619-.195h-1.512l-.107.195zM280.8459 110.6055c2.313.024 18.172.303 13.644-.446 1.943.226-23.09.343-13.644.446M146.7233 132.4434c8.201.143 17.61-.115 24.402-.169 4.233-.033 12.908.294 13.914-.353-9.714-.028-12.949.273-21.206.015.081.197-.592.303-1.803.34.813-.295-.926-.312-2.742-.336-4.632-.063-11.61.263-19.843.177 1.059.241 4.66.234 7.278.326M258.1051 110.6055c.418.062 2.299-.108 1.515-.223-.419-.061-2.296.108-1.515.223M264.1691 110.6055c.422.062 2.303-.108 1.518-.223-.415-.061-2.299.108-1.518.223M268.7179 110.6055c.422.062 2.302-.108 1.519-.223-.426-.061-2.3.108-1.519.223M273.2633 110.6055c1.18-.05 2.998-.006 3.034-.223-1.177.05-2.987.005-3.034.223M427.8874 110.8282h16.673c3.858-.509-12.469.063-13.639-.445-.379.241-3.018.151-3.034.445M452.1403 110.6055c2.206-.138-.153-.27 0 0M386.3771 132.0332c-2.23.136.098.265 0 0M383.3459 132.0342c-2.692.125-8.833-.26-9.139.218h4.544c1.795-.034 4.298.037 4.595-.218M372.7472 132.0362c-1.191.049-2.996.006-3.088.217 1.191-.049 2.994-.005 3.088-.217M193.8561 132.2715c9.03-.428-7.479-.595-7.578.001 3.786-.02 4.939-.335 7.578-.001M324.8053 110.8282c.419.062 2.299-.108 1.516-.223-.419-.061-2.3.107-1.516.223M342.9943 110.8282c.419.062 2.3-.108 1.515-.223-.418-.061-2.296.107-1.515.223M346.0314 110.8282c.415.062 2.296-.108 1.512-.223-.415-.061-2.297.107-1.512.223M420.3112 110.8282c2.263-.038 5.592.079 6.061-.223-2.27.038-5.592-.08-6.061.223M458.2077 110.6055c-6.3-.213-.31.667 0 0M407.6193 131.8106c-1.183.05-2.987.007-3.067.221 1.188-.049 2.99-.006 3.067-.221M395.5094 131.8135c-1.185.05-2.991.007-3.073.22 1.188-.05 2.987-.007 3.073-.22M386.3771 132.0332c2.232-.135-.098-.263 0 0M198.6667 131.9112c-.101.397 6.369.073 8.957.176.093-.402-6.372-.073-8.957-.176M139.445 132.1172c-.711-.234-1.845.018 0 0M296.0041 111.0518c.418.061 2.303-.108 1.516-.224-.419-.061-2.3.107-1.516.224M379.3786 112.6104c.418.062 2.299-.107 1.515-.223-.419-.061-2.296.108-1.515.223M126.026 130.3916c.378.041 2.373-.086 1.666-.164-.37-.042-2.362.085-1.666.164M280.8459 113.7247c.418.062 2.299-.108 1.515-.223-.419-.062-2.296.107-1.515.223" mask="url(#j)"/>
      <path fill="#B5E1B9" d="M172.422 166.361h263v-22.089h-263z" mask="url(#j)"/>
      <path fill="#31843F" d="M212.2653 169.0723c.274.051 1.792-.073 1.274-.168-.274-.05-1.792.073-1.274.168M235.2819 141.0411c-.313-.062-1.715.107-1.13.223.312.061 1.712-.107 1.13-.223M374.5294 168.8838c.304.062 1.746-.104 1.174-.218-.305-.059-1.748.105-1.174.218M170.5881 151.9903c-.054.352.136 1.799.234 1.142.054-.348-.131-1.788-.234-1.142M203.6188 142.378c-.313-.062-1.713.107-1.13.223.314.061 1.714-.108 1.13-.223" mask="url(#j)"/>
      <path fill="#31843F" d="M249.9821 144.1592c.181-.26 2.062-.187 3.39-.223-.183.262-2.062.19-3.39.223m-28.271 0c.253.175.945.26 2.263.224-1.375.672-4.515-.119-4.523-.447-1.988.129-6.647-.268-6.783.223-4.9-.485 6.721-.713 6.783-.223h5.654c3.594.188-2.008.294-3.394.223m-4.523.446c-.582-.115.818-.284 1.13-.222.585.114-.817.284-1.13.222m-6.783 0c.029-.217 1.385-.173 2.263-.222-.035.216-1.386.172-2.263.222m-11.305-1.337c-.587-.115.813-.284 1.128-.222.585.115-.818.284-1.128.222m0 .446c-.587-.116.813-.284 1.128-.223.585.116-.818.285-1.128.223m-2.265-.446c-.583-.115.818-.284 1.135-.222.582.115-.823.284-1.135.222m88.198.223c-9.364-.019-18.171.386-27.135.223-4.516-.082-10.286-.571-16.963-.668-6.447-.095-13.059.074-18.091-.446-.401.318-5.762.762-6.786.223 1.601.02 3.202.037 3.393-.223-4.61-.184-3.894-.034-9.046 0 .002.124-.918.253-1.131 0h1.131v-.222c-5.751-.037-6.239.058-2.263.445h-11.307c-8.053.686-13.342.232-22.612.445-.186.26.248.397 1.13.446-.508-.364 6.162-.364 5.654 0h-5.654v.222c1.366-.022.694.325 0 0-1.133.017-2.143.059-2.931.14l-.212.021.017.174c.069.712.169 1.252.306 1.586.035-.566.058-1.099.07-1.586l-.181.181c4.481.106 6.776-.59 8.585-.293 6.053-.37 19.954-.37 26.004 0h-26.004c1.358.37 5.968.451 6.786.446.84-.006 1.217-.276 2.255-.222.335.016.023.227 1.136.222.845-.003 1.209-.276 2.257-.222.353.018-.027.243 1.136.222 4.065-.075 1.544-.148 5.651.223 10.747-.185 25.573.435 32.791-.445v-.224c-3.317-.33-4.199.252-5.654-.445 3.81.141 10.504-.287 12.437.222 2.065-.409 6.34-.117 7.919.223-4.969-.297-9.346.668-12.439 0 1.69-.037 4.171.08 4.52-.223-1.985.129-6.642-.268-6.783.223.629 0 1.286.181 0 .224 5.046.623 16.606-.089 20.353.222 1.227-.054.766-.442 2.263-.446.504.199.994.399 2.263.446.493-.274 1.445-.458 3.393-.446 7.718-.136 9.85-.296 18.088 0-.547-.701 5.185-.166 5.654-.668M387.9337 142.8233c-.315-.061-1.718.107-1.132.223.312.061 1.715-.108 1.132-.223M373.2311 143.4913c10.653-.363-6.615-.353 0 0M298.6032 143.9366c2.454-.407 9.257.043 11.307-.445-2.506-.219-7.491-.016-7.914 0-1.234.049-14.21-.678-11.31 0 3.046.095 11.53-.293 7.917.445M329.133 143.7139h26.005c-7.369-.291-21.288-.51-26.005 0M172.026 166.6124c.042-.361-.101-1.672-.178-.995-.038.362.106 1.668.178.995M171.9709 162.0235c-.035-3.03-.18-7.584.351-4.804-.188-3.949-.03-2.77-.227-6.76-.429-.524-.513 3.203-.438 6.652.076 3.447.253 6.525.314 4.912M171.8688 148.1983c.062-.323-.109-1.742-.224-1.132-.06.329.112 1.746.224 1.132" mask="url(#j)"/>
      <path fill="#31843F" d="M173.0929 143.4913c-.121-.023-.403-.014-.671.015l-.835.089.07.676c.045.441.137.838.207.47.018-.091.017-.271.004-.47l-.033-.514.587-.039c.488-.034 1.089-.144.671-.227M287.2956 143.4913c-.312-.062-1.712.107-1.13.223.312.062 1.715-.107 1.13-.223M324.6125 143.4913c-4.179.143-11.267-.288-13.57.223 4.176-.143 11.26.289 13.57-.223M327.9982 143.4913c-.312-.062-1.713.107-1.125.223.312.062 1.715-.107 1.125-.223" mask="url(#j)"/>
      <path fill="#31843F" d="M420.7223 144.3829c-.583-.115.817-.284 1.13-.224.585.116-.818.286-1.13.224m-32.262 22.53c13.331-.187 29.753-.212 46.962-.178l.373.001.001-.375c.022-7.258.044-14.702.066-22.089l.001-.44-.441-.001c-15.083-.041-29.897-.082-42.968-.117-9.998 0-18.623-.152-27.137-.223-.543-.004-.908.503-2.261.446 0 0-.564-.709-2.263-.446-.215.253-1.134.124-1.132 0-2.025-.027-2.384.273-4.523.223-12.227.316-35.498.265-50.882.445-1.775.022-7.329-.309-6.784.447 27.844-.552 70.239-.55 98.375-.223 4.145-.429 5.944.097 11.305-.224.007.328 3.148 1.12 4.524.447-1.922.082-2.135-.174-2.262-.447 3.072.139 8.975-.282 10.175.224-1.601-.02-3.2-.036-3.388.223 3.452-.161 4.119.227 6.781.222 2.625-.325-2.208-.706 2.263-.669 3.512-.089 6.9-.092 10.177-.064l.178.001-.002.176c-.067 7.867-.317 15.137-.001 22.089l.007.167-.182.007c-.936.043-1.866.096-2.791.16-15.583-.191-28.051-.209-44.112-.223-.921.042-1.158.221-2.29.221-.129.584.799.24 2.231.22" mask="url(#j)"/>
      <path fill="#31843F" d="M382.7672 167.1329c.861-.206 2.11-.334 3.462-.44-1.509-.434-9.554-.27-11.317-.002l-.039.219c4.423-.173 5.771-.33 7.894.223M217.319 166.9786c6.042.008 12.083.017 18.123.024l3.399.005c.91-.041 2.239-.003 2.391-.182-7.647.109-17.929-.252-23.913.153M213.9201 166.9737c.91-.038 2.239-.002 2.404-.173-.912.038-2.243.002-2.404.173M204.9997 166.7891c5.018.484 3.206-.562 0 0M294.0797 143.9366c5.998.242 1.335-.676 0 0M339.82 166.6827c-4.252.037-8.283-.372-12.519.208 5.896.003 13.52.006 20.39.01 7.319-.011 14.701.228 17.076-.43-10.209-.152-18.076.15-24.947.212M240.5934 166.0831c.521.096-.976.236-1.253.186-.519-.095.976-.237 1.253-.186m3.391-.002c-.152.183-1.478.146-2.382.187.149-.18 1.477-.145 2.382-.187m24.747.182c-3.674.449-11.701.068-17.076.193 3.694-.438 11.704-.068 17.076-.193m-3.173-.387c-.045.421-4.056.09-5.758.196l-5.648.004c1.827-.435 7.901-.078 11.406-.2m11.187.188c.532.102-.948.252-1.232.198-.532-.101.949-.252 1.232-.198m-55.629.386c-1.502 0-3.014-.001-4.519-.001-1.984-.05-2.451.164-1.274.175 24.131-.22 35.265.506 55.458.031-.631-.001-1.199-.159.106-.196.057-.109 1.035-.223 1.127.001 1.594.22 3.479.201 5.557.198 17.019-.027 41.386.035 56.723-.404 3.013 0 6.024 0 9.044-.001h7.911c4.046.156 4.179-.374.054-.216-2.637 0-5.274.001-7.906.002-12.246.113-26.809-.228-37.364.219-1.771.094-3.33-.37-5.479-.409-1.861-.036-4.66.24-6.865.208-4.963-.071-10.222-.354-15.608-.39-1.751-.011-3.96.206-5.75.203-7.576-.016-16.585-.458-22.461-.169 1.332-.032 1.982.039 2.138.187 1.376-.021.525.274 0 0l-12.419.011c-1.653.042-.769.551-2.638.554-.391-.164-.763-.329-2.007-.367-1.488.416-7.152.072-10.301.185-.333.209-2.172.151-3.527.179M172.0944 150.459c.657-.351-.217-4.709 0 0M282.7726 143.9366c-.315-.061-1.715.107-1.133.223.313.062 1.718-.106 1.133-.223M294.0797 144.1592v-.223c-6.457-.156-6.457.379 0 .223M374.9118 166.6905c-1.223-.667-6.051.235 0 0M365.8537 166.6895c7.202.253 2.619-.668 0 0" mask="url(#j)"/>
      <path fill="#31843F" d="M270.7814 166.6553c.94.036 1.105-.077 1.233-.195-.374 0-.753-.001-1.127-.001l-.106.196zM283.903 144.6055c1.725.024 13.555.303 10.177-.446 1.449.226-17.224.343-10.177.446M189.4504 166.4434c6.086.143 13.163-.115 18.239-.169 3.163-.033 9.57.295 10.447-.354-7.236-.028-9.711.273-15.813.016.019.197-.506.302-1.418.34.67-.296-.623-.312-1.971-.337-3.439-.062-8.715.264-14.836.178.732.24 3.42.234 5.352.326M266.9396 144.6055c.312.062 1.715-.108 1.13-.223-.312-.061-1.713.108-1.13.223M271.463 144.6055c.315.062 1.718-.108 1.132-.223-.309-.061-1.715.108-1.132.223M274.8566 144.6055c.314.062 1.717-.108 1.132-.223-.317-.061-1.715.108-1.132.223M278.2467 144.6055c.88-.05 2.236-.006 2.263-.223-.877.05-2.228.005-2.263.223M393.5846 144.8282h12.438c2.877-.509-9.302.063-10.175-.445-.283.241-2.251.151-2.263.445M411.6759 144.6055c1.646-.138-.114-.27 0 0M368.2472 166.0332c-1.669.135.062.264 0 0M365.9865 166.0332c-2.013.125-6.575-.261-6.826.219h3.389c1.341-.035 3.204.037 3.437-.219M358.0827 166.0352c-.89.049-2.234.006-2.314.217.891-.048 2.233-.005 2.314-.217M224.6437 166.2715c6.812-.429-5.463-.597-5.652.001 2.828-.02 3.746-.336 5.652-.001M316.6935 144.8282c.312.062 1.715-.108 1.13-.223-.312-.061-1.715.107-1.13.223M330.2609 144.8282c.312.062 1.715-.108 1.13-.223-.312-.061-1.713.107-1.13.223M332.5265 144.8282c.31.062 1.712-.108 1.127-.223-.309-.061-1.712.107-1.127.223M387.9337 144.8282c1.687-.038 4.171.079 4.521-.223-1.693.038-4.171-.08-4.521.223M416.2013 144.6055c-4.699-.213-.231.667 0 0M384.0939 165.8096c-.883.05-2.228.007-2.293.221.887-.049 2.23-.006 2.293-.221M375.0646 165.8125c-.885.049-2.23.006-2.299.22.888-.05 2.227-.007 2.299-.22M368.2472 166.0332c1.67-.136-.063-.264 0 0M228.297 165.9102c-.147.398 4.736.073 6.647.176.14-.403-4.738-.073-6.647-.176M184.0988 166.1172c-.475-.234-1.38.018 0 0M295.2096 145.0518c.312.061 1.718-.108 1.13-.224-.312-.061-1.714.107-1.13.224M357.401 146.6104c.312.062 1.715-.107 1.13-.223-.312-.061-1.713.108-1.13.223M174.5309 164.3916c.271.041 1.787-.086 1.281-.164-.264-.042-1.779.085-1.281.164M283.903 147.7247c.312.062 1.715-.108 1.13-.223-.313-.062-1.713.107-1.13.223" mask="url(#j)"/>
    </g>
  </g>
</svg>
